<?xml version="1.0" encoding="UTF-8" standalone="no"?>
<svg
   xmlns:dc="http://purl.org/dc/elements/1.1/"
   xmlns:cc="http://creativecommons.org/ns#"
   xmlns:rdf="http://www.w3.org/1999/02/22-rdf-syntax-ns#"
   xmlns:svg="http://www.w3.org/2000/svg"
   xmlns="http://www.w3.org/2000/svg"
   id="svg8"
   version="1.1"
   viewBox="0 0 25.399999 25.400001"
   height="96"
   width="96">
  <defs
     id="defs2">
    <clipPath
       id="clipPath44"
       clipPathUnits="userSpaceOnUse">
      <path
         id="path46-65"
         d="M 0,38 H 38 V 0 H 0 Z" />
    </clipPath>
    <clipPath
       id="clipPath16-2"
       clipPathUnits="userSpaceOnUse">
      <path
         id="path18-53"
         d="M 0,38 H 38 V 0 H 0 Z" />
    </clipPath>
    <clipPath
       id="clipPath28-4"
       clipPathUnits="userSpaceOnUse">
      <path
         id="path30-9"
         d="M 1.193,5 C 1.193,3 3,1 5,1 v 0 h 28 c 2,0 3.731,2 3.731,4 v 0 c 0,4.355 -4.634,11 -17.731,11 v 0 C 5.508,16 1.193,9.541 1.193,5" />
    </clipPath>
    <clipPath
       id="clipPath16-1"
       clipPathUnits="userSpaceOnUse">
      <path
         id="path18-5"
         d="M 0,38 H 38 V 0 H 0 Z" />
    </clipPath>
  </defs>
  <metadata
     id="metadata5">
    <rdf:RDF>
      <cc:Work
         rdf:about="">
        <dc:format>image/svg+xml</dc:format>
        <dc:type
           rdf:resource="http://purl.org/dc/dcmitype/StillImage" />
        <dc:title />
      </cc:Work>
    </rdf:RDF>
  </metadata>
  <g
     transform="translate(0,-271.59999)"
     id="layer1">
    <g
       transform="translate(-76.667721,126.53229)"
       id="athletics">
      <path
         style="fill:#b47d56;fill-opacity:1;stroke:none;stroke-width:0.20011002;stroke-opacity:1"
         d="m 90.536213,162.79757 c 0,0 1.489426,1.87874 2.163726,1.89873 0.626297,0.028 4.467539,-1.98371 4.467539,-1.98371 l -1.233305,-1.14855 c -1.397574,0.50018 -2.043006,0.44068 -2.537488,1.09991 -0.2292,-0.73768 -1.079895,-1.74473 -1.107021,-1.6091 z"
         id="path5093-1-8" />
      <path
         style="fill:#b47d56;fill-opacity:1;stroke:none;stroke-width:0.20011005;stroke-opacity:1"
         d="m 84.769175,161.84832 c 0,0 -1.682217,1.61086 -1.814456,2.25732 -0.132239,0.64647 0.609469,2.529 0.998795,4.05346 l 1.682068,0.20905 c -0.298091,-2.16223 -0.297166,-3.23927 -0.848378,-3.93065 0.717667,-0.23736 1.0137,-0.36232 1.909204,-1.19193 z"
         id="path5093-16" />
      <g
         transform="matrix(0.40857956,-0.07629273,0.07629273,0.40857956,72.058916,146.0517)"
         style="fill:#d3976e;stroke-width:0.48144862"
         id="g5085">
        <path
           style="fill:#bdc2c5;fill-opacity:1;stroke-width:0.48144862"
           d="m 53.210403,52.786287 c 1.131371,1.697055 3.394112,2.121321 5.091169,0.989949 l -5.814267,-7.212489 c -1.606785,-1.369474 -1.599492,-0.381516 -3.024568,0.636396"
           id="path5081" />
        <path
           style="fill:#bdc2c5;fill-opacity:1;stroke-width:0.48144862"
           d="m 15.68619,56.676654 c -1.933846,-0.648259 -3.982203,0.402566 -4.630462,2.336412 l 9.25863,1.710571 c 2.119313,0.150227 1.455677,-0.224424 2.053658,-1.889855"
           id="path5083" />
      </g>
      <g
         style="stroke-width:1.15078139"
         transform="matrix(0.86897473,0,0,0.86897473,11.25992,19.891124)"
         id="g5253">
        <path
           id="path5067"
           d="m 84.178551,151.84193 1.722714,-2.18172 3.091823,6.23382 -3.186097,-0.66963 z"
           style="fill:#b47d56;stroke-width:0.2302829" />
        <path
           id="path5071"
           d="m 83.597493,145.99938 -3.077838,3.23874 c 0.267021,1.19735 0.820273,2.35447 1.202264,3.02079 1.888263,1.36243 1.677255,1.92312 3.557359,0.15553 0.575871,-0.61948 0.436993,-1.53576 0.436993,-1.53576 l 0.838794,-1.2722 -2.735815,-3.70186"
           style="fill:#b47d56;stroke-width:0.2302829" />
        <path
           id="path5073"
           d="m 80.769244,147.02634 c -0.07246,-0.87483 0.513043,-0.39468 0.51717,-0.44316 2.220619,-1.27866 3.864876,-1.13346 4.128234,-0.20607 1.330236,0.592 1.676445,2.74296 1.192297,4.58335 0,0 -1.407209,0.49922 -1.842502,-0.13304 -0.05084,-1.92769 -0.752514,-1.09783 -1.319591,-0.7921 -0.704433,-0.59016 -0.483466,-1.61319 -1.523197,-1.45607 -0.881106,0.14886 -1.41929,0.86561 -1.41929,0.86561 -0.502873,-0.33227 -1.148023,-1.98381 0.03649,-2.62407"
           style="fill:#3c3537;fill-opacity:1;stroke-width:0.2302829" />
      </g>
      <path
         style="fill:#b47d56;stroke-width:0.20011002"
         d="m 93.209036,155.2859 -0.635948,0.39473 c -0.214359,0.11888 -0.316952,0.41401 -0.152861,0.65935 l 0.178315,0.32153 c 0.111762,0.17626 0.285491,0.2621 0.475976,0.22653 0.268737,0.3835 0.749302,0.84572 1.530529,0.38444 0.145275,-0.0666 0.857422,-0.47551 0.343818,-1.32581 -0.782341,-1.23381 -0.782341,-1.23381 -1.739829,-0.66077"
         id="path5089" />
      <path
         style="fill:#b47d56;fill-opacity:1;stroke-width:0.20011002"
         d="m 93.835041,154.99727 -2.541483,-2.40975 c 0,0 -3.141775,-0.49456 -4.297433,-0.37242 0.205389,2.06854 1.764522,1.77085 3.729905,1.67041 l 1.967944,1.80891"
         id="path5087" />
      <path
         id="path5093"
         d="m 89.699164,159.16609 -3.244219,0.81705 c -1.374289,0.87076 -1.568085,0.91138 -2.422207,1.97544 l 3.052123,2.38477 c 0.982252,-0.84705 0.916104,-1.8402 2.225362,-2.46315 z"
         style="fill:#0f5894;fill-opacity:1;stroke:none;stroke-width:0.20011005;stroke-opacity:1" />
      <path
         style="fill:#b47d56;stroke-width:0.20011002"
         d="m 81.938032,156.30397 0.197164,-0.75562 c 0.0768,-0.26803 -0.106808,-0.57201 -0.367216,-0.60795 l -0.398238,-0.0948 c -0.21955,-0.0436 -0.416211,0.0355 -0.515894,0.1809 -0.520816,-0.0719 -1.19743,-0.0724 -1.445793,0.86193 -0.05883,0.13783 -0.281593,0.98279 0.742062,1.25676 1.495981,0.31261 1.495981,0.31261 1.787915,-0.84125"
         id="path5097" />
      <path
         id="path5093-1"
         d="m 87.549495,159.74867 c 1.249485,2.37915 3.356013,4.21619 3.356013,4.21619 l 2.405908,-2.93355 c -1.212318,-0.93186 -0.896106,-0.9104 -1.858985,-1.8976 -1.266742,0.34701 -2.60223,0.43469 -3.902936,0.61496 z"
         style="fill:#1766b4;fill-opacity:1;stroke:none;stroke-width:0.20011002;stroke-opacity:1" />
      <path
         id="path5868"
         d="m 91.839396,162.03533 c -0.897748,-0.73363 -1.510067,-1.80296 -2.216645,-2.66843"
         style="fill:none;fill-rule:evenodd;stroke:#ffffff;stroke-width:0.79374999;stroke-linecap:butt;stroke-linejoin:miter;stroke-miterlimit:4;stroke-dasharray:none;stroke-opacity:1" />
      <path
         style="fill:#e1c12d;fill-opacity:1;stroke-width:0.20011002"
         d="m 92.364511,159.47092 c -0.0682,-1.19262 -1.678458,-2.45204 -2.448122,-3.60927 -1.23836,-1.86194 -1.259031,-1.87434 -1.259031,-1.87434 0,0 -0.975706,-1.4759 -1.686756,-1.79047 1.775559,2.73052 -0.188312,0.89164 -1.036812,0.71365 0,0 -0.48816,-0.20448 -0.9095,0.0214 -0.352378,0.4901 0.06594,1.66526 0.226461,2.61128 0.808702,1.33372 2.09502,2.15056 1.143004,4.5107 2.764489,-0.94552 3.870333,0.24224 5.970715,-0.58293 z"
         id="path5095" />
      <path
         id="path5896"
         d="m 87.880888,159.20752 c 0.443793,-1.54117 -1.210726,-3.02472 -2.121284,-4.55883"
         style="fill:none;fill-rule:evenodd;stroke:#ffffff;stroke-width:0.79374999;stroke-linecap:butt;stroke-linejoin:miter;stroke-miterlimit:4;stroke-dasharray:none;stroke-opacity:1" />
      <path
         id="path7096"
         d="m 84.983603,153.15937 c 3.053124,0.2457 -0.621701,4.5199 -1.830639,5.35635 -0.49056,0.16352 -1.793847,-0.89776 -2.477458,-1.30348 0.101246,-0.54733 -0.124555,-1.1362 0.85031,-1.41472 0.190767,-0.0226 0.709345,0.49608 1.355285,0.9073 0.427957,-0.99594 1.471401,-3.28034 2.102502,-3.54545 z"
         style="fill:#b47d56;fill-opacity:1;fill-rule:evenodd;stroke:none;stroke-width:0.26458332px;stroke-linecap:butt;stroke-linejoin:miter;stroke-opacity:1" />
    </g>
  </g>
</svg>
