<?xml version="1.0" encoding="UTF-8" standalone="no"?>
<svg
   xmlns:dc="http://purl.org/dc/elements/1.1/"
   xmlns:cc="http://creativecommons.org/ns#"
   xmlns:rdf="http://www.w3.org/1999/02/22-rdf-syntax-ns#"
   xmlns:svg="http://www.w3.org/2000/svg"
   xmlns="http://www.w3.org/2000/svg"
   id="svg8"
   version="1.1"
   viewBox="0 0 25.399999 25.400001"
   height="96"
   width="96">
  <defs
     id="defs2">
    <clipPath
       id="clipPath44"
       clipPathUnits="userSpaceOnUse">
      <path
         id="path46-65"
         d="M 0,38 H 38 V 0 H 0 Z" />
    </clipPath>
    <clipPath
       id="clipPath16-2"
       clipPathUnits="userSpaceOnUse">
      <path
         id="path18-53"
         d="M 0,38 H 38 V 0 H 0 Z" />
    </clipPath>
    <clipPath
       id="clipPath28-4"
       clipPathUnits="userSpaceOnUse">
      <path
         id="path30-9"
         d="M 1.193,5 C 1.193,3 3,1 5,1 v 0 h 28 c 2,0 3.731,2 3.731,4 v 0 c 0,4.355 -4.634,11 -17.731,11 v 0 C 5.508,16 1.193,9.541 1.193,5" />
    </clipPath>
    <clipPath
       id="clipPath16-1"
       clipPathUnits="userSpaceOnUse">
      <path
         id="path18-5"
         d="M 0,38 H 38 V 0 H 0 Z" />
    </clipPath>
    <clipPath
       id="clipPath16-90"
       clipPathUnits="userSpaceOnUse">
      <path
         id="path18-2"
         d="M 0,38 H 38 V 0 H 0 Z" />
    </clipPath>
    <clipPath
       clipPathUnits="userSpaceOnUse"
       id="clipPath16-4">
      <path
         d="M 0,36 H 36 V 0 H 0 Z"
         id="path18-8" />
    </clipPath>
  </defs>
  <metadata
     id="metadata5">
    <rdf:RDF>
      <cc:Work
         rdf:about="">
        <dc:format>image/svg+xml</dc:format>
        <dc:type
           rdf:resource="http://purl.org/dc/dcmitype/StillImage" />
        <dc:title />
      </cc:Work>
    </rdf:RDF>
  </metadata>
  <g
     transform="translate(0,-271.59999)"
     id="layer1">
    <g
       id="canadian_football"
       transform="translate(0,7.1061754e-6)">
      <path
         d="m 19.301744,290.67057 c -4.38669,4.38669 -11.5148217,6.03194 -16.4492866,3.28986 -2.74208298,-4.93511 -1.0968332,-12.06324 3.2898573,-16.44929 4.3860483,-4.38669 11.5141793,-6.03194 16.4492863,-3.28985 2.742083,4.93446 1.096834,12.06259 -3.289857,16.44928"
         style="fill:#a55036;fill-opacity:1;fill-rule:nonzero;stroke:none;stroke-width:0.34986731"
         id="path22-6-3" />
      <path
         d="m 19.736804,288.26345 c -3.708422,3.70842 -9.7344,5.09928 -13.9058979,2.78118 -2.3181011,-4.17205 -0.9272401,-10.19802 2.7811796,-13.9059 3.7078773,-3.70842 9.7338573,-5.09928 13.9058973,-2.78118 2.318103,4.1715 0.927239,10.19747 -2.781179,13.9059"
         style="fill:#ae5d45;fill-opacity:1;fill-rule:nonzero;stroke:none;stroke-width:0.34986728"
         id="path22-6-6-3-4" />
      <path
         d="m 20.174294,284.84846 c -2.728535,2.72853 -7.162255,3.75188 -10.2315076,2.0463 -1.7055833,-3.06966 -0.6822328,-7.50337 2.0463016,-10.23151 2.728136,-2.72853 7.161856,-3.75188 10.231508,-2.0463 1.705584,3.06925 0.682233,7.50297 -2.046302,10.23151"
         style="fill:#bb6c54;fill-opacity:1;fill-rule:nonzero;stroke:none;stroke-width:0.34986728"
         id="path22-6-6-6" />
      <path
         id="path6867-0"
         d="M 3.1967668,293.55717 22.232846,274.59753"
         style="fill:none;fill-rule:evenodd;stroke:#7a3c29;stroke-width:1.0583334;stroke-linecap:round;stroke-linejoin:miter;stroke-miterlimit:4;stroke-dasharray:none;stroke-opacity:1" />
      <path
         id="path6869-6"
         d="m 8.370591,288.36934 8.133205,-8.05255"
         style="fill:none;fill-opacity:1;fill-rule:evenodd;stroke:#dfc2af;stroke-width:1.0583334;stroke-linecap:round;stroke-linejoin:miter;stroke-miterlimit:4;stroke-dasharray:none;stroke-opacity:1" />
      <path
         id="path6871-8"
         d="m 8.2090528,286.34327 2.1722602,2.27249"
         style="fill:none;fill-opacity:1;fill-rule:evenodd;stroke:#dfc2af;stroke-width:1.0583334;stroke-linecap:round;stroke-linejoin:round;stroke-miterlimit:4;stroke-dasharray:none;stroke-opacity:1" />
      <path
         id="path6871-3-8"
         d="m 10.138158,284.30448 2.17226,2.27248"
         style="fill:none;fill-opacity:1;fill-rule:evenodd;stroke:#dfc2af;stroke-width:1.0583334;stroke-linecap:round;stroke-linejoin:round;stroke-miterlimit:4;stroke-dasharray:none;stroke-opacity:1" />
      <path
         id="path6871-2-2"
         d="m 12.217027,282.22561 2.17226,2.27248"
         style="fill:none;fill-opacity:1;fill-rule:evenodd;stroke:#dfc2af;stroke-width:1.0583334;stroke-linecap:round;stroke-linejoin:round;stroke-miterlimit:4;stroke-dasharray:none;stroke-opacity:1" />
      <path
         id="path6871-0-0"
         d="m 14.319519,280.24123 2.172261,2.27249"
         style="fill:none;fill-opacity:1;fill-rule:evenodd;stroke:#dfc2af;stroke-width:1.0583334;stroke-linecap:round;stroke-linejoin:round;stroke-miterlimit:4;stroke-dasharray:none;stroke-opacity:1" />
      <path
         id="path6900-07"
         d="m 11.231517,274.10062 c 5.696683,0.7722 10.376875,5.44273 11.52566,11.43349 0.347453,-0.80469 1.00652,-3.00849 1.103009,-4.44063 -1.963403,-3.53934 -4.719394,-6.24929 -8.24173,-8.14067 -1.167204,0.0713 -3.560959,0.7463 -4.386939,1.14781 z"
         style="fill:#dfc2af;fill-opacity:1;fill-rule:evenodd;stroke:none;stroke-width:0.26458335px;stroke-linecap:butt;stroke-linejoin:miter;stroke-opacity:1" />
      <path
         id="path6900-0-6"
         d="M 14.214604,294.07479 C 8.5179205,293.3026 3.8377289,288.63207 2.6889439,282.6413 c -0.3474528,0.8047 -1.0065204,3.0085 -1.1030096,4.44064 1.9634038,3.53934 4.7193943,6.24928 8.2417309,8.14066 1.1672038,-0.0713 3.5609578,-0.7463 4.3869388,-1.14781 z"
         style="fill:#dfc2af;fill-opacity:1;fill-rule:evenodd;stroke:none;stroke-width:0.26458335px;stroke-linecap:butt;stroke-linejoin:miter;stroke-opacity:1" />
      <g
         transform="matrix(0.54993657,0,0,-0.54993657,19.754993,293.68756)"
         id="g30"
         style="stroke:#dfc2af;stroke-width:0.96223217;stroke-miterlimit:4;stroke-dasharray:none;stroke-opacity:1;paint-order:stroke fill markers">
        <path
           id="path32-9"
           style="fill:#d52b1e;fill-opacity:1;fill-rule:nonzero;stroke:#dfc2af;stroke-width:1.92446434;stroke-miterlimit:4;stroke-dasharray:none;stroke-opacity:1;paint-order:stroke fill markers"
           d="M 0,0 C 1.198,-0.139 2.272,-0.264 3.469,-0.401 L 3.164,0.601 C 3.115,0.776 3.186,0.969 3.323,1.076 L 6.802,3.91 6.082,4.249 C 5.765,4.362 5.853,4.541 5.967,4.971 L 6.498,6.907 4.477,6.48 C 4.279,6.451 4.148,6.576 4.118,6.696 L 3.858,7.607 2.26,5.813 C 2.033,5.526 1.573,5.526 1.716,6.189 L 2.399,9.824 1.483,9.349 C 0.40706065,9.099224 -0.20976572,11.275933 -0.44,11.745 -0.76167228,11.280329 -1.3382442,10.123964 -1.705,9.438 -1.849,9.181 -2.105,9.205 -2.362,9.349 L -3.278,9.824 -2.596,6.189 C -2.452,5.526 -2.913,5.526 -3.14,5.813 L -4.738,7.607 -4.998,6.696 C -5.028,6.576 -5.16,6.451 -5.357,6.48 l -2.02,0.427 0.531,-1.936 C -6.733,4.541 -6.645,4.362 -6.962,4.249 L -7.682,3.91 -4.203,1.076 c 0.138,-0.107 0.207,-0.3 0.158,-0.475 L -4.35,-0.401 c 1.199,0.137 2.273,0.262 3.471,0.401 0.106,0 0.175,-0.059 0.175,-0.181 l -0.214,-3.704 h 0.957 l -0.214,3.704 C -0.175,-0.059 -0.106,0 0,0" />
      </g>
    </g>
  </g>
</svg>
