<?xml version="1.0" encoding="UTF-8" standalone="no"?>
<svg
   xmlns:dc="http://purl.org/dc/elements/1.1/"
   xmlns:cc="http://creativecommons.org/ns#"
   xmlns:rdf="http://www.w3.org/1999/02/22-rdf-syntax-ns#"
   xmlns:svg="http://www.w3.org/2000/svg"
   xmlns="http://www.w3.org/2000/svg"
   id="svg8"
   version="1.1"
   viewBox="0 0 25.399999 25.400001"
   height="96"
   width="96">
  <defs
     id="defs2">
    <clipPath
       id="clipPath44"
       clipPathUnits="userSpaceOnUse">
      <path
         id="path46-65"
         d="M 0,38 H 38 V 0 H 0 Z" />
    </clipPath>
    <clipPath
       id="clipPath16-2"
       clipPathUnits="userSpaceOnUse">
      <path
         id="path18-53"
         d="M 0,38 H 38 V 0 H 0 Z" />
    </clipPath>
    <clipPath
       id="clipPath28-4"
       clipPathUnits="userSpaceOnUse">
      <path
         id="path30-9"
         d="M 1.193,5 C 1.193,3 3,1 5,1 v 0 h 28 c 2,0 3.731,2 3.731,4 v 0 c 0,4.355 -4.634,11 -17.731,11 v 0 C 5.508,16 1.193,9.541 1.193,5" />
    </clipPath>
    <clipPath
       id="clipPath16-1"
       clipPathUnits="userSpaceOnUse">
      <path
         id="path18-5"
         d="M 0,38 H 38 V 0 H 0 Z" />
    </clipPath>
  </defs>
  <metadata
     id="metadata5">
    <rdf:RDF>
      <cc:Work
         rdf:about="">
        <dc:format>image/svg+xml</dc:format>
        <dc:type
           rdf:resource="http://purl.org/dc/dcmitype/StillImage" />
        <dc:title />
      </cc:Work>
    </rdf:RDF>
  </metadata>
  <g
     transform="translate(0,-271.59999)"
     id="layer1">
    <g
       style="stroke-width:0.52970594"
       transform="matrix(0.38175838,0,0,0.38175838,0.32402266,271.82671)"
       id="cricket">
      <circle
         style="fill:#c83a48;fill-opacity:1;stroke-width:0.52970594"
         cx="52.299999"
         cy="52.400002"
         r="9.6000004"
         id="circle5125" />
      <circle
         style="fill:#ed4c5c;stroke-width:0.52970594"
         cx="51.430195"
         cy="51.382511"
         r="7.3140545"
         id="circle5125-7" />
      <path
         style="fill:#dbb471;stroke-width:0.52970594"
         d="M 38.4,15.3 2.3,51.4 c -1,0.9 0.6,4 3.4,6.9 2.8,2.8 5.9,4.4 6.9,3.4 L 48.7,25.6 38.4,15.3"
         id="path5151" />
      <path
         style="fill:#e8e8e8;stroke-width:0.52970594"
         d="M 47.9,19.6 62,5.4 C 61.8,4.6 61.4,3.8 60.8,3.2 60.2,2.6 59.4,2.2 58.6,2 L 44.4,16.1 c -1.4,1.4 -3.7,1.4 -5.2,0 l 8.6,8.6 C 46.4,23.3 46.4,21 47.9,19.6"
         id="path5153" />
      <path
         style="opacity:0.5;fill:#ffffff;stroke-width:0.52970594"
         d="m 13,51.8 c -0.7,0.7 -1.4,2.3 -1.4,3.3 0.1,1.5 1.3,6.3 1.3,6.3 L 48.7,25.6 43.9,20.8 c 0,0 -23.2,23.2 -30.9,31"
         id="path5155" />
      <g
         style="fill:#3e4347;stroke-width:0.52970594"
         id="g5163">
        <path
           style="opacity:0.15;stroke-width:0.52970594"
           d="M 12.2,51 C 11.5,51.7 9.9,52.4 8.9,52.4 7.5,52.3 2.6,51 2.6,51 L 38.4,15.2 43.2,20 c 0,0.1 -23.2,23.3 -31,31"
           id="path5157" />
        <path
           style="stroke-width:0.52970594"
           d="m 47.9,24.7 c -0.8,-0.8 -1.1,-1.9 -1,-3 C 46,21.3 45,20.8 44,20 c -0.7,-1.1 -1.3,-2 -1.7,-2.9 -1.1,0.1 -2.2,-0.2 -3,-1 0,0 0.8,2.4 3,5.6 3.2,2.2 5.6,3 5.6,3"
           id="path5159" />
        <path
           style="stroke-width:0.52970594"
           d="M 60.3,7.2 62,5.4 C 61.8,4.6 61.4,3.8 60.8,3.2 60.2,2.6 59.4,2.2 58.6,2 l -1.7,1.7 c 0.7,0.2 1.5,0.6 2.1,1.3 0.7,0.6 1.1,1.4 1.3,2.2"
           id="path5161" />
      </g>
      <g
         style="fill:#b2c1c0;stroke-width:0.52970594"
         id="g5173">
        <path
           style="stroke-width:0.52970594"
           d="m 49.4,18 -4.2,-2.7 -0.8,0.8 c -0.3,0.3 -0.7,0.6 -1.2,0.8 l 4.4,2.9 c 0.1,-0.1 0.1,-0.1 0.2,-0.2 L 49.4,18"
           id="path5165" />
        <path
           style="stroke-width:0.52970594"
           d="M 60,7.5 55.8,4.8 54,6.5 58.2,9.2 Z"
           id="path5167" />
        <path
           style="stroke-width:0.52970594"
           d="M 56.5,11 52.3,8.3 50.5,10 54.7,12.7 Z"
           id="path5169" />
        <path
           style="stroke-width:0.52970594"
           d="m 52.9,14.5 -4.1,-2.7 -1.8,1.8 4.2,2.7 z"
           id="path5171" />
      </g>
      <g
         transform="matrix(1.2082687,2.3241443,-2.3241443,1.2082687,646.62898,-317.17031)"
         id="g6777">
        <path
           style="color:#000000;font-style:normal;font-variant:normal;font-weight:normal;font-stretch:normal;font-size:medium;line-height:normal;font-family:sans-serif;font-variant-ligatures:normal;font-variant-position:normal;font-variant-caps:normal;font-variant-numeric:normal;font-variant-alternates:normal;font-feature-settings:normal;text-indent:0;text-align:start;text-decoration:none;text-decoration-line:none;text-decoration-style:solid;text-decoration-color:#000000;letter-spacing:normal;word-spacing:normal;text-transform:none;writing-mode:lr-tb;direction:ltr;text-orientation:mixed;dominant-baseline:auto;baseline-shift:baseline;text-anchor:start;white-space:normal;shape-padding:0;clip-rule:nonzero;display:inline;overflow:visible;visibility:visible;opacity:1;isolation:auto;mix-blend-mode:normal;color-interpolation:sRGB;color-interpolation-filters:linearRGB;solid-color:#000000;solid-opacity:1;vector-effect:none;fill:#e8e8e8;fill-opacity:1;fill-rule:nonzero;stroke:none;stroke-width:0.52916676;stroke-linecap:butt;stroke-linejoin:miter;stroke-miterlimit:4;stroke-dasharray:1.05833346, 0.52916673;stroke-dashoffset:0;stroke-opacity:1;paint-order:normal;color-rendering:auto;image-rendering:auto;shape-rendering:auto;text-rendering:auto;enable-background:accumulate"
           d="m 20.646716,263.02293 c 0.266492,0.27862 0.451451,0.5646 0.571681,0.92827 l 0.501953,-0.16797 c -0.08905,-0.3594 -0.308178,-0.67556 -0.526351,-0.92239 l -0.225624,-0.0562 z m 0.677144,1.40871 c 0.07999,0.33528 0.11874,0.67122 0.138667,1.01367 l 0.529296,-0.0293 c 0.0055,-0.3686 -0.08037,-0.71914 -0.146574,-1.08007 z m 0.167968,1.54102 c 0.03541,0.34327 0.0028,0.68605 -0.01563,1.02929 l 0.529297,0.0273 c 0.04938,-0.3658 0.03373,-0.72136 0.01368,-1.08594 z m -0.210939,2.56836 0.521484,0.0937 c 0.07535,-0.35693 0.13531,-0.71503 0.173963,-1.07618 l -0.527343,-0.0293 c -0.0295,0.33993 -0.107881,0.67583 -0.168104,1.01178 z m -0.535648,1.2175 0.408691,0.15749 c 0.241525,-0.16665 0.400443,-0.49248 0.498072,-0.73827 l -0.503907,-0.16211 c -0.05227,0.18057 -0.301396,0.59803 -0.402856,0.74289 z"
           id="path6723" />
        <path
           style="color:#000000;font-style:normal;font-variant:normal;font-weight:normal;font-stretch:normal;font-size:medium;line-height:normal;font-family:sans-serif;font-variant-ligatures:normal;font-variant-position:normal;font-variant-caps:normal;font-variant-numeric:normal;font-variant-alternates:normal;font-feature-settings:normal;text-indent:0;text-align:start;text-decoration:none;text-decoration-line:none;text-decoration-style:solid;text-decoration-color:#000000;letter-spacing:normal;word-spacing:normal;text-transform:none;writing-mode:lr-tb;direction:ltr;text-orientation:mixed;dominant-baseline:auto;baseline-shift:baseline;text-anchor:start;white-space:normal;shape-padding:0;clip-rule:nonzero;display:inline;overflow:visible;visibility:visible;opacity:1;isolation:auto;mix-blend-mode:normal;color-interpolation:sRGB;color-interpolation-filters:linearRGB;solid-color:#000000;solid-opacity:1;vector-effect:none;fill:#e8e8e8;fill-opacity:1;fill-rule:nonzero;stroke:none;stroke-width:0.52916676;stroke-linecap:butt;stroke-linejoin:miter;stroke-miterlimit:4;stroke-dasharray:1.05833346, 0.52916673;stroke-dashoffset:0;stroke-opacity:1;paint-order:normal;color-rendering:auto;image-rendering:auto;shape-rendering:auto;text-rendering:auto;enable-background:accumulate"
           d="m 19.614824,263.02293 c 0.278581,0.25688 0.375853,0.57473 0.4965,0.92827 l 0.501953,-0.16797 c -0.09937,-0.36641 -0.315508,-0.71765 -0.50564,-0.99524 z m 0.601973,1.40871 c 0.07999,0.33528 0.11874,0.67122 0.138667,1.01367 l 0.527343,-0.0293 c 0.0086,-0.36939 -0.0792,-0.71858 -0.146577,-1.08007 z m 0.166015,1.54102 c 0.03798,0.34321 0.0048,0.68598 -0.01368,1.02929 l 0.529297,0.0273 c 0.04938,-0.3658 0.03373,-0.72136 0.01368,-1.08594 z m -0.20898,2.56836 0.521484,0.0937 c 0.07535,-0.35693 0.13531,-0.71503 0.173963,-1.07618 l -0.527344,-0.0293 c -0.0295,0.33993 -0.107879,0.67583 -0.168103,1.01178 z m -0.59055,1.30493 0.348773,0.15289 c 0.342596,-0.19597 0.483865,-0.51735 0.612897,-0.8211 l -0.503906,-0.16211 c -0.110355,0.25352 -0.329653,0.58456 -0.457764,0.83032 z"
           id="path6723-1" />
      </g>
    </g>
  </g>
</svg>
