<?xml version="1.0" encoding="UTF-8" standalone="no"?>
<svg
   xmlns:dc="http://purl.org/dc/elements/1.1/"
   xmlns:cc="http://creativecommons.org/ns#"
   xmlns:rdf="http://www.w3.org/1999/02/22-rdf-syntax-ns#"
   xmlns:svg="http://www.w3.org/2000/svg"
   xmlns="http://www.w3.org/2000/svg"
   id="svg8"
   version="1.1"
   viewBox="0 0 25.399999 25.400001"
   height="96"
   width="96">
  <defs
     id="defs2">
    <clipPath
       id="clipPath44"
       clipPathUnits="userSpaceOnUse">
      <path
         id="path46-65"
         d="M 0,38 H 38 V 0 H 0 Z" />
    </clipPath>
    <clipPath
       id="clipPath16-2"
       clipPathUnits="userSpaceOnUse">
      <path
         id="path18-53"
         d="M 0,38 H 38 V 0 H 0 Z" />
    </clipPath>
    <clipPath
       id="clipPath28-4"
       clipPathUnits="userSpaceOnUse">
      <path
         id="path30-9"
         d="M 1.193,5 C 1.193,3 3,1 5,1 v 0 h 28 c 2,0 3.731,2 3.731,4 v 0 c 0,4.355 -4.634,11 -17.731,11 v 0 C 5.508,16 1.193,9.541 1.193,5" />
    </clipPath>
    <clipPath
       id="clipPath16-1"
       clipPathUnits="userSpaceOnUse">
      <path
         id="path18-5"
         d="M 0,38 H 38 V 0 H 0 Z" />
    </clipPath>
    <clipPath
       id="clipPath16-90"
       clipPathUnits="userSpaceOnUse">
      <path
         id="path18-2"
         d="M 0,38 H 38 V 0 H 0 Z" />
    </clipPath>
    <clipPath
       clipPathUnits="userSpaceOnUse"
       id="clipPath16-4">
      <path
         d="M 0,36 H 36 V 0 H 0 Z"
         id="path18-8" />
    </clipPath>
  </defs>
  <metadata
     id="metadata5">
    <rdf:RDF>
      <cc:Work
         rdf:about="">
        <dc:format>image/svg+xml</dc:format>
        <dc:type
           rdf:resource="http://purl.org/dc/dcmitype/StillImage" />
        <dc:title />
      </cc:Work>
    </rdf:RDF>
  </metadata>
  <g
     transform="translate(0,-271.59999)"
     id="layer1">
    <g
       id="field_hockey"
       transform="translate(1.1874415e-8,50.800008)">
      <path
         d="M 20.655838,221.88267 7.0320732,237.41923 c -0.5855486,0.70266 -1.6785727,0.78073 -2.4202677,0.15615 -0.7416949,-0.62459 -0.8588047,-1.67858 -0.2342194,-2.42027 0.5855486,-0.70266 0.4684389,-1.79569 -0.2342195,-2.42027 -0.7416949,-0.62459 -1.7956825,-0.54651 -2.4202677,0.15615 -1.79568251,2.14701 -1.44435332,5.38704 0.7416949,7.22176 2.1470117,1.83472 5.3089744,1.63954 7.1436934,-0.39036 L 23.973947,221.88267 h -3.318109"
         id="path3"
         style="fill:#3e4347;stroke-width:0.26458332" />
      <path
         d="m 14.722279,233.35942 c 0,0 0.195183,-2.42026 0.468439,-3.16196 0.897841,-2.53738 6.284888,-8.31479 6.284888,-8.31479 h -1.13206 l -8.431901,9.87626 c -0.07807,4.64535 -2.927743,8.54901 -2.927743,8.54901 0.8978413,-0.42941 5.738377,-6.94852 5.738377,-6.94852"
         id="path5"
         style="fill:#c7e755;stroke-width:0.26458332" />
      <path
         d="m 11.911645,231.75893 c 0,0 -0.741695,0.89784 -1.327243,1.60049 0.975914,2.57642 -1.5614634,6.94852 -1.5614634,6.94852 0,0 4.1378774,-5.46513 2.8887064,-8.54901"
         id="path9"
         style="fill:#83bf4f;stroke-width:0.26458332" />
      <g
         style="stroke-width:0.67778313"
         transform="matrix(0.39036576,0,0,0.39036576,-16.131267,233.2627)"
         id="g7824">
        <circle
           style="opacity:1;vector-effect:none;fill:#df650c;fill-opacity:1;stroke:none;stroke-width:1.01667476;stroke-linecap:round;stroke-linejoin:round;stroke-miterlimit:4;stroke-dasharray:none;stroke-dashoffset:0;stroke-opacity:1;paint-order:normal"
           id="path7805"
           cx="90.876045"
           cy="17.699045"
           r="12.409542" />
        <circle
           style="opacity:1;vector-effect:none;fill:#ec7a26;fill-opacity:1;stroke:none;stroke-width:1.01667476;stroke-linecap:round;stroke-linejoin:round;stroke-miterlimit:4;stroke-dasharray:none;stroke-dashoffset:0;stroke-opacity:1;paint-order:normal"
           id="path7805-8"
           cx="89.934631"
           cy="16.244122"
           r="8.8150539" />
      </g>
    </g>
  </g>
</svg>
