<?xml version="1.0" encoding="UTF-8" standalone="no"?>
<svg
   xmlns:dc="http://purl.org/dc/elements/1.1/"
   xmlns:cc="http://creativecommons.org/ns#"
   xmlns:rdf="http://www.w3.org/1999/02/22-rdf-syntax-ns#"
   xmlns:svg="http://www.w3.org/2000/svg"
   xmlns="http://www.w3.org/2000/svg"
   id="svg8"
   version="1.1"
   viewBox="0 0 25.399999 25.400001"
   height="96"
   width="96">
  <defs
     id="defs2">
    <clipPath
       id="clipPath44"
       clipPathUnits="userSpaceOnUse">
      <path
         id="path46-65"
         d="M 0,38 H 38 V 0 H 0 Z" />
    </clipPath>
    <clipPath
       id="clipPath16-2"
       clipPathUnits="userSpaceOnUse">
      <path
         id="path18-53"
         d="M 0,38 H 38 V 0 H 0 Z" />
    </clipPath>
    <clipPath
       id="clipPath28-4"
       clipPathUnits="userSpaceOnUse">
      <path
         id="path30-9"
         d="M 1.193,5 C 1.193,3 3,1 5,1 v 0 h 28 c 2,0 3.731,2 3.731,4 v 0 c 0,4.355 -4.634,11 -17.731,11 v 0 C 5.508,16 1.193,9.541 1.193,5" />
    </clipPath>
    <clipPath
       id="clipPath16-1"
       clipPathUnits="userSpaceOnUse">
      <path
         id="path18-5"
         d="M 0,38 H 38 V 0 H 0 Z" />
    </clipPath>
  </defs>
  <metadata
     id="metadata5">
    <rdf:RDF>
      <cc:Work
         rdf:about="">
        <dc:format>image/svg+xml</dc:format>
        <dc:type
           rdf:resource="http://purl.org/dc/dcmitype/StillImage" />
        <dc:title />
      </cc:Work>
    </rdf:RDF>
  </metadata>
  <g
     transform="translate(0,-271.59999)"
     id="layer1">
    <g
       style="stroke-width:0.52066952"
       transform="matrix(0.39289199,0,0,0.39289199,-0.04168635,271.6154)"
       id="gymnastics">
      <g
         style="fill:#fed0ac;stroke-width:0.52066952"
         id="g5641">
        <path
           style="stroke-width:0.52066952"
           d="m 44.6,33.7 6.7,3.8 6.7,6.8 -3.7,2.4 -5.5,-5.9 -5.3,-2.8 z"
           id="path5633" />
        <path
           style="stroke-width:0.52066952"
           d="m 55.409565,45.256761 -1.715882,1.535263 c -0.632168,0.541857 -0.722477,1.444953 -0.18062,2.077121 l 0.722477,0.903096 c 0.361238,0.451547 0.903096,0.632167 1.444954,0.451547 0.993405,1.083716 2.618978,2.25774 4.696098,0.451548 0.361239,-0.270928 2.25774,-1.986811 0.361239,-4.24455 -2.709288,-3.431765 -2.709288,-3.431765 -5.328266,-1.174025"
           id="path5635" />
        <path
           style="stroke-width:0.52066952"
           d="m 22.6,58.8 c -2,1.5 -4.6,1.3 -4.6,2.2 0,0.9 1.6,0.9 3.9,0.9 2.1,0 4.5,-1.9 5.6,-0.9 1.1,0.9 2.4,0.9 3.9,0.9 1.4,0 1.3,-2.1 0,-2.1 -1.3,0 -3,-2.8 -3.3,-4 -0.7,-2.8 -1.5,-8.5 -1.5,-8.5 0,0 -0.6,1.5 2.6,-4.3 0,0 2.4,-5 0.8,-6.7 -1.8,-1.8 -3.7,-0.2 -5.8,5.3 -2.1,5.4 -2,5.5 -2,5.5 0,0 0,0 1.4,7.9 0.2,1.4 1,2.4 -1,3.8"
           id="path5637" />
        <path
           style="stroke-width:0.52066952"
           d="m 28.6,38.9 c 0,-2 2.4,-3.6 5.3,-3.6 3,0 5.3,1.6 5.3,3.6 0,2 -2.4,3.6 -5.3,3.6 -2.9,0 -5.3,-1.6 -5.3,-3.6"
           id="path5639" />
      </g>
      <g
         style="fill:#3e4347;stroke-width:0.52066952"
         id="g5647">
        <path
           style="stroke-width:0.52066952"
           d="m 29.2,43 c 0,0 0.5,-0.8 2.8,-0.8 0,-0.2 -0.1,-0.4 -0.1,-0.6 0,-2.3 1.8,-4.1 4,-4.1 1.4,0 2.6,0.8 3.4,1.9 0,0 0,0 2.1,-0.7 l 2.9,0.1 c 0,0 2.1,-2.7 3.2,-5.4 0,0 -6.2,0.5 -9.9,-6.2 l -5,-2.4 -4.3,3.4 c 0,0 -2.3,3.8 -2.3,9.7 0,-0.1 3.2,0.7 3.2,5.1"
           id="path5643" />
        <path
           style="stroke-width:0.52066952"
           d="M 49.6,6.5 45.8,5.4 C 45.4,4 45.6,3.6 45.6,3.6 45.6,2.7 46.300021,1.9938517 47.2,2 l 8.801272,0.060127 C 55.601272,4.2601272 51.8,6.2 49.6,6.5"
           id="path5645" />
      </g>
      <path
         style="fill:#fed0ac;stroke-width:0.52066952"
         d="m 45.7,5.4 3.8,1.1 c 0,0 -1.9,5.1 -2.9,8.9 -0.3,1.2 -1.2,1.6 -1.6,2.1 -2.4,3.1 -7.1,6.4 -7.1,6.4 l -4.1,-4.6 c 0,0 3.4,-3.3 7,-5.2 0.3,-0.2 1.7,-1.3 1.9,-2.4 0.3,-2.4 2.6,-4.3 3,-6.3"
         id="path5649" />
      <path
         style="fill:#3e4347;stroke-width:0.52066952"
         d="m 9.3,15.4 2.6,-3 C 11.4,11 11.1,10.8 11.1,10.8 10.6,10.1 9.6,9.8 8.9,10.3 L 1.659491,15.3614 C 3.159491,17.0614 7.3,16.5 9.3,15.4"
         id="path5651" />
      <path
         style="fill:#fed0ac;stroke-width:0.52066952"
         d="m 11.9,12.4 -2.6,3 c 0,0 4.1,2.8 6.5,5.9 0.8,1 1.8,1 2.3,1.3 3.4,1.9 9,3 9,3 l 2,-5.9 c 0,0 -5.3,-1.9 -9.3,-2.2 -0.4,0 -1,0 -1.8,-0.9 -1.5,-1.7 -4.6,-2.8 -6.1,-4.2"
         id="path5653" />
      <path
         style="fill:#428bc1;stroke-width:0.52066952"
         d="m 22.6,25.1 c 0,0 0.6,-4.3 4,-7 0,0 4.3,1.9 5.3,1.8 1,-0.1 4.5,-3.4 4.5,-3.4 0,0 3.4,1.9 5.8,5.8 l -4.6,4.9 c 0,0 -2.6,-1.3 -9.3,1 0,0 -2.6,-0.9 -5.7,-3.1"
         id="path5655" />
      <path
         style="fill:#3e4347;stroke-width:0.52066952"
         d="m 23.1,42.5 c 0,0 3.7,0.8 4.9,3.6 0,0 0.8,-2.7 2.6,-5.4 l -4.3,-3.8 c 0,0 -1.6,2.1 -3.2,5.6"
         id="path5657" />
      <g
         style="stroke-width:0.57442921"
         transform="matrix(0.90641197,0,0,0.90641197,3.3875799,3.7900331)"
         id="g5257">
        <path
           id="path5659"
           d="m 32.97758,49.907851 c -0.188292,8.811995 8.773132,7.815287 11.340153,5.594919 6.250876,-5.249908 1.836773,-7.619589 -1.738587,-12.502977"
           style="fill:#b59764;fill-opacity:1;stroke-width:0.57442921" />
        <path
           id="path5661"
           d="m 34.490793,49.728785 c 0,0 0.337074,0.607193 0.88044,1.333489 2.585917,3.423939 2.916932,1.13563 5.677854,-0.591246 2.696239,-1.686419 4.864221,-0.605623 2.052204,-5.150045 -0.543365,-0.726295 -1.02134,-1.208545 -1.02134,-1.208545 1.392848,0.453582 1.840011,0.09874 0.723438,-1.26017 0,0 -0.858874,-1.177763 -1.736274,-0.933 -2.41167,-2.492599 -4.931445,-3.375316 -6.606284,-2.141844 -1.674838,1.233473 -2.802461,4.581107 -1.538566,7.808935 -0.806534,0.958352 -0.06885,2.715475 -0.06885,2.715475 0.981879,0.895949 1.470298,0.128563 1.637379,-0.573049 z"
           style="fill:#fed0ac;stroke-width:0.57442921" />
      </g>
      <g
         transform="matrix(0.81348427,-0.21797245,0.21797245,0.81348427,-4.1992215,15.338848)"
         style="fill:#664e27;stroke-width:0.61823952"
         id="g5669" />
    </g>
  </g>
</svg>
