<?xml version="1.0" encoding="UTF-8" standalone="no"?>
<svg
   xmlns:dc="http://purl.org/dc/elements/1.1/"
   xmlns:cc="http://creativecommons.org/ns#"
   xmlns:rdf="http://www.w3.org/1999/02/22-rdf-syntax-ns#"
   xmlns:svg="http://www.w3.org/2000/svg"
   xmlns="http://www.w3.org/2000/svg"
   id="svg8"
   version="1.1"
   viewBox="0 0 25.399999 25.400001"
   height="96"
   width="96">
  <defs
     id="defs2">
    <clipPath
       id="clipPath44"
       clipPathUnits="userSpaceOnUse">
      <path
         id="path46-65"
         d="M 0,38 H 38 V 0 H 0 Z" />
    </clipPath>
    <clipPath
       id="clipPath16-2"
       clipPathUnits="userSpaceOnUse">
      <path
         id="path18-53"
         d="M 0,38 H 38 V 0 H 0 Z" />
    </clipPath>
    <clipPath
       id="clipPath28-4"
       clipPathUnits="userSpaceOnUse">
      <path
         id="path30-9"
         d="M 1.193,5 C 1.193,3 3,1 5,1 v 0 h 28 c 2,0 3.731,2 3.731,4 v 0 c 0,4.355 -4.634,11 -17.731,11 v 0 C 5.508,16 1.193,9.541 1.193,5" />
    </clipPath>
    <clipPath
       id="clipPath16-1"
       clipPathUnits="userSpaceOnUse">
      <path
         id="path18-5"
         d="M 0,38 H 38 V 0 H 0 Z" />
    </clipPath>
    <clipPath
       id="clipPath16-90"
       clipPathUnits="userSpaceOnUse">
      <path
         id="path18-2"
         d="M 0,38 H 38 V 0 H 0 Z" />
    </clipPath>
    <clipPath
       clipPathUnits="userSpaceOnUse"
       id="clipPath16-4">
      <path
         d="M 0,36 H 36 V 0 H 0 Z"
         id="path18-8" />
    </clipPath>
  </defs>
  <metadata
     id="metadata5">
    <rdf:RDF>
      <cc:Work
         rdf:about="">
        <dc:format>image/svg+xml</dc:format>
        <dc:type
           rdf:resource="http://purl.org/dc/dcmitype/StillImage" />
        <dc:title />
      </cc:Work>
    </rdf:RDF>
  </metadata>
  <g
     transform="translate(0,-271.59999)"
     id="layer1">
    <g
       style="stroke-width:0.67983717"
       transform="matrix(1.4709405,0,0,1.4709405,-23.850163,-212.31059)"
       id="rugby">
      <path
         style="fill:#e8e8e8;stroke-width:0.17987357"
         d="m 31.866181,330.61483 c -1.481667,-1.48166 -7.514167,-1.11125 -11.456458,2.83104 -3.942292,3.9423 -4.312709,9.94834 -2.831042,11.45646 1.481667,1.48167 7.514167,1.11125 11.456458,-2.83104 3.942292,-3.94229 4.312709,-9.94833 2.831042,-11.45646 z"
         id="path2" />
      <path
         style="fill:#c5d4d8;stroke-width:0.17987357"
         d="m 31.601598,332.99608 c -0.396875,0.87313 -0.820209,1.69334 -1.322917,2.51354 -0.9525,1.56105 -2.090208,3.06917 -3.280833,4.47146 -1.11125,1.32292 -2.434167,2.72521 -4.021667,3.4925 -0.820208,0.39688 -1.666875,0.44979 -2.513542,0.635 -0.767291,0.18521 -1.719791,0.635 -1.825625,1.34938 2.328334,0.71437 7.090834,-0.0794 10.398125,-3.38667 3.175,-3.175 4.021667,-7.67292 3.466042,-10.10708 -0.370417,0.23812 -0.661458,0.55562 -0.899583,1.03187"
         id="path4-9" />
      <path
         style="fill:#4b53a2;stroke-width:0.17987357"
         d="m 26.548056,330.11212 c -0.396875,0.0794 -0.79375,0.18521 -1.190625,0.3175 -1.613958,0.7673 -3.280833,1.95792 -4.60375,3.25438 -3.889375,3.91583 -4.180417,9.81604 -3.439583,10.53042 1.058333,1.05833 6.323541,-0.47625 10.054166,-4.68313 3.069167,-3.43958 4.497917,-7.22312 4.656667,-8.73125 -0.07937,-0.0529 -0.132292,-0.13229 -0.15875,-0.18521 -0.820208,-0.79375 -2.910417,-1.05833 -5.318125,-0.50271 m 0.211667,8.81063 c -3.386667,3.38667 -7.672917,4.36562 -8.625417,3.41312 -0.767292,-0.76729 0.05292,-5.18583 3.439583,-8.5725 3.386667,-3.41312 7.752292,-4.25979 8.5725,-3.41312 0.9525,0.9525 0,5.18583 -3.386666,8.5725"
         id="path6-0" />
      <g
         transform="matrix(0.26458333,0,0,0.26458333,16.255764,329.29192)"
         style="fill:#cb2c41;stroke-width:0.67983717"
         id="g14">
        <path
           style="stroke-width:0.67983717"
           d="m 16.7,27.1 c -4.6,7.4 -5.8,14.5 -4,16.3 1.8,1.8 8.9,0.5 16.3,-4 -6.3,3.2 -12.3,3.6 -14.1,1.9 -1.8,-1.9 -1.4,-7.9 1.8,-14.2"
           id="path8" />
        <path
           style="stroke-width:0.67983717"
           d="m 29.8,14 c 6.3,-3.2 12.3,-3.6 14.1,-1.9 1.8,1.7 1.3,7.8 -1.9,14.1 C 46.6,18.8 47.8,11.7 46,9.9 44.3,8.2 37.2,9.4 29.8,14"
           id="path10-1" />
        <path
           style="stroke-width:0.67983717"
           d="m 59.5,5.7 c 0,0 0,0 0,0 -0.6,5.8 -6,20 -17.6,33 C 27.8,54.6 8,60.5 4,56.4 1.3,53.7 2.3,31.4 17.1,16.6 22.1,11.6 28.4,7.2 34.5,4.3 28,6.4 21.3,10.1 15.7,15.7 0.8,30.6 -0.6,53.4 5,59 6.8,60.8 10.5,61.9 15,62 23.6,59.5 36.5,53.8 47.5,38.3 53.8,29.7 58.7,20 62,14.4 61.8,10.6 60.9,7.6 59.5,5.7"
           id="path12-1" />
      </g>
    </g>
  </g>
</svg>
