<?xml version="1.0" encoding="UTF-8" standalone="no"?>
<svg
   xmlns:dc="http://purl.org/dc/elements/1.1/"
   xmlns:cc="http://creativecommons.org/ns#"
   xmlns:rdf="http://www.w3.org/1999/02/22-rdf-syntax-ns#"
   xmlns:svg="http://www.w3.org/2000/svg"
   xmlns="http://www.w3.org/2000/svg"
   id="svg8"
   version="1.1"
   viewBox="0 0 25.399999 25.400001"
   height="96"
   width="96">
  <defs
     id="defs2">
    <clipPath
       id="clipPath44"
       clipPathUnits="userSpaceOnUse">
      <path
         id="path46-65"
         d="M 0,38 H 38 V 0 H 0 Z" />
    </clipPath>
    <clipPath
       id="clipPath16-2"
       clipPathUnits="userSpaceOnUse">
      <path
         id="path18-53"
         d="M 0,38 H 38 V 0 H 0 Z" />
    </clipPath>
    <clipPath
       id="clipPath28-4"
       clipPathUnits="userSpaceOnUse">
      <path
         id="path30-9"
         d="M 1.193,5 C 1.193,3 3,1 5,1 v 0 h 28 c 2,0 3.731,2 3.731,4 v 0 c 0,4.355 -4.634,11 -17.731,11 v 0 C 5.508,16 1.193,9.541 1.193,5" />
    </clipPath>
    <clipPath
       id="clipPath16-1"
       clipPathUnits="userSpaceOnUse">
      <path
         id="path18-5"
         d="M 0,38 H 38 V 0 H 0 Z" />
    </clipPath>
    <clipPath
       id="clipPath16-90"
       clipPathUnits="userSpaceOnUse">
      <path
         id="path18-2"
         d="M 0,38 H 38 V 0 H 0 Z" />
    </clipPath>
    <clipPath
       clipPathUnits="userSpaceOnUse"
       id="clipPath16-4">
      <path
         d="M 0,36 H 36 V 0 H 0 Z"
         id="path18-8" />
    </clipPath>
    <clipPath
       id="clipPath44-3"
       clipPathUnits="userSpaceOnUse">
      <path
         id="path46-65-8"
         d="M 0,38 H 38 V 0 H 0 Z" />
    </clipPath>
  </defs>
  <metadata
     id="metadata5">
    <rdf:RDF>
      <cc:Work
         rdf:about="">
        <dc:format>image/svg+xml</dc:format>
        <dc:type
           rdf:resource="http://purl.org/dc/dcmitype/StillImage" />
        <dc:title />
      </cc:Work>
    </rdf:RDF>
  </metadata>
  <g
     transform="translate(0,-271.59999)"
     id="layer1">
    <g
       transform="translate(-25.399999,-25.995305)"
       id="skating">
      <ellipse
         style="opacity:1;vector-effect:none;fill:#2e2e38;fill-opacity:1;stroke:#8090a8;stroke-width:1.32291663;stroke-linecap:round;stroke-linejoin:bevel;stroke-miterlimit:4;stroke-dasharray:none;stroke-dashoffset:0;stroke-opacity:1;paint-order:normal"
         id="path5324"
         cx="29.39072"
         cy="318.26755"
         rx="2.0355217"
         ry="1.9879773" />
      <ellipse
         style="opacity:1;vector-effect:none;fill:#2e2e38;fill-opacity:1;stroke:#8090a8;stroke-width:1.32291663;stroke-linecap:round;stroke-linejoin:bevel;stroke-miterlimit:4;stroke-dasharray:none;stroke-dashoffset:0;stroke-opacity:1;paint-order:normal"
         id="path5324-7"
         cx="35.193478"
         cy="318.35654"
         rx="2.0355217"
         ry="1.9879773" />
      <ellipse
         style="opacity:1;vector-effect:none;fill:#2e2e38;fill-opacity:1;stroke:#8090a8;stroke-width:1.32291663;stroke-linecap:round;stroke-linejoin:bevel;stroke-miterlimit:4;stroke-dasharray:none;stroke-dashoffset:0;stroke-opacity:1;paint-order:normal"
         id="path5324-2"
         cx="41.072178"
         cy="318.3714"
         rx="2.0355217"
         ry="1.9879773" />
      <ellipse
         style="opacity:1;vector-effect:none;fill:#2e2e38;fill-opacity:1;stroke:#8090a8;stroke-width:1.32291663;stroke-linecap:round;stroke-linejoin:bevel;stroke-miterlimit:4;stroke-dasharray:none;stroke-dashoffset:0;stroke-opacity:1;paint-order:normal"
         id="path5324-7-9"
         cx="46.874935"
         cy="318.37137"
         rx="2.0355217"
         ry="1.9879773" />
      <path
         style="fill:#2e2e38;fill-opacity:1;fill-rule:evenodd;stroke:none;stroke-width:0.26458332px;stroke-linecap:butt;stroke-linejoin:miter;stroke-opacity:1"
         d="m 29.650356,318.76196 17.00653,-0.0311 0.738495,-0.90317 -4.003718,-3.10099 -1.473206,-5e-5 -1.162254,2.02685 -5.317687,-0.008 -1.178303,-1.94465 -1.676344,-0.0274 -3.666106,3.11855 z"
         id="path5359" />
      <path
         style="fill:#9eb3f1;fill-opacity:1;fill-rule:evenodd;stroke:none;stroke-width:0.26458332px;stroke-linecap:butt;stroke-linejoin:miter;stroke-opacity:1"
         d="m 47.806536,313.43203 c -0.08455,0.59839 -0.694741,1.52115 -1.910676,1.81983 -5.842418,-0.33145 -17.713822,1.68015 -17.254876,-3.65038 0.512856,-5.95668 0.88559,-6.63412 1.464544,-10.81919 l 4.145855,0.44305 c 0.909153,-1.74514 4.481893,-2.71456 4.145857,0.35019 l -0.251755,6.40041 c 2.780078,1.22209 4.9646,0.55773 7.789249,2.48604 0.955892,0.76373 1.956352,2.37166 1.871802,2.97005 z"
         id="path5306" />
      <circle
         style="opacity:1;vector-effect:none;fill:#c0c0c0;fill-opacity:1;stroke:none;stroke-width:1.05833328;stroke-linecap:round;stroke-linejoin:bevel;stroke-miterlimit:4;stroke-dasharray:none;stroke-dashoffset:0;stroke-opacity:1;paint-order:normal"
         id="path5361"
         cx="29.385286"
         cy="318.26584"
         r="0.7606771" />
      <circle
         style="opacity:1;vector-effect:none;fill:#c0c0c0;fill-opacity:1;stroke:none;stroke-width:1.05833328;stroke-linecap:round;stroke-linejoin:bevel;stroke-miterlimit:4;stroke-dasharray:none;stroke-dashoffset:0;stroke-opacity:1;paint-order:normal"
         id="path5361-0"
         cx="35.189587"
         cy="318.332"
         r="0.7606771" />
      <circle
         style="opacity:1;vector-effect:none;fill:#c0c0c0;fill-opacity:1;stroke:none;stroke-width:1.05833328;stroke-linecap:round;stroke-linejoin:bevel;stroke-miterlimit:4;stroke-dasharray:none;stroke-dashoffset:0;stroke-opacity:1;paint-order:normal"
         id="path5361-8"
         cx="41.076561"
         cy="318.332"
         r="0.7606771" />
      <circle
         style="opacity:1;vector-effect:none;fill:#c0c0c0;fill-opacity:1;stroke:none;stroke-width:1.05833328;stroke-linecap:round;stroke-linejoin:bevel;stroke-miterlimit:4;stroke-dasharray:none;stroke-dashoffset:0;stroke-opacity:1;paint-order:normal"
         id="path5361-1"
         cx="46.912483"
         cy="318.38278"
         r="0.7606771" />
      <path
         style="fill:#bdcbf6;fill-opacity:1;fill-rule:evenodd;stroke:none;stroke-width:0.26458332px;stroke-linecap:butt;stroke-linejoin:miter;stroke-opacity:1"
         d="m 38.827604,308.37706 c 2.252993,0.32669 4.583692,0.57568 6.180623,1.55844 -0.500257,1.07009 -4.426129,0.16324 -6.70979,0.26057 z"
         id="path5455" />
      <path
         style="fill:#696db1;fill-opacity:1;fill-rule:evenodd;stroke:none;stroke-width:0.26458332px;stroke-linecap:butt;stroke-linejoin:miter;stroke-opacity:1"
         d="m 36.292629,312.32005 1.883613,-4.47312 c 0.800287,0.0772 0.906529,0.26207 1.519844,0.65084 l -1.740267,4.2047 z"
         id="path5390" />
      <path
         style="fill:#bdcbf6;fill-opacity:1;fill-rule:evenodd;stroke:none;stroke-width:0.26458332px;stroke-linecap:butt;stroke-linejoin:miter;stroke-opacity:1"
         d="m 38.163795,302.4577 c -2.805994,-0.24656 -7.380434,-1.44055 -8.172335,-0.71058 -0.837146,1.04875 -0.692622,4.28345 -0.986512,6.53072 0.788724,2.33647 4.96544,3.72235 4.883442,1.16752 -0.120736,-3.76177 1.214892,-3.9057 4.318853,-2.88439 0.110243,-1.92123 0.702792,-4.00207 -0.04347,-4.10327 z"
         id="path5396" />
      <path
         style="fill:#696db1;fill-opacity:1;fill-rule:evenodd;stroke:none;stroke-width:0.26458332px;stroke-linecap:butt;stroke-linejoin:miter;stroke-opacity:1"
         d="m 38.790566,303.39455 -6.178171,-0.6099 -0.219776,1.93185 6.006753,0.54757 c 0.456937,-0.74841 0.449456,-1.20169 0.391194,-1.86952 z"
         id="path5392" />
      <circle
         style="opacity:1;vector-effect:none;fill:#696db1;fill-opacity:1;stroke:none;stroke-width:1.32291663;stroke-linecap:round;stroke-linejoin:bevel;stroke-miterlimit:4;stroke-dasharray:none;stroke-dashoffset:0;stroke-opacity:1;paint-order:normal"
         id="path5394"
         cx="32.494961"
         cy="309.38287"
         r="0.97052246" />
      <path
         style="fill:none;fill-rule:evenodd;stroke:#696db1;stroke-width:0.79374999;stroke-linecap:round;stroke-linejoin:miter;stroke-miterlimit:4;stroke-dasharray:none;stroke-opacity:1"
         d="m 41.01838,308.7819 -0.444336,1.40316"
         id="path5402-8" />
      <path
         style="fill:none;fill-rule:evenodd;stroke:#696db1;stroke-width:0.79374999;stroke-linecap:round;stroke-linejoin:miter;stroke-miterlimit:4;stroke-dasharray:none;stroke-opacity:1"
         d="m 42.925156,309.12568 -0.377015,1.18466"
         id="path5402-8-2" />
      <path
         style="fill:#6d6d85;fill-opacity:1;fill-rule:evenodd;stroke:none;stroke-width:0.26458332px;stroke-linecap:butt;stroke-linejoin:miter;stroke-opacity:1"
         d="m 28.575,312.34581 c 1.054461,0.70014 1.37045,1.59841 4.828645,1.65365 l 11.641667,0.13229 c 1.590724,0.1073 1.937574,-0.44007 2.778125,-0.7276 -0.226753,1.42555 -1.052092,2.12424 -2.513542,2.05052 l -12.104687,-0.12828 c -2.778161,-0.16755 -4.346512,-1.19163 -4.630208,-2.98058 z"
         id="path5476" />
    </g>
  </g>
</svg>
