<?xml version="1.0" encoding="UTF-8" standalone="no"?>
<svg
   xmlns:dc="http://purl.org/dc/elements/1.1/"
   xmlns:cc="http://creativecommons.org/ns#"
   xmlns:rdf="http://www.w3.org/1999/02/22-rdf-syntax-ns#"
   xmlns:svg="http://www.w3.org/2000/svg"
   xmlns="http://www.w3.org/2000/svg"
   id="svg8"
   version="1.1"
   viewBox="0 0 25.399999 25.400001"
   height="96"
   width="96">
  <defs
     id="defs2">
    <clipPath
       id="clipPath44"
       clipPathUnits="userSpaceOnUse">
      <path
         id="path46-65"
         d="M 0,38 H 38 V 0 H 0 Z" />
    </clipPath>
    <clipPath
       id="clipPath16-2"
       clipPathUnits="userSpaceOnUse">
      <path
         id="path18-53"
         d="M 0,38 H 38 V 0 H 0 Z" />
    </clipPath>
    <clipPath
       id="clipPath28-4"
       clipPathUnits="userSpaceOnUse">
      <path
         id="path30-9"
         d="M 1.193,5 C 1.193,3 3,1 5,1 v 0 h 28 c 2,0 3.731,2 3.731,4 v 0 c 0,4.355 -4.634,11 -17.731,11 v 0 C 5.508,16 1.193,9.541 1.193,5" />
    </clipPath>
    <clipPath
       id="clipPath16-1"
       clipPathUnits="userSpaceOnUse">
      <path
         id="path18-5"
         d="M 0,38 H 38 V 0 H 0 Z" />
    </clipPath>
  </defs>
  <metadata
     id="metadata5">
    <rdf:RDF>
      <cc:Work
         rdf:about="">
        <dc:format>image/svg+xml</dc:format>
        <dc:type
           rdf:resource="http://purl.org/dc/dcmitype/StillImage" />
        <dc:title />
      </cc:Work>
    </rdf:RDF>
  </metadata>
  <g
     transform="translate(0,-271.59999)"
     id="layer1">
    <g
       style="stroke-width:0.54131544"
       transform="matrix(0.37768678,0,0,0.37768678,0.57398571,272.2499)"
       id="volleyball">
      <circle
         style="fill:#dcdcdc;fill-opacity:1;stroke-width:0.54131544"
         cx="32"
         cy="32"
         r="30"
         id="circle5210" />
      <circle
         style="fill:#f0f0f0;fill-opacity:1;stroke-width:0.54131544"
         cx="29.275772"
         cy="28.590982"
         r="25.630856"
         id="circle5210-0" />
      <circle
         style="fill:#ffffff;fill-opacity:1;stroke-width:0.54131544"
         cx="24.701962"
         cy="23.309526"
         r="17.350784"
         id="circle5210-0-6" />
      <path
         style="fill:#a7b2b1;fill-opacity:1;stroke-width:0.54131544"
         d="M 28.4,18 C 28.3,14.9 28.7,12.1 29.3,9.6 43.8,9.9 54.5,16.7 59.8,20.9 59.3,19.7 58.7,18.5 58.1,17.3 52.1,13.1 42.3,8.1 29.8,7.7 30.5,5.2 31.4,3.3 32,2 c 0,0 0,0 -0.1,0 -0.7,0 -1.4,0 -2.1,0.1 -2.4,5.2 -6.8,18 1,30 -2,4 -4.8,6.9 -7.7,9 -10,-18.3 -5.5,-32.4 -4,-36.2 -0.9,0.4 -1.7,0.9 -2.5,1.4 -1.9,5.9 -4.3,19.1 5,35.9 -2.6,1.6 -5.3,2.7 -7.8,3.4 C 6.8,32.9 7.3,20.2 8.3,13.5 7.5,14.5 6.7,15.6 6,16.8 5.6,24.1 6.1,35 12,46.1 9.5,46.7 7.3,46.9 6,47 c 0.4,0.6 0.7,1.2 1.1,1.8 5.7,-0.5 19,-3.1 25.5,-15.8 4.5,-0.2 8.4,0.7 11.7,2.2 C 33.5,53 19,56.2 15,56.7 c 0.8,0.5 1.6,1 2.4,1.5 6,-1.3 18.7,-5.8 28.6,-22.3 2.7,1.4 5,3.2 6.8,5 -7.5,12.4 -18.7,18.3 -25.1,20.8 1.3,0.2 2.6,0.3 4,0.3 6.6,-3.1 15.9,-9.1 22.4,-19.7 1.8,1.9 3,3.6 3.8,4.8 0.4,-0.6 0.7,-1.2 1,-1.9 C 55.6,40.5 46.7,30.3 32.5,31 30.1,27.3 28.9,23.4 28.5,19.8 49.4,20.2 59.3,31.1 61.9,34.4 62,33.6 62,32.8 62,32 62,31.8 62,31.7 62,31.5 57.9,26.9 47.6,18.3 28.4,18"
         id="path5212" />
    </g>
  </g>
</svg>
