<?xml version="1.0" encoding="UTF-8" standalone="no"?>
<svg
   xmlns:dc="http://purl.org/dc/elements/1.1/"
   xmlns:cc="http://creativecommons.org/ns#"
   xmlns:rdf="http://www.w3.org/1999/02/22-rdf-syntax-ns#"
   xmlns:svg="http://www.w3.org/2000/svg"
   xmlns="http://www.w3.org/2000/svg"
   id="svg8"
   version="1.1"
   viewBox="0 0 25.399999 25.400001"
   height="96"
   width="96">
  <defs
     id="defs2" />
  <metadata
     id="metadata5">
    <rdf:RDF>
      <cc:Work
         rdf:about="">
        <dc:format>image/svg+xml</dc:format>
        <dc:type
           rdf:resource="http://purl.org/dc/dcmitype/StillImage" />
        <dc:title />
      </cc:Work>
    </rdf:RDF>
  </metadata>
  <g
     transform="translate(0,-271.59999)"
     id="layer1">
    <path
       id="buddhist"
       d="m 12.682944,272.64283 c -0.58394,0.01 -1.04956,0.4904 -1.04077,1.07435 l 0.0558,1.11208 c -1.8777098,0.19777 -3.594657,0.94456 -4.9883169,2.07584 L 5.973267,276.0912 c -0.9963299,-1.07822 -2.573747,0.49919 -1.49552,1.49551 l 0.8154601,0.73794 c -1.1273401,1.394 -1.8716771,3.10966 -2.0665471,4.98574 l -1.09709,-0.0548 c -1.46692003,-0.0579 -1.46692003,2.17303 0,2.11511 l 1.10071,-0.0548 c 0.19957,1.86738 0.9426471,3.57526 2.0665371,4.96352 l -0.85989,0.77824 c -0.42847,0.41574 -0.4284502,1.10353 0,1.51929 0.41998,0.40584 1.0888098,0.3959 1.4955099,-0.0233 l 0.7772201,-0.85938 c 1.3936599,1.13163 3.1106071,1.87902 4.9883169,2.07687 l -0.0558,1.11208 c -0.0579,1.46693 2.17304,1.46693 2.11512,0 l -0.0553,-1.11156 c 1.872007,-0.19694 3.584187,-0.94039 4.975407,-2.06602 l 0.76688,0.84749 c 0.415737,0.42847 1.103527,0.42845 1.519287,0 0.40584,-0.41998 0.39589,-1.08882 -0.0233,-1.49552 l -0.84646,-0.76584 c 1.12943,-1.39084 1.8755,-3.10398 2.07533,-4.97748 l 1.126546,0.0563 c 0.596947,0.009 1.083327,-0.4774 1.074357,-1.07435 -0.01,-0.58394 -0.49041,-1.04955 -1.074357,-1.04076 l -1.122936,0.0563 c -0.195121,-1.88234 -0.942311,-3.60358 -2.075321,-5.00021 l 0.8015,-0.72502 c 1.07822,-0.99633 -0.49919,-2.57374 -1.495507,-1.49551 l -0.72658,0.80253 c -1.39116,-1.12514 -3.10302,-1.86815 -4.974887,-2.06499 l 0.0553,-1.11156 c 0.009,-0.59695 -0.4774,-1.08332 -1.07435,-1.07435 z m -0.87954,4.30361 0.21291,4.2571 a 3.1749936,3.1749936 0 0 0 -1.0325,0.4253 l -2.8597669,-3.16053 c 1.0373969,-0.81417 2.2984769,-1.3564 3.6793569,-1.52187 z m 1.79266,0 c 1.375187,0.16441 2.631827,0.7023 3.666957,1.5105 l -2.86443,3.16518 a 3.1749936,3.1749936 0 0 0 -1.014917,-0.42064 z m 4.938707,2.77968 c 0.81564,1.04059 1.357767,2.3059 1.520837,3.69124 l -4.256067,0.21291 a 3.1749936,3.1749936 0 0 0 -0.42633,-1.04335 z m -11.6783439,0.0134 3.1641469,2.86339 a 3.1749936,3.1749936 0 0 0 -0.4222,1.02578 L 5.346437,283.4163 c 0.1625201,-1.37901 0.7003802,-2.63898 1.5099901,-3.67678 z m 5.8435669,2.97295 a 1.5874999,1.5874999 0 0 1 1.587497,1.5875 1.5874999,1.5874999 0 0 1 -1.587497,1.5875 1.5874999,1.5874999 0 0 1 -1.5875,-1.5875 1.5874999,1.5874999 0 0 1 1.5875,-1.5875 z m 3.095417,2.28409 4.256577,0.21239 c -0.16731,1.37665 -0.709007,2.63397 -1.521347,3.66851 l -3.16311,-2.86184 a 3.1749936,3.1749936 0 0 0 0.42788,-1.01906 z m -6.1887669,0.001 a 3.1749936,3.1749936 0 0 0 0.4149599,1.00666 l -3.161047,2.86028 c -0.8064699,-1.03181 -1.34374,-2.2841 -1.5104999,-3.65456 z m 1.3792399,1.97094 a 3.1749936,3.1749936 0 0 0 1.03043,0.42995 l -0.21239,4.25347 c -1.38087,-0.16538 -2.6419299,-0.70728 -3.6793569,-1.52135 z m 3.414777,0.0114 2.86184,3.16208 c -1.03505,0.808 -2.29144,1.34612 -3.666437,1.5105 l -0.21239,-4.25608 a 3.1749936,3.1749936 0 0 0 1.016987,-0.41651 z"
       style="color:#000000;font-style:normal;font-variant:normal;font-weight:normal;font-stretch:normal;font-size:medium;line-height:normal;font-family:sans-serif;font-variant-ligatures:normal;font-variant-position:normal;font-variant-caps:normal;font-variant-numeric:normal;font-variant-alternates:normal;font-feature-settings:normal;text-indent:0;text-align:start;text-decoration:none;text-decoration-line:none;text-decoration-style:solid;text-decoration-color:#000000;letter-spacing:normal;word-spacing:normal;text-transform:none;writing-mode:lr-tb;direction:ltr;text-orientation:mixed;dominant-baseline:auto;baseline-shift:baseline;text-anchor:start;white-space:normal;shape-padding:0;clip-rule:nonzero;display:inline;overflow:visible;visibility:visible;opacity:1;isolation:auto;mix-blend-mode:normal;color-interpolation:sRGB;color-interpolation-filters:linearRGB;solid-color:#000000;solid-opacity:1;vector-effect:none;fill:#ffb700;fill-opacity:1;fill-rule:nonzero;stroke:none;stroke-width:2.11666656;stroke-linecap:square;stroke-linejoin:miter;stroke-miterlimit:4;stroke-dasharray:none;stroke-dashoffset:0;stroke-opacity:1;paint-order:normal;color-rendering:auto;image-rendering:auto;shape-rendering:auto;text-rendering:auto;enable-background:accumulate" />
  </g>
</svg>
