<?xml version="1.0" encoding="UTF-8" standalone="no"?>
<svg
   xmlns:dc="http://purl.org/dc/elements/1.1/"
   xmlns:cc="http://creativecommons.org/ns#"
   xmlns:rdf="http://www.w3.org/1999/02/22-rdf-syntax-ns#"
   xmlns:svg="http://www.w3.org/2000/svg"
   xmlns="http://www.w3.org/2000/svg"
   id="svg8"
   version="1.1"
   viewBox="0 0 25.399999 25.400001"
   height="96"
   width="96">
  <defs
     id="defs2" />
  <metadata
     id="metadata5">
    <rdf:RDF>
      <cc:Work
         rdf:about="">
        <dc:format>image/svg+xml</dc:format>
        <dc:type
           rdf:resource="http://purl.org/dc/dcmitype/StillImage" />
        <dc:title />
      </cc:Work>
    </rdf:RDF>
  </metadata>
  <g
     transform="translate(0,-271.59999)"
     id="layer1">
    <g
       transform="matrix(1.0517232,0,0,1.0517232,-54.084427,-15.247747)"
       id="caodai">
      <path
         style="fill:#ffffff;fill-opacity:1;stroke:#000000;stroke-width:1.32291651;stroke-linecap:butt;stroke-linejoin:round;stroke-miterlimit:4;stroke-dasharray:none;stroke-opacity:1"
         d="m 52.916665,288.53331 c 3.086804,-1.76389 5.953127,-6.21772 9.921877,-6.21772 3.96875,0 7.276039,3.5719 11.244789,6.21772 -5.291666,1.32293 -7.763902,3.06998 -11.24479,3.04269 -3.480889,-0.0273 -6.835072,-1.71978 -9.921876,-3.04269 z"
         id="path12809" />
      <circle
         style="fill:#000000;fill-opacity:1;stroke:none;stroke-width:4.93888855;stroke-linecap:round;stroke-linejoin:round;stroke-miterlimit:4;stroke-dasharray:none;stroke-opacity:1;paint-order:normal"
         id="path12807"
         cx="62.993565"
         cy="286.92303"
         r="3.7041667" />
      <circle
         style="fill:#ffffff;fill-opacity:1;stroke:none;stroke-width:4.23333311;stroke-linecap:round;stroke-linejoin:round;stroke-miterlimit:4;stroke-dasharray:none;stroke-opacity:1;paint-order:normal"
         id="path12805"
         cx="62.250999"
         cy="285.56757"
         r="1.0583333" />
      <path
         style="fill:#000000;fill-opacity:1;stroke:none;stroke-width:0.26458332px;stroke-linecap:butt;stroke-linejoin:miter;stroke-opacity:1"
         d="m 63.499998,280.06667 c 6.35,-2e-5 8.466667,2.11667 9.525001,3.175 2.116666,0 1.058333,-6.35 -7.408333,-6.35 -8.466667,0 -13.758333,4.23333 -12.7,6.35 2.116667,0 4.233332,-3.17498 10.583332,-3.175 z"
         id="path12815" />
    </g>
  </g>
</svg>
