<?xml version="1.0" encoding="UTF-8" standalone="no"?>
<svg
   xmlns:dc="http://purl.org/dc/elements/1.1/"
   xmlns:cc="http://creativecommons.org/ns#"
   xmlns:rdf="http://www.w3.org/1999/02/22-rdf-syntax-ns#"
   xmlns:svg="http://www.w3.org/2000/svg"
   xmlns="http://www.w3.org/2000/svg"
   id="svg8"
   version="1.1"
   viewBox="0 0 25.399999 25.400001"
   height="96"
   width="96">
  <defs
     id="defs2" />
  <metadata
     id="metadata5">
    <rdf:RDF>
      <cc:Work
         rdf:about="">
        <dc:format>image/svg+xml</dc:format>
        <dc:type
           rdf:resource="http://purl.org/dc/dcmitype/StillImage" />
        <dc:title />
      </cc:Work>
    </rdf:RDF>
  </metadata>
  <g
     transform="translate(0,-271.59999)"
     id="layer1">
    <path
       id="chinese"
       d="m 10.637119,295.57879 c -1.0403664,-0.16278 -2.4427835,-0.6085 -3.3419165,-1.0621 -2.335268,-1.17814 -4.6050281,-3.66631 -5.5282031,-6.06018 -0.431901,-1.11998 -0.762173,-2.5295 -0.705947,-3.01288 l 0.03641,-0.31304 1.640578,-0.0608 1.640578,-0.0608 0.03667,-0.77885 c 0.025471,-0.54087 -0.0117,-0.8095 -0.1215261,-0.87919 -0.08701,-0.0552 -0.8632419,-0.10123 -1.7249509,-0.10227 l -1.566747,-0.002 0.07431,-0.71096 c 0.04086,-0.39102 0.218324,-1.1703 0.394342,-1.73171 1.447434,-4.6167 5.5224201,-7.80887 10.3299056,-8.09203 4.04854,-0.23847 7.900866,1.65215 10.169416,4.9909 0.992963,1.46139 1.913211,3.90512 1.913211,5.08058 v 0.46322 h -1.495826 c -1.861079,0 -1.934453,0.0403 -1.883338,1.03635 l 0.03719,0.72575 1.640571,0.0608 1.640593,0.0608 0.0373,0.38489 c 0.066,0.68044 -0.447417,2.48709 -1.064788,3.74695 -1.709823,3.48921 -5.063582,5.89468 -8.886923,6.37408 -1.270589,0.15933 -1.96189,0.14713 -3.271008,-0.0577 z m 4.253351,-2.01913 c 0.501286,-0.1275 1.261065,-0.39534 1.68839,-0.59531 0.835148,-0.3908 2.321912,-1.39774 2.321912,-1.57258 0,-0.13147 -0.59601,-0.61029 -0.759638,-0.61029 -0.0656,0 -0.377375,0.18948 -0.692879,0.42109 -1.225131,0.89934 -3.775005,1.79182 -4.014079,1.40499 -0.157194,-0.25435 -0.159479,-7.00043 -0.0025,-7.29381 0.124727,-0.23305 0.251639,-0.24393 2.847565,-0.24393 3.038844,0 2.864544,0.0556 2.864544,-0.91269 0,-0.90522 -0.01647,-0.91017 -3.033783,-0.91017 -2.413343,0 -2.659224,-0.0191 -2.733793,-0.21267 -0.112602,-0.29226 -0.04852,-7.0313 0.06867,-7.2209 0.205811,-0.33301 2.33657,0.32816 3.637731,1.12877 0.678384,0.4174 0.830897,0.40704 1.08838,-0.0741 0.168657,-0.31514 0.160248,-0.34604 -0.164701,-0.60515 -0.551968,-0.44012 -2.046495,-1.13154 -3.074459,-1.42234 -1.305223,-0.36925 -3.569814,-0.37139 -4.919809,-0.006 -1.4487404,0.39357 -3.8713334,1.74606 -3.8713334,2.16132 0,0.21974 0.6079357,0.67265 0.7738088,0.57648 0.07569,-0.0439 0.3741582,-0.23999 0.663257,-0.43581 1.167756,-0.79095 3.3436416,-1.57554 3.8405956,-1.38484 0.173391,0.0664 0.191012,0.47399 0.162335,3.75388 l -0.03217,3.67924 -2.7950576,0.0664 c -1.5372799,0.0365 -2.811227,0.0775 -2.83099,0.0911 -0.019759,0.0135 -0.019759,0.39374 0,0.84491 l 0.03593,0.82028 2.6640089,0.0328 c 1.7153387,0.0212 2.7214937,0.0805 2.8254387,0.1668 0.127641,0.1059 0.161431,0.89476 0.161431,3.76863 0,3.14307 -0.02503,3.64428 -0.185076,3.70569 -0.454655,0.17445 -2.6169047,-0.58872 -3.6572916,-1.29087 -0.2995811,-0.20217 -0.6176881,-0.3676 -0.7069072,-0.3676 -0.2154838,0 -0.5901697,0.58305 -0.5096049,0.79302 0.10922,0.28461 1.8677972,1.23405 2.909303,1.5707 1.8228137,0.58918 3.5707797,0.64438 5.4307327,0.17143 z m 2.035528,-3.64619 c 0.350902,-0.26215 0.638005,-0.52716 0.638005,-0.58891 0,-0.0618 -0.396471,-0.1284 -0.881053,-0.14797 l -0.881049,-0.0357 -0.03672,-0.63801 -0.03672,-0.638 h 2.193783 c 1.722654,0 2.193791,0.0339 2.193791,0.15849 0,0.0872 -0.153276,0.40162 -0.340619,0.69877 -0.187334,0.29715 -0.379947,0.60537 -0.428029,0.68493 -0.107183,0.17738 0.369455,0.64524 0.657367,0.64524 0.383578,0 1.580117,-2.19294 1.613514,-2.95714 l 0.01683,-0.38478 -3.098864,-0.0342 c -1.704381,-0.0188 -3.221915,-0.004 -3.372299,0.0327 -0.270063,0.0661 -0.273427,0.092 -0.273427,2.11021 0,1.12384 0.03401,2.07736 0.07556,2.11891 0.10935,0.10941 1.217664,-0.47002 1.95997,-1.02458 z m -6.896501,-1.06339 c 0,-1.75988 -0.02744,-2.06344 -0.1922246,-2.12667 -0.3026659,-0.11619 -6.289911,-0.0823 -6.477676,0.0365 -0.116102,0.0735 -0.14185,0.21441 -0.08296,0.45386 0.154439,0.62806 0.9070201,2.07147 1.41529,2.71449 l 0.49907,0.63137 0.29258,-0.27487 c 0.392082,-0.36834 0.3686611,-0.53298 -0.1969519,-1.38438 -0.2654641,-0.39959 -0.4826622,-0.79729 -0.4826622,-0.88378 0,-0.12412 0.4672732,-0.15028 2.2178182,-0.12412 l 2.2178169,0.0332 0.03823,0.46419 c 0.05558,0.67502 -0.1171702,0.81182 -1.0252991,0.81182 -0.539006,0 -0.7750251,0.0464 -0.775022,0.1519 6.9e-6,0.3114 1.8610541,1.54229 2.3393379,1.54723 0.1942348,0.002 0.2126678,-0.17573 0.2126678,-2.0507 z m 0,-9.3178 v -2.13487 l -0.2734284,0.0816 c -0.7293372,0.21758 -2.321442,1.32399 -2.2439943,1.55945 0.025101,0.0762 0.4195522,0.16451 0.8863701,0.19822 l 0.8411461,0.0608 0.03823,0.46419 c 0.06489,0.78813 -0.00209,0.81182 -2.294129,0.81182 -1.3173919,0 -2.072354,-0.0461 -2.1240218,-0.12972 -0.0441,-0.0712 0.1256379,-0.46313 0.3771767,-0.87064 l 0.457336,-0.74095 -0.3461678,-0.27602 c -0.2356081,-0.18788 -0.4068789,-0.24318 -0.536253,-0.17321 -0.248616,0.13446 -0.9257771,1.2634 -1.2919071,2.15379 -0.505323,1.22892 -0.775936,1.13044 3.1069701,1.13044 h 3.4026804 z m 11.666333,1.84205 c 0,-0.4401 -1.137355,-2.60831 -1.695065,-3.23138 -0.477432,-0.53341 -0.494135,-0.54088 -0.678493,-0.30382 -0.355674,0.45735 -0.347147,0.75592 0.03544,1.24279 0.5087,0.64727 0.801159,1.25417 0.66835,1.38699 -0.06086,0.0608 -1.036157,0.0956 -2.167395,0.0771 l -2.056802,-0.0334 -0.03672,-0.63801 -0.03673,-0.63801 h 0.789087 c 0.997353,0 1.11203,-0.16096 0.489353,-0.68682 -0.603907,-0.51001 -1.835453,-1.17381 -1.994926,-1.07525 -0.07323,0.0453 -0.121488,0.89285 -0.121488,2.13382 v 2.05873 h 3.402692 3.402664 z"
       style="fill:#fa1313;stroke-width:0.12152428" />
  </g>
</svg>
