<?xml version="1.0" encoding="UTF-8" standalone="no"?>
<svg
   xmlns:dc="http://purl.org/dc/elements/1.1/"
   xmlns:cc="http://creativecommons.org/ns#"
   xmlns:rdf="http://www.w3.org/1999/02/22-rdf-syntax-ns#"
   xmlns:svg="http://www.w3.org/2000/svg"
   xmlns="http://www.w3.org/2000/svg"
   id="svg8"
   version="1.1"
   viewBox="0 0 25.399999 25.400001"
   height="96"
   width="96">
  <defs
     id="defs2" />
  <metadata
     id="metadata5">
    <rdf:RDF>
      <cc:Work
         rdf:about="">
        <dc:format>image/svg+xml</dc:format>
        <dc:type
           rdf:resource="http://purl.org/dc/dcmitype/StillImage" />
        <dc:title />
      </cc:Work>
    </rdf:RDF>
  </metadata>
  <g
     transform="translate(0,-271.59999)"
     id="layer1">
    <g
       transform="matrix(2.4041337,0,0,2.4041337,-162.41105,-323.04423)"
       id="confucian"
       style="font-style:normal;font-weight:normal;font-size:10.58333302px;line-height:1.25;font-family:sans-serif;letter-spacing:0px;word-spacing:0px;fill:#000000;fill-opacity:1;stroke:none;stroke-width:0.26458332"
       aria-label="儒">
      <path
         id="path12832"
         style="font-style:normal;font-variant:normal;font-weight:normal;font-stretch:normal;font-family:'Yet R';-inkscape-font-specification:'Yet R';stroke-width:0.26458332"
         d="m 67.840258,250.69779 c 0.121129,0.38904 0.517143,0.68035 0.847494,0.74419 0.270724,-0.0321 0.432013,-0.17776 0.661458,-0.33072 0.470717,1.62132 -0.24898,4.17605 0.14469,5.4777 0.15477,0.2398 0.426604,0.2963 0.558103,0.0413 -0.0056,-1.85399 0.229169,-4.2996 0.04134,-5.97381 -0.01378,-0.0827 -0.05512,-0.16536 -0.124024,-0.24804 0.416338,-0.49215 0.704679,-1.05898 0.971517,-1.59164 0.05652,-0.17736 0.157613,-0.41714 -0.168829,-0.32487 -1.011655,1.39481 -1.49531,1.54134 -2.931749,2.20589 z m 6.077146,-1.52959 v 0.57878 c -0.860229,-0.0725 -1.650716,0.16764 -2.418457,-0.10332 -0.563395,-0.0202 -0.611937,0.31583 -0.496097,0.76485 0.130595,0.44981 0.0509,0.93663 0.14469,1.4056 0.170366,0.0491 0.276092,0.0535 0.413411,-0.062 0.19881,-0.41945 0.08954,-0.86609 0.165364,-1.28157 0.767298,-0.18679 1.481288,-0.186 2.253092,-0.186 -0.01054,0.45642 -0.102355,0.92735 -0.10335,1.34359 -0.04512,0.47932 0.524133,0.71329 0.640781,0.26872 0.02756,-0.15159 0.04823,-0.29628 0.06201,-0.43408 -0.06912,-0.37479 -0.05238,-0.80275 0,-1.17823 0.771829,0.004 1.528926,-0.0145 2.232422,0.12406 l -0.02067,1.2609 c 0.142354,0.17985 0.389585,0.16133 0.516764,0 0.115835,-0.43722 0.0031,-0.98907 0.248043,-1.36426 0.09024,-0.21458 0.158236,-0.39454 -0.06201,-0.49611 -0.968256,0.0419 -1.975395,-0.0371 -2.91455,-0.10335 0.0093,-0.18319 -0.02256,-0.38517 0.02067,-0.55813 0.593996,-0.009 1.181359,0.0408 1.736328,0.0414 0.338878,-0.14018 0.435986,-0.38458 0.372071,-0.66144 -1.723992,0.21549 -3.474606,-0.15598 -4.373014,0.0199 -0.898408,0.17585 -0.587904,0.32546 -0.547194,0.51672 0.04071,0.19126 0.160291,0.19811 0.526801,0.12047 0.366509,-0.0777 1.055649,-0.0185 1.602895,-0.0165 z m 1.219561,1.50893 c -0.18956,0.0289 -0.197923,0.27843 -0.16536,0.4135 0.38347,0.0595 0.921719,0.0474 1.260902,-0.0414 0.179621,-0.10518 0.141342,-0.23327 0.101676,-0.30268 z m -1.674314,0.41315 c 0.14655,-0.091 0.21535,-0.22329 0.07676,-0.35088 -0.468042,0.0455 -1.147554,-0.17956 -1.371857,0.0429 -0.154061,0.18281 -0.08265,0.32118 0.178713,0.37008 0.261363,0.0489 0.76864,-0.0136 1.116384,-0.0621 z m -1.178224,0.37231 c -0.179487,0.14551 -0.203601,0.2465 -0.186033,0.41335 0.297192,0.12295 0.961703,0.1267 1.281574,0 0.166418,-0.11192 0.152035,-0.23586 0.09669,-0.29361 z m 2.769856,0.49605 c 0.415679,-0.004 0.874879,-0.0753 1.240234,-0.1033 0.173202,-0.23944 -0.04851,-0.3064 -0.179171,-0.29018 -0.918417,-0.0397 -1.076792,-0.26082 -1.162389,-0.0734 -0.0856,0.18744 -0.08433,0.35796 0.101326,0.46686 z m 2.583824,0.33076 c -2.062301,0.58261 -4.372879,-0.22101 -6.242512,0.124 -0.333643,0.085 -0.461957,0.45857 -0.206703,0.66144 0.89676,-0.096 1.827727,-0.16864 2.666504,-0.16529 6.62e-4,0.22437 -0.101273,0.44398 -0.206704,0.59943 -0.542269,0.22087 -1.654856,-0.308 -2.025714,0.0414 -0.113334,0.63319 0.0073,1.26986 -0.144693,1.86038 -0.05902,0.3691 -0.408289,0.45972 -0.516763,0.70275 1.142605,1.89181 1.22176,-1.46146 1.260901,-1.96371 0.364361,-0.08 0.691678,-0.0413 1.054199,-0.0413 0.05501,0.56216 0.0034,1.16472 -0.06201,1.69499 -0.0146,0.31785 0.02177,0.57617 0.186034,0.82682 0.663717,-0.0278 0.471828,-2.0924 0.475414,-2.54257 0.319994,-0.065 0.637188,-0.0178 0.950847,0 v 2.04638 c 0.05081,0.59295 0.596821,0.50783 0.599441,-0.0414 -0.03733,-0.6794 0,-1.32631 0,-2.00507 0.350465,0.0436 0.79817,-0.10653 1.07487,0.12405 -0.0033,0.57026 -0.336007,1.79921 0.124024,2.27377 0.593154,0.25607 0.574739,-0.63418 0.496092,-1.01285 -0.107979,-0.546 0.02089,-1.07317 0.186034,-1.57097 -0.04558,-0.36129 -0.247532,-0.42746 -0.5581,-0.35147 -0.824658,-0.0467 -1.804568,0.10967 -2.459798,-0.062 0.132466,-0.21057 0.348735,-0.32538 0.351399,-0.57876 0.797238,0.002 1.607519,0.026 2.315102,0.24803 0.424134,-0.18476 0.90575,-0.44146 0.682136,-0.86805 z" />
    </g>
  </g>
</svg>
