<?xml version="1.0" encoding="UTF-8" standalone="no"?>
<svg
   xmlns:dc="http://purl.org/dc/elements/1.1/"
   xmlns:cc="http://creativecommons.org/ns#"
   xmlns:rdf="http://www.w3.org/1999/02/22-rdf-syntax-ns#"
   xmlns:svg="http://www.w3.org/2000/svg"
   xmlns="http://www.w3.org/2000/svg"
   id="svg8"
   version="1.1"
   viewBox="0 0 25.399999 25.400001"
   height="96"
   width="96">
  <defs
     id="defs2" />
  <metadata
     id="metadata5">
    <rdf:RDF>
      <cc:Work
         rdf:about="">
        <dc:format>image/svg+xml</dc:format>
        <dc:type
           rdf:resource="http://purl.org/dc/dcmitype/StillImage" />
        <dc:title />
      </cc:Work>
    </rdf:RDF>
  </metadata>
  <g
     transform="translate(0,-271.59999)"
     id="layer1">
    <g
       transform="translate(-0.35426085,0.10251079)"
       id="confucian2"
       style="font-style:normal;font-weight:normal;font-size:25.39781761px;line-height:1.25;font-family:sans-serif;letter-spacing:0px;word-spacing:0px;fill:#000000;fill-opacity:1;stroke:none;stroke-width:0.63494539"
       aria-label="水">
      <path
         id="path4571"
         style="font-style:normal;font-variant:normal;font-weight:normal;font-stretch:normal;font-family:'Yu Gothic UI';-inkscape-font-specification:'Yu Gothic UI';letter-spacing:0px;stroke-width:0.63494539"
         d="m 24.32657,290.71704 c -0.550885,0.39004 -3.159904,2.0496 -4.390325,1.31453 -2.810742,-2.41705 -5.588527,-7.77426 -6.580676,-11.14038 0.132281,7.86241 -0.06617,11.86801 -0.06617,12.54594 -0.179524,1.98263 -1.206677,2.48755 -2.050172,2.49681 -1.058876,0.008 -2.8720491,-2.65519 -3.5717724,-3.63786 0.2626484,-0.76201 3.2943954,1.32086 3.4806364,1.20716 0.886473,-5.03454 0.285229,-12.09419 0.285229,-17.523 0,-1.30627 -0.355526,-2.23637 -0.471273,-2.79029 0.690066,0.10178 2.437148,-0.0849 2.860632,0.34723 -0.74701,3.16039 0.622339,6.52465 2.052312,9.043 1.713264,-1.97305 3.468898,-3.14945 4.396319,-5.37641 0.545656,0.31417 1.401378,0.75649 1.773417,1.06239 0.335901,0.30473 0.176893,0.50256 -0.08681,0.69447 -1.768129,1.53746 -3.554227,3.51218 -5.270544,4.9233 2.108217,3.09205 4.654613,5.36976 7.639188,6.83311 z m -20.4661378,0.36785 c -0.7174788,0.41191 -2.2302977,0.69654 -2.7738576,0.37214 3.538498,-2.43065 6.0104861,-5.75833 7.4159643,-9.98303 -1.9352021,-0.17873 -3.709817,0.41581 -5.5639833,0.87642 -0.4060551,-0.21663 -1.1550109,-2.01598 -0.8268229,-2.21989 2.7687842,0.4711 5.5513084,-0.34748 7.8064623,-0.91703 0.55962,0.21438 1.025398,1.45736 1.045495,1.9298 -0.952251,3.94016 -4.7873569,8.10551 -7.1032578,9.94159 z" />
    </g>
  </g>
</svg>
