<?xml version="1.0" encoding="UTF-8" standalone="no"?>
<svg
   xmlns:dc="http://purl.org/dc/elements/1.1/"
   xmlns:cc="http://creativecommons.org/ns#"
   xmlns:rdf="http://www.w3.org/1999/02/22-rdf-syntax-ns#"
   xmlns:svg="http://www.w3.org/2000/svg"
   xmlns="http://www.w3.org/2000/svg"
   id="svg8"
   version="1.1"
   viewBox="0 0 25.399999 25.400001"
   height="96"
   width="96">
  <defs
     id="defs2" />
  <metadata
     id="metadata5">
    <rdf:RDF>
      <cc:Work
         rdf:about="">
        <dc:format>image/svg+xml</dc:format>
        <dc:type
           rdf:resource="http://purl.org/dc/dcmitype/StillImage" />
        <dc:title />
      </cc:Work>
    </rdf:RDF>
  </metadata>
  <g
     transform="translate(0,-271.59999)"
     id="layer1">
    <path
       id="hindu"
       style="fill:#ee0022;fill-opacity:1;stroke-width:0.06658369"
       d="m 6.7550035,295.59423 c -2.574089,-0.91985 -4.4431336,-3.20876 -5.1831594,-6.34752 -0.3358525,-1.42457 -0.4308192,-3.77852 -0.1524021,-3.77852 0.092506,0 0.3395515,0.64591 0.5490062,1.43536 0.458358,1.72748 1.2401462,3.35192 1.995313,4.14597 1.2543499,1.31892 4.3612012,1.83546 6.1513308,1.02271 1.394466,-0.63311 1.959953,-2.13785 1.353574,-3.60181 -0.468586,-1.13125 -1.5316196,-1.50953 -3.5117293,-1.2496 0,0 -1.2135199,-1.30624 -1.6001312,-3.62592 l 1.2438454,0.11278 c 1.4981259,0.13585 2.6292491,-0.19531 3.2163211,-0.94164 0.551666,-0.70132 0.539737,-0.97257 -0.07418,-1.68627 -0.8858586,-1.02987 -2.4764646,-0.76899 -5.6970158,0.93441 l -1.62497,-2.72393 0.6812516,-0.51964 c 1.7072189,-1.30215 4.6715336,-1.95316 6.3585322,-1.39638 1.536642,0.50713 2.664491,2.51941 2.363215,4.21634 -0.203692,1.14721 -1.123597,2.75404 -1.834298,3.20402 l -0.612911,0.38807 0.846607,0.38175 c 1.438652,0.64875 2.316918,0.15283 3.366238,-1.90073 1.452154,-2.8419 2.393982,-3.5776 4.584058,-3.58074 1.019741,-0.002 1.382684,0.1055 2.126453,0.62672 1.856288,1.30086 2.867032,3.99461 2.64503,7.0492 -0.281201,3.86862 -2.11365,6.21514 -4.853543,6.21514 -1.503678,0 -2.472893,-0.52739 -3.244415,-1.76543 -0.677657,-1.08748 -0.983038,-3.2412 -0.593874,-4.18864 0.186702,-0.45452 0.220449,-0.46994 0.232655,-0.10633 0.02244,0.66853 0.782981,1.75505 1.481223,2.11615 1.713177,0.88591 4.172568,-0.22715 5.145592,-2.32878 0.738749,-1.59563 0.342421,-4.67328 -0.671662,-5.21601 -0.212156,-0.11356 -0.736413,-0.20644 -1.164978,-0.20644 -0.911016,0 -1.626461,0.65494 -2.629509,2.40716 -0.34678,0.60582 -0.930385,1.38854 -1.296901,1.7394 -0.595493,0.57009 -0.808137,0.63795 -1.999122,0.63795 H 13.01768 l 0.430797,0.9569 c 0.61663,1.36968 0.587455,3.59508 -0.06488,4.94982 -0.576418,1.19711 -1.909193,2.40907 -2.974695,2.70507 -1.0372409,0.28814 -2.7263229,0.25089 -3.6539021,-0.0805 z m 5.0188725,-18.51201 c -0.589579,-1.00604 -0.952418,-2.88423 -0.557194,-2.88423 0.46424,1.00715 1.415895,1.90569 2.434873,2.53264 1.830174,0.88598 3.685972,0.52837 5.713439,-1.10095 0.446342,-0.35868 0.841607,-0.61225 0.878374,-0.56347 0.495064,0.76827 1.351416,1.39609 1.634476,2.28886 0,0.37668 -1.621548,1.46078 -2.901055,1.9395 -3.171349,0.91355 -5.329769,0.55217 -7.202913,-2.21235 z m 1.598155,-2.32553 2.064701,-2.28937 2.294529,2.12406 c -0.784833,0.64641 -1.351381,1.64959 -2.247999,2.15834 -0.708465,-0.52226 -1.765856,-1.13805 -2.111231,-1.99303 z" />
  </g>
</svg>
