<?xml version="1.0" encoding="UTF-8" standalone="no"?>
<svg
   xmlns:dc="http://purl.org/dc/elements/1.1/"
   xmlns:cc="http://creativecommons.org/ns#"
   xmlns:rdf="http://www.w3.org/1999/02/22-rdf-syntax-ns#"
   xmlns:svg="http://www.w3.org/2000/svg"
   xmlns="http://www.w3.org/2000/svg"
   id="svg8"
   version="1.1"
   viewBox="0 0 25.399999 25.400001"
   height="96"
   width="96">
  <defs
     id="defs2" />
  <metadata
     id="metadata5">
    <rdf:RDF>
      <cc:Work
         rdf:about="">
        <dc:format>image/svg+xml</dc:format>
        <dc:type
           rdf:resource="http://purl.org/dc/dcmitype/StillImage" />
        <dc:title />
      </cc:Work>
    </rdf:RDF>
  </metadata>
  <g
     transform="translate(0,-271.59999)"
     id="layer1">
    <g
       id="muslim"
       style="fill:#007f00;fill-opacity:1;stroke:none"
       transform="matrix(0.10955535,0,0,0.10955535,-1.1291304,268.62681)">
      <path
         id="path1315"
         d="M 125.13485,36.187753 C 67.60819,37.282014 21.25984,84.307148 21.259843,142.094 c 0,58.47207 47.465507,105.9375 105.937507,105.9375 27.33767,0 52.26496,-10.38375 71.0625,-27.40625 -13.25294,7.61817 -28.62654,11.96875 -45,11.96875 -49.92978,0 -90.437507,-40.50772 -90.437507,-90.4375 0,-49.929782 40.507727,-90.437497 90.437507,-90.437497 16.50367,0 31.98804,4.425296 45.3125,12.15625 -18.83343,-17.191643 -43.8851,-27.687502 -71.375,-27.6875 -0.68522,0 -1.38037,-0.01297 -2.0625,0 z" />
      <path
         id="path3098"
         d="m 198.96612,94.232672 -21.51868,29.618858 -34.81946,-11.31374 21.5187,29.61886 -21.5187,29.61888 34.81946,-11.31376 21.51868,29.61888 v -36.61024 l 34.81947,-11.31376 -34.81947,-11.31374 z"
         style="stroke-width:1" />
    </g>
  </g>
</svg>
