<?xml version="1.0" encoding="UTF-8" standalone="no"?>
<svg
   xmlns:dc="http://purl.org/dc/elements/1.1/"
   xmlns:cc="http://creativecommons.org/ns#"
   xmlns:rdf="http://www.w3.org/1999/02/22-rdf-syntax-ns#"
   xmlns:svg="http://www.w3.org/2000/svg"
   xmlns="http://www.w3.org/2000/svg"
   id="svg8"
   version="1.1"
   viewBox="0 0 33.866666 33.866666"
   height="128"
   width="128">
  <defs
     id="defs2" />
  <metadata
     id="metadata5">
    <rdf:RDF>
      <cc:Work
         rdf:about="">
        <dc:format>image/svg+xml</dc:format>
        <dc:type
           rdf:resource="http://purl.org/dc/dcmitype/StillImage" />
        <dc:title />
      </cc:Work>
    </rdf:RDF>
  </metadata>
  <g
     transform="translate(0,-263.13334)"
     id="layer1">
    <g
       id="bicycleway"
       transform="matrix(0.22913589,0.13229167,-0.13229167,0.22913589,109.72478,314.07781)">
      <path
         style="fill:#529add;fill-opacity:1;stroke-width:0.2"
         id="path4485-6-6-77-3"
         d="m -303.99992,63.999782 c 0,35.346 -28.654,63.999998 -64.00002,63.999998 -35.346,0 -64,-28.653998 -64,-63.999998 0,-35.346 28.654,-64 64,-64 35.34602,0 64.00002,28.654 64.00002,64" />
      <path
         id="path4485-6-6-16-8-0-0-2"
         d="m -332.5446,117.42775 c 2.8261,-1.83677 5.46837,-3.96091 7.96274,-6.20813 l 0.0774,-94.108128 c -2.49462,-2.24753 -4.32864,-4.08901 -8.06897,-5.73369 0,0 0.10064,106.174338 0.0288,106.049948 z"
         style="fill:#000000;fill-opacity:0.2;stroke-width:0.2" />
      <path
         id="path4485-6-6-1-3-0"
         d="m -367.9882,0.03494 c -11.66465,0 -22.59014,3.13589 -32.00781,8.58789 v 110.82422 c 9.41767,5.452 20.34316,8.58789 32.00781,8.58789 11.6437,0 22.55083,-3.12475 31.95703,-8.55859 V 8.59353 c -9.4062,-5.43384 -20.31333,-8.55859 -31.95703,-8.55859 z"
         style="fill:#999999;fill-opacity:1;stroke-width:0.2" />
      <path
         id="path4485-6-6-7-6-7"
         d="m -335.99992,8.52712 v 110.83204 c 2.80827,-1.62523 5.48255,-3.45379 8,-5.47266 V 13.99978 c -2.51745,-2.01887 -5.19173,-3.84743 -8,-5.47266 z"
         style="fill:#ffffff;fill-opacity:1;stroke-width:0.2" />
      <path
         id="path4485-6-6-70-4-0"
         d="m -399.99992,8.52712 c -2.80827,1.62523 -5.48255,3.45379 -8,5.47266 v 99.88672 c 2.51745,2.01887 5.19173,3.84743 8,5.47266 z"
         style="fill:#ffffff;fill-opacity:1;stroke-width:0.2" />
      <g
         style="stroke:#ffffff;stroke-width:3.27755284;stroke-miterlimit:4;stroke-dasharray:none;stroke-opacity:1"
         transform="matrix(0.91531707,0,0,0.91531707,-187.21278,-314.43764)"
         id="g8426">
        <path
           style="fill:none;fill-rule:evenodd;stroke:#ffffff;stroke-width:3.27755284;stroke-linecap:round;stroke-linejoin:round;stroke-miterlimit:4;stroke-dasharray:none;stroke-opacity:1"
           d="m -216,424 8.33469,-24.81496 h 8"
           id="path8159" />
        <path
           style="fill:none;fill-rule:evenodd;stroke:#ffffff;stroke-width:3.27755284;stroke-linecap:round;stroke-linejoin:round;stroke-miterlimit:4;stroke-dasharray:none;stroke-opacity:1"
           d="m -196,424 5,-21"
           id="path8163" />
        <path
           style="fill:none;fill-rule:evenodd;stroke:#ffffff;stroke-width:3.27755284;stroke-linecap:round;stroke-linejoin:round;stroke-miterlimit:4;stroke-dasharray:none;stroke-opacity:1"
           d="m -191,403 4.87372,-0.01"
           id="path8165" />
        <path
           style="fill:none;fill-rule:evenodd;stroke:#ffffff;stroke-width:3.27755284;stroke-linecap:round;stroke-linejoin:round;stroke-miterlimit:4;stroke-dasharray:none;stroke-opacity:1"
           d="m -210,407 14,17 h 16 l -11,-17 h -19"
           id="path8167" />
        <circle
           style="opacity:1;vector-effect:none;fill:none;fill-opacity:1;stroke:#ffffff;stroke-width:3.27755284;stroke-linecap:round;stroke-linejoin:round;stroke-miterlimit:4;stroke-dasharray:none;stroke-dashoffset:0;stroke-opacity:1;paint-order:normal"
           id="path8169"
           cx="-180.06062"
           cy="424.06064"
           r="11.076923" />
        <circle
           style="opacity:1;vector-effect:none;fill:none;fill-opacity:1;stroke:#ffffff;stroke-width:3.27755284;stroke-linecap:round;stroke-linejoin:round;stroke-miterlimit:4;stroke-dasharray:none;stroke-dashoffset:0;stroke-opacity:1;paint-order:normal"
           id="path8169-4"
           cx="-216.1581"
           cy="424.06265"
           r="11.076923" />
      </g>
      <rect
         y="11.90315"
         x="-391.48581"
         height="8"
         width="8"
         id="rect8461"
         style="opacity:1;vector-effect:none;fill:#ccccff;fill-opacity:0;stroke:none;stroke-width:3;stroke-linecap:round;stroke-linejoin:round;stroke-miterlimit:4;stroke-dasharray:none;stroke-dashoffset:0;stroke-opacity:1;paint-order:normal" />
    </g>
  </g>
</svg>
