<?xml version="1.0" encoding="UTF-8" standalone="no"?>
<svg
   xmlns:dc="http://purl.org/dc/elements/1.1/"
   xmlns:cc="http://creativecommons.org/ns#"
   xmlns:rdf="http://www.w3.org/1999/02/22-rdf-syntax-ns#"
   xmlns:svg="http://www.w3.org/2000/svg"
   xmlns="http://www.w3.org/2000/svg"
   id="svg8"
   version="1.1"
   viewBox="0 0 33.866666 33.866666"
   height="128"
   width="128">
  <defs
     id="defs2" />
  <metadata
     id="metadata5">
    <rdf:RDF>
      <cc:Work
         rdf:about="">
        <dc:format>image/svg+xml</dc:format>
        <dc:type
           rdf:resource="http://purl.org/dc/dcmitype/StillImage" />
        <dc:title />
      </cc:Work>
    </rdf:RDF>
  </metadata>
  <g
     transform="translate(0,-263.13334)"
     id="layer1">
    <g
       transform="matrix(0.26458333,0,0,0.26458333,-425.47592,190.26088)"
       id="building_construction">
      <circle
         class="st0"
         cx="1672.098"
         cy="339.42346"
         r="64"
         id="circle4-6"
         style="fill:#aaaaaa;fill-opacity:1" />
      <g
         id="g6134">
        <path
           style="fill:#666666;fill-opacity:1"
           d="m 1640.0902,307.50357 v 87.27344 a 64,64 0 0 0 16,6.52929 v -93.80273 z"
           id="circle4-6-0" />
        <path
           style="fill:#666666;fill-opacity:1"
           d="m 1688.0902,307.50357 v 93.83984 a 64,64 0 0 0 16,-6.58203 v -87.25781 z"
           id="circle4-6-4" />
      </g>
      <path
         id="circle4-6-0-6"
         d="m 1632.0902,319.50357 c -4.456,0 -8.0429,3.58695 -8.0429,8.04296 v 31.91406 c 0,4.45601 3.5869,8.04297 8.0429,8.04297 h 79.9141 c 4.456,0 8.043,-3.58696 8.043,-8.04297 v -31.91406 c 0,-4.45601 -3.587,-8.04296 -8.043,-8.04296 z"
         style="fill:#000000;fill-opacity:0.2" />
      <rect
         ry="8.0433397"
         y="315.50357"
         x="1624.0902"
         height="48"
         width="95.999992"
         id="rect6054"
         style="fill:#555555;fill-opacity:1;stroke:none;stroke-width:4;stroke-linecap:round;stroke-linejoin:round;stroke-miterlimit:4;stroke-dasharray:none;stroke-opacity:1;paint-order:normal" />
      <path
         id="rect5928"
         d="m 1632.0902,315.50357 c -3.8167,0 -6.9867,2.64761 -7.7949,6.21289 l 28.7461,41.78711 h 14.1426 l -32.3321,-48 z m 16.6191,0 32.3321,48 h 14.1426 l -32.3321,-48 z m 28,0 32.3321,48 h 3.0488 c 3.6926,0 6.7759,-2.47949 7.7051,-5.86914 l -28.9434,-42.13086 z m 28,0 15.3809,22 v -14 c 0,-4.432 -3.568,-8 -8,-8 z m -80.6191,26 v 14 c 0,4.432 3.568,8 8,8 h 7.0938 z"
         style="fill:#ffe94c;fill-opacity:1;stroke:none;stroke-width:4;stroke-linecap:round;stroke-linejoin:round;stroke-miterlimit:4;stroke-dasharray:none;stroke-opacity:1;paint-order:normal" />
      <rect
         ry="8.0379639"
         y="315.50357"
         x="1624.0902"
         height="48"
         width="96"
         id="rect5915-5"
         style="fill:none;fill-opacity:1;stroke:#555555;stroke-width:4;stroke-linecap:round;stroke-linejoin:round;stroke-miterlimit:4;stroke-dasharray:none;stroke-opacity:1;paint-order:stroke markers fill" />
    </g>
  </g>
</svg>
