<?xml version="1.0" encoding="UTF-8" standalone="no"?>
<svg
   xmlns:dc="http://purl.org/dc/elements/1.1/"
   xmlns:cc="http://creativecommons.org/ns#"
   xmlns:rdf="http://www.w3.org/1999/02/22-rdf-syntax-ns#"
   xmlns:svg="http://www.w3.org/2000/svg"
   xmlns="http://www.w3.org/2000/svg"
   id="svg8"
   version="1.1"
   viewBox="0 0 33.866666 33.866666"
   height="128"
   width="128">
  <defs
     id="defs2" />
  <metadata
     id="metadata5">
    <rdf:RDF>
      <cc:Work
         rdf:about="">
        <dc:format>image/svg+xml</dc:format>
        <dc:type
           rdf:resource="http://purl.org/dc/dcmitype/StillImage" />
        <dc:title />
      </cc:Work>
    </rdf:RDF>
  </metadata>
  <g
     transform="translate(0,-263.13334)"
     id="layer1">
    <g
       id="building_levels"
       transform="matrix(0.05291667,0,0,-0.05291667,-2.4136665,303.29769)">
      <path
         id="path2-3-2"
         d="M 662.34494,319.096 C 596.07119,155.26291 409.53009,76.174311 245.697,142.44806 81.863906,208.72181 2.7753103,395.26291 69.04906,559.096 135.32281,722.92909 321.86391,802.01769 485.697,735.74394 649.53009,669.47019 728.61869,482.92909 662.34494,319.096"
         style="fill:#c8c4b7" />
      <g
         id="g17353-2-6"
         transform="translate(-58.062861,440)" />
      <path
         id="path2-3-2-4"
         d="m 365.33085,599.096 -160,-160 -0.176,-276.7773 c 12.8684,-7.4433 26.3603,-14.1383 40.5371,-19.8731 6.5075,-2.6324 13.0685,-4.9514 19.6387,-7.1289 v 43.9551 h 70 v -58.7402 c 10.0423,-0.9611 20.0685,-1.4296 30.0586,-1.4356 h 6.416 c 7.8799,0.154 15.7209,0.6639 23.5254,1.3965 v 59.6582 h 70 v -45.0782 c 20.8567,6.8468 40.9552,15.829 60,26.7774 V 439.096 Z m -35,-60 h 70 v -80 h -70 z m -65,-120 h 70 v -80 h -70 z m 130,0 h 70 v -80 h -70 z m -130,-120 h 70 v -80 h -70 z m 130,0 h 70 v -80 h -70 z"
         style="fill:#ffffff;fill-opacity:1;stroke-width:1" />
      <path
         id="path10-8-0"
         d="m 165.33086,439.096 199.99999,200 200,-200"
         style="fill:none;stroke:#000000;stroke-width:56;stroke-linecap:square;stroke-opacity:0.2" />
      <path
         id="path10-8"
         d="m 165.33085,457.77667 200,200 200,-200"
         style="fill:none;stroke:#c84747;stroke-width:56;stroke-linecap:square" />
      <rect
         transform="scale(1,-1)"
         y="-539.09601"
         x="330.3309"
         height="20"
         width="70"
         id="rect5060"
         style="opacity:1;vector-effect:none;fill:#000000;fill-opacity:0.2;stroke:none;stroke-width:40;stroke-linecap:butt;stroke-linejoin:miter;stroke-miterlimit:4;stroke-dasharray:none;stroke-dashoffset:0;stroke-opacity:0.2;paint-order:normal" />
      <rect
         transform="scale(1,-1)"
         y="-419.09601"
         x="265.33084"
         height="20"
         width="70"
         id="rect5060-2"
         style="opacity:1;vector-effect:none;fill:#000000;fill-opacity:0.2;stroke:none;stroke-width:40;stroke-linecap:butt;stroke-linejoin:miter;stroke-miterlimit:4;stroke-dasharray:none;stroke-dashoffset:0;stroke-opacity:0.2;paint-order:normal" />
      <rect
         transform="scale(1,-1)"
         y="-419.09601"
         x="395.33084"
         height="20"
         width="70"
         id="rect5060-4"
         style="opacity:1;vector-effect:none;fill:#000000;fill-opacity:0.2;stroke:none;stroke-width:40;stroke-linecap:butt;stroke-linejoin:miter;stroke-miterlimit:4;stroke-dasharray:none;stroke-dashoffset:0;stroke-opacity:0.2;paint-order:normal" />
      <rect
         transform="scale(1,-1)"
         y="-299.09601"
         x="265.33084"
         height="20"
         width="70"
         id="rect5060-9"
         style="opacity:1;vector-effect:none;fill:#000000;fill-opacity:0.2;stroke:none;stroke-width:40;stroke-linecap:butt;stroke-linejoin:miter;stroke-miterlimit:4;stroke-dasharray:none;stroke-dashoffset:0;stroke-opacity:0.2;paint-order:normal" />
      <rect
         transform="scale(1,-1)"
         y="-299.09601"
         x="395.33084"
         height="20"
         width="70"
         id="rect5060-6"
         style="opacity:1;vector-effect:none;fill:#000000;fill-opacity:0.2;stroke:none;stroke-width:40;stroke-linecap:butt;stroke-linejoin:miter;stroke-miterlimit:4;stroke-dasharray:none;stroke-dashoffset:0;stroke-opacity:0.2;paint-order:normal" />
      <rect
         transform="scale(1,-1)"
         y="-179.2718"
         x="265.33066"
         height="20"
         width="70"
         id="rect5060-3"
         style="opacity:1;vector-effect:none;fill:#000000;fill-opacity:0.2;stroke:none;stroke-width:40;stroke-linecap:butt;stroke-linejoin:miter;stroke-miterlimit:4;stroke-dasharray:none;stroke-dashoffset:0;stroke-opacity:0.2;paint-order:normal" />
      <rect
         transform="scale(1,-1)"
         y="-180.1507"
         x="395.33066"
         height="20"
         width="70"
         id="rect5060-5"
         style="opacity:1;vector-effect:none;fill:#000000;fill-opacity:0.2;stroke:none;stroke-width:40;stroke-linecap:butt;stroke-linejoin:miter;stroke-miterlimit:4;stroke-dasharray:none;stroke-dashoffset:0;stroke-opacity:0.2;paint-order:normal" />
    </g>
  </g>
</svg>
