<?xml version="1.0" encoding="UTF-8" standalone="no"?>
<svg
   xmlns:dc="http://purl.org/dc/elements/1.1/"
   xmlns:cc="http://creativecommons.org/ns#"
   xmlns:rdf="http://www.w3.org/1999/02/22-rdf-syntax-ns#"
   xmlns:svg="http://www.w3.org/2000/svg"
   xmlns="http://www.w3.org/2000/svg"
   id="svg8"
   version="1.1"
   viewBox="0 0 33.866666 33.866666"
   height="128"
   width="128">
  <defs
     id="defs2" />
  <metadata
     id="metadata5">
    <rdf:RDF>
      <cc:Work
         rdf:about="">
        <dc:format>image/svg+xml</dc:format>
        <dc:type
           rdf:resource="http://purl.org/dc/dcmitype/StillImage" />
        <dc:title />
      </cc:Work>
    </rdf:RDF>
  </metadata>
  <g
     transform="translate(0,-263.13334)"
     id="layer1">
    <g
       id="building"
       transform="matrix(0.05291667,0,0,-0.05291667,-2.3519852,302.74961)">
      <path
         id="path2"
         d="m 684.447,428.65406 c 0,-176.73 -143.27,-320 -320,-320 -176.73,0 -320,143.27 -320,320 0,176.73 143.27,320 320,320 176.73,0 320,-143.27 320,-320"
         style="fill:#c8c4b7" />
      <path
         id="path4"
         d="m 364.86525,569.16132 -159.969,-159.969 h -0.516 v -180.031 h 113.234 v 139.609 h 94.6719 v -139.609 h 113.312 v 180.031 h -0.7656 z"
         style="fill:#000000;fill-opacity:0.2;fill-rule:evenodd" />
      <path
         id="path8"
         d="m 166.62183,424.16132 200,200 200,-200"
         style="fill:none;stroke:#000000;stroke-width:56;stroke-linecap:square;stroke-opacity:0.19607801" />
      <path
         id="path6"
         d="m 364.86505,589.16132 -159.9688,-159.9688 h -0.516 v -180.0312 h 113.2344 v 139.6096 h 94.672 v -139.6096 h 113.3128 v 180.0312 h -0.7656 z"
         style="fill:#ffffff;fill-rule:evenodd;stroke-width:8" />
      <path
         id="path10"
         d="m 166.724,446.592 200,200 200,-200"
         style="fill:none;stroke:#c84747;stroke-width:56;stroke-linecap:square" />
    </g>
  </g>
</svg>
