<?xml version="1.0" encoding="UTF-8" standalone="no"?>
<svg
   xmlns:dc="http://purl.org/dc/elements/1.1/"
   xmlns:cc="http://creativecommons.org/ns#"
   xmlns:rdf="http://www.w3.org/1999/02/22-rdf-syntax-ns#"
   xmlns:svg="http://www.w3.org/2000/svg"
   xmlns="http://www.w3.org/2000/svg"
   id="svg8"
   version="1.1"
   viewBox="0 0 33.866666 33.866666"
   height="128"
   width="128">
  <defs
     id="defs2" />
  <metadata
     id="metadata5">
    <rdf:RDF>
      <cc:Work
         rdf:about="">
        <dc:format>image/svg+xml</dc:format>
        <dc:type
           rdf:resource="http://purl.org/dc/dcmitype/StillImage" />
        <dc:title />
      </cc:Work>
    </rdf:RDF>
  </metadata>
  <g
     transform="translate(0,-263.13334)"
     id="layer1">
    <g
       id="bus_stop_name"
       transform="matrix(0.26458333,0,0,0.26458333,189.70624,301.23339)">
      <path
         style="fill:#529add;fill-opacity:1;stroke-width:0.2"
         id="path4485-6-00-40-5-8-8-1-3"
         d="m -588.99992,-80.000218 c 0,35.346 -28.654,63.999998 -64.00002,63.999998 -35.346,0 -64,-28.653998 -64,-63.999998 0,-35.346002 28.654,-64.000002 64,-64.000002 35.34602,0 64.00002,28.654 64.00002,64.000002" />
      <g
         id="g5816-9-47-1-0-7-6"
         transform="matrix(0.21649908,0,0,-0.21649908,-736.92731,-25.142084)"
         style="fill:#ffffff;fill-opacity:1;stroke:none;stroke-width:37.48579407;stroke-miterlimit:4;stroke-dasharray:none;stroke-opacity:1;paint-order:stroke fill markers" />
      <g
         id="g5816-4-7-7-6-3-9-1"
         transform="matrix(0.21649908,0,0,-0.21649908,-674.94076,-62.492952)"
         style="fill:#ffffff;fill-opacity:1;stroke:none;stroke-width:37.48579407;stroke-miterlimit:4;stroke-dasharray:none;stroke-opacity:1;paint-order:stroke fill markers" />
      <path
         id="path22-0-4-7"
         d="m -657.0217,-85.11746 c 0,1 1,2 2,2 l 2,0.12695 v 23.03711 h -0.5605 c -0.9718,6.6e-4 -1.4088,0.46836 -1.4355,1.44727 l -0.029,1.04882 c -0.027,0.97891 0.493,1.50288 1.4648,1.50196 l 2.6172,-0.002 -0.024,3.50782 c -0.016,2.50081 0.9958,3.49593 3.0293,3.49023 l 5.9297,-0.0156 c 2.0358,-0.006 2.99,-0.97391 3.0078,-3.59571 l 0.022,-3.39843 20.0352,-0.0195 -0.024,3.49219 c -0.016,2.50081 0.9958,3.49594 3.0293,3.49024 l 5.9297,-0.0156 c 2.0358,-0.006 2.99,-0.97391 3.0078,-3.5957 l 0.022,-3.38281 2.5215,-0.002 c 0.9735,-9.2e-4 1.4637,-0.48364 1.4707,-1.46289 l 0.01,-1.01758 c 0.01,-0.97924 -0.4972,-1.50652 -1.4707,-1.50586 h -0.5489 V -81.8655 l 2,-0.125 c 1,0 2,-1 2,-2 l 0.0174,-4.00972 h -56 z"
         style="fill:#000000;fill-opacity:0.2;fill-rule:nonzero;stroke:none;stroke-width:1.25" />
      <g
         style="stroke-width:1.33333337"
         id="g9466-2-7"
         transform="matrix(0.75,0,0,0.75,-1438.9999,336.59353)">
        <g
           transform="matrix(2.6721295,0,0,-2.3731641,1065.3724,-524.66905)"
           id="g20-0-4"
           style="stroke-width:0.66184473">
          <path
             id="path22-0-0"
             style="fill:#555555;fill-opacity:1;fill-rule:nonzero;stroke:none;stroke-width:0.66184473"
             d="M 0.48437385,-0.18433573 C 0.47547871,-1.6573583 0,-2.201327 -1.0158148,-2.2045228 l -2.9592582,-0.00931 c -1.0147067,-0.00319 -1.5193078,0.5564745 -1.5111709,1.96152614 L -5.4739779,1.865731 0.4966399,1.846906 Z" />
        </g>
        <g
           transform="matrix(2.6493041,0,0,-2.3611111,1108,-524.66291)"
           id="g24-2-3"
           style="stroke-width:0.66638416" />
        <g
           transform="matrix(2.3472208,0,0,-2.3611111,1123.7678,-564.82322)"
           id="g32-9-8"
           style="stroke-width:0.70796794">
          <path
             id="path34-9-3"
             style="fill:#99aab5;fill-opacity:1;fill-rule:nonzero;stroke:none;stroke-width:0.70796794"
             d="m -2.7413129,0.55134212 c 0,-0.56470589 -0.5680476,-1.12941177 -1.1360953,-1.12941177 l -1.1360954,-0.0710908 V 8.3861337 l 1.1360954,0.071091 c 0.5680477,0 1.1360953,-0.5774118 1.1360953,-1.1294118 z" />
        </g>
        <g
           transform="matrix(2.3472208,0,0,-2.3611111,1096.1667,-600.38889)"
           id="g44-9-6"
           style="stroke-width:0.70796794">
          <path
             id="path46-3-2"
             transform="matrix(0.42603576,0,0,-0.42352941,-467.00621,-254.28235)"
             d="m 1069.3333,-603.45833 c -2.6666,0 -5.3333,2.66667 -5.3333,5.33334 l -8,-10e-6 c -5.1849,0.0256 -8,0.90931 -8,6.125 v 28 h 64 v -28 c 0,-5.21569 -2.6935,-6.13605 -8,-6.125 h -7.873 c -0.1982,-2.79971 -2.7937,-5.33333 -5.4603,-5.33333 z"
             style="fill:#ccd6dd;fill-opacity:1;fill-rule:nonzero;stroke:none;stroke-width:1.66666663" />
        </g>
        <path
           id="path52-5-2"
           style="fill:#ffcc4d;fill-opacity:1;fill-rule:nonzero;stroke:none;stroke-width:1.66666663"
           d="m 1112,-532 h -64 v -32 h 64 z" />
        <path
           id="path66-9-8"
           style="fill:#ffac33;fill-opacity:1;fill-rule:nonzero;stroke:none;stroke-width:1.66666663"
           d="m 1112,-534 h -64 v -13.45833 h 64 z" />
        <g
           transform="matrix(2.6721295,0,0,-2.3731641,1108.039,-524.73224)"
           id="g20-0-2-8"
           style="stroke-width:0.66184473">
          <path
             id="path22-0-2-9"
             style="fill:#555555;fill-opacity:1;fill-rule:nonzero;stroke:none;stroke-width:0.66184473"
             d="M 0.48437385,-0.18433573 C 0.47547871,-1.6573583 0,-2.201327 -1.0158148,-2.2045228 l -2.9592582,-0.00931 c -1.0147067,-0.00319 -1.5193078,0.5564745 -1.5111709,1.96152614 L -5.4739779,1.865731 0.4966399,1.846906 Z" />
        </g>
        <g
           transform="matrix(2.3472208,0,0,-2.3611111,1117.2917,-529.55555)"
           id="g54-7-5"
           style="stroke-width:0.70796794">
          <path
             id="path56-6-1"
             style="fill:#66757f;fill-opacity:1;fill-rule:nonzero;stroke:none;stroke-width:0.70796794"
             d="m -1.1106087,0.50944593 c -0.004,-0.55298567 -0.2820778,-0.82582563 -0.8350776,-0.82634673 L -29.838909,-0.343185 c -0.552,-5.2015e-4 -0.846547,0.29544991 -0.831369,0.84824406 l 0.01625,0.59184604 c 0.01518,0.5527945 0.263259,0.8173793 0.815259,0.8177537 l 27.8966029,0.018922 c 0.5529999,3.751e-4 0.8397095,-0.297274 0.835709,-0.8502598 z" />
        </g>
        <g
           transform="matrix(2.3472208,0,0,-2.3611111,1114.9445,-564.97222)"
           id="g58-7-3"
           style="stroke-width:0.70796794">
          <path
             id="path60-6-4"
             style="fill:#66757f;fill-opacity:1;fill-rule:nonzero;stroke:none;stroke-width:0.70796794"
             d="m -1.2544623,-0.64117553 c 0,-1.69411767 -0.6151907,-2.25882357 -2.2721907,-2.25882357 H -26.24856 c -1.657,0 -2.272191,0.6018235 -2.272191,2.25882357 V 7.2647059 c 0,1.657 0.615191,2.2588245 2.272191,2.2588245 h 22.721907 c 1.704143,0 2.2721907,-0.5647059 2.2721907,-2.2588235 z" />
        </g>
        <g
           transform="matrix(2.3472208,0,0,-2.3611111,1108,-567.20715)"
           id="g62-5-0"
           style="stroke-width:0.70796794">
          <path
             id="path64-3-7"
             style="fill:#88c9f9;fill-opacity:1;fill-rule:nonzero;stroke:none;stroke-width:0.70796794"
             d="M 0,-0.52941177 C 0,-1.4735265 -0.56804768,-2.15244 -1.704143,-2.15244 L -22.15386,-2.210765 c -1.104,0 -1.748324,0.6493164 -1.704143,1.75244234 V 5.4181483 c 0.04418,1.1031259 0.600143,1.4647059 1.704143,1.4647059 H -1.704143 C -0.59914308,6.8828542 0,6.5221483 0,5.4181483 Z" />
        </g>
        <path
           id="path76-7-5"
           style="fill:#99aab5;fill-opacity:1;fill-rule:nonzero;stroke:none;stroke-width:1.66666663"
           d="m 1090.6667,-536.79167 h -21.3334 v -8 h 21.3334 z" />
        <g
           transform="matrix(2.9913083,0,0,-2.2361111,1092,-596.65972)"
           id="g78-9-2"
           style="stroke-width:0.64442366">
          <path
             id="path80-6-3"
             style="fill:#555555;fill-opacity:1;fill-rule:nonzero;stroke:none;stroke-width:0.64442366"
             d="M -0.89147169,-1.1335394 H -7.1317735 c -0.4457359,0 -0.8914717,0.59627331 -0.8914717,1.19254661 0,0.59627329 0.5473856,1.19254659 0.8914717,1.19254659 h 6.24030181 C -0.44573585,1.2515538 0,0.6552805 0,0.05900721 0,-0.53726609 -0.44573585,-1.1335394 -0.89147169,-1.1335394 Z" />
        </g>
        <g
           transform="matrix(2.3472208,0,0,-2.3611111,1048.7678,-564.82322)"
           id="g32-8-3-2"
           style="stroke-width:0.70796794" />
        <circle
           style="opacity:1;vector-effect:none;fill:#ffffff;fill-opacity:1;stroke:none;stroke-width:2.66666651;stroke-linecap:round;stroke-linejoin:bevel;stroke-miterlimit:4;stroke-dasharray:none;stroke-dashoffset:0;stroke-opacity:1;paint-order:normal"
           id="path9611-9-5"
           cx="1056.1361"
           cy="-540.84747"
           r="5.3050718" />
        <circle
           style="opacity:1;vector-effect:none;fill:#ffffff;fill-opacity:1;stroke:none;stroke-width:2.66666651;stroke-linecap:round;stroke-linejoin:bevel;stroke-miterlimit:4;stroke-dasharray:none;stroke-dashoffset:0;stroke-opacity:1;paint-order:normal"
           id="path9611-2-4-5"
           cx="1103.8475"
           cy="-540.84747"
           r="5.3050718" />
        <path
           id="path34-9-1-2"
           style="fill:#99aab5;fill-opacity:1;fill-rule:nonzero;stroke:none;stroke-width:1.66666687"
           d="m 1042.6667,-567.6262 c 0,1.33333 1.3333,2.66666 2.6667,2.66666 l 2.6666,0.16786 v -21.33334 l -2.6666,-0.16785 c -1.3334,0 -2.6667,1.36333 -2.6667,2.66667 z" />
      </g>
      <path
         id="path4485-6-00-40-5-8-8-1-3-3"
         d="m -684.9999,-43.90647 v 19.32227 c 2.5609,1.48206 5.2305,2.7926 8,3.91406 v -23.23633 z"
         style="fill:#666666;fill-opacity:1;stroke-width:0.2" />
      <g
         transform="translate(0,4)"
         id="g6652">
        <path
           style="fill:#000000;fill-opacity:0.2;stroke:none;stroke-width:4;stroke-linecap:round;stroke-linejoin:round;stroke-miterlimit:4;stroke-dasharray:none;stroke-opacity:1;paint-order:normal"
           d="m -660.99986,-52.107489 v 4.861359 c 0,1.850171 -1.48948,3.339659 -3.33965,3.339659 h -33.32071 c -1.85017,0 -3.33966,-1.489488 -3.33966,-3.339659 v -4.861359 z"
           id="rect6441-0" />
        <g
           id="g6639">
          <rect
             ry="4.0000014"
             y="-101.90647"
             x="-700.99988"
             height="54.000015"
             width="40.000023"
             id="rect6441"
             style="fill:#ffffff;fill-opacity:1;stroke:none;stroke-width:4;stroke-linecap:round;stroke-linejoin:round;stroke-miterlimit:4;stroke-dasharray:none;stroke-opacity:1;paint-order:normal" />
          <g
             transform="translate(0,2.90625)"
             id="g6602">
            <ellipse
               style="fill:#495aad;fill-opacity:1;stroke:none;stroke-width:4;stroke-linecap:round;stroke-linejoin:round;stroke-miterlimit:4;stroke-dasharray:none;stroke-opacity:1;paint-order:normal"
               id="path6545"
               cx="-680.99207"
               cy="-84.84156"
               rx="15.000022"
               ry="15.062499" />
            <path
               id="rect6511"
               transform="translate(-1612.9999,-661.90647)"
               d="m 926,567.07192 c -1.108,0 -2,0.892 -2,2 V 583 c 0,0.74107 0.4042,1.37905 1,1.72461 V 588 h 4 v -3 h 6 v 3 h 4 v -3.27539 c 0.5958,-0.34556 1,-0.98354 1,-1.72461 v -13.92808 c 0,-1.108 -0.892,-2 -2,-2 z M 929,570 h 6 c 1.108,0 2.01718,0.89213 2,2 v 5 h -10 v -5 c 0,-1.108 0.892,-2 2,-2 z m -0.95581,9.04699 c 1.10457,0 2,0.89543 2,2 0,1.10457 -0.89543,2 -2,2 -1.10457,0 -2,-0.89543 -2,-2 0,-1.10457 0.89543,-2 2,-2 z m 8,0 c 1.10457,0 2,0.89543 2,2 0,1.10457 -0.89543,2 -2,2 -1.10457,0 -2,-0.89543 -2,-2 0,-1.10457 0.89543,-2 2,-2 z"
               style="fill:#ffffff;fill-opacity:1;stroke:none;stroke-width:4;stroke-linecap:round;stroke-linejoin:round;stroke-miterlimit:4;stroke-dasharray:none;stroke-opacity:1;paint-order:normal" />
          </g>
          <g
             id="g6628">
            <rect
               style="fill:#cbcbcb;fill-opacity:1;stroke:none;stroke-width:4;stroke-linecap:round;stroke-linejoin:round;stroke-miterlimit:4;stroke-dasharray:none;stroke-opacity:1;paint-order:normal"
               id="rect6445-6"
               width="30.000023"
               height="10.999999"
               x="-695.99988"
               y="-64.000221" />
          </g>
        </g>
      </g>
    </g>
  </g>
</svg>
