<?xml version="1.0" encoding="UTF-8" standalone="no"?>
<svg
   xmlns:dc="http://purl.org/dc/elements/1.1/"
   xmlns:cc="http://creativecommons.org/ns#"
   xmlns:rdf="http://www.w3.org/1999/02/22-rdf-syntax-ns#"
   xmlns:svg="http://www.w3.org/2000/svg"
   xmlns="http://www.w3.org/2000/svg"
   id="svg8"
   version="1.1"
   viewBox="0 0 33.866666 33.866666"
   height="128"
   width="128">
  <defs
     id="defs2" />
  <metadata
     id="metadata5">
    <rdf:RDF>
      <cc:Work
         rdf:about="">
        <dc:format>image/svg+xml</dc:format>
        <dc:type
           rdf:resource="http://purl.org/dc/dcmitype/StillImage" />
        <dc:title />
      </cc:Work>
    </rdf:RDF>
  </metadata>
  <g
     transform="translate(0,-263.13334)"
     id="layer1">
    <g
       transform="matrix(0.26458333,0,0,0.26458333,-319.60762,157.28633)"
       id="ferry">
      <path
         style="fill:#ffdd55;fill-opacity:1;stroke-width:0.2"
         id="path4485-6-6-3-4-86"
         d="m 1327.4021,496.04075 c -17.673,30.61053 -56.8151,41.09862 -87.4256,23.42561 -30.6106,-17.673 -41.0987,-56.81509 -23.4257,-87.42562 17.673,-30.61054 56.8151,-41.09863 87.4257,-23.42563 30.6105,17.67301 41.0986,56.8151 23.4256,87.42564" />
      <path
         style="fill:#000000;fill-opacity:0.2;fill-rule:nonzero;stroke:none;stroke-width:1.25"
         d="m 1238.3554,440.01926 c -0.8702,0 -1.5781,0.35203 -1.5781,0.78711 v 1.57617 c 0,0.4185 0.6601,0.75379 1.4844,0.7793 l -2.7442,18.92578 h 2.8379 c 0.8701,0 1.5762,0.70601 1.5762,1.57617 v 4.1836 h -21.9121 c 2.1563,7.45439 8,16 8,16 1.589,2.43079 3.7354,4.87476 5.2109,6.23046 15.7765,14.47755 88.7871,5.76954 88.7871,5.76954 0,0 1.5769,-5.33188 3.002,-12 0,0 3,-11 3,-16 h -19.8809 v -4.1836 c 0,-0.87016 0.706,-1.57617 1.5762,-1.57617 h 5.9902 l -1.2597,-6.30469 H 1262 V 443.1716 c 0.8702,0 1.5761,-0.35398 1.5761,-0.78906 v -1.57617 c 0,-0.43508 -0.7059,-0.78711 -1.5761,-0.78711 z"
         id="path74-8" />
      <g
         id="g8579">
        <g
           style="stroke-width:0.39647579"
           id="g72"
           transform="matrix(3.1527777,5.2958733e-8,5.2958733e-8,-3.1527777,1306.1206,466.122)">
          <path
             d="M 0,0 V 2 C 0,2.276 0.224,2.5 0.5,2.5 H 2.4 L 2,4.5 h -24 l -0.4,-2 h 0.9 C -21.224,2.5 -21,2.276 -21,2 V 0 c 0,-0.276 -0.224,-0.5 -0.5,-0.5 h 21 C -0.776,-0.5 0,-0.276 0,0"
             style="fill:#ccd6dd;fill-opacity:1;fill-rule:nonzero;stroke:none;stroke-width:0.39647579"
             id="path74" />
        </g>
        <g
           style="stroke-width:0.39647579"
           id="g76"
           transform="matrix(3.1527777,5.2958733e-8,5.2958733e-8,-3.1527777,1258.8289,466.122)">
          <path
             d="m 0,0 c 0,-0.276 -0.224,-0.5 -0.5,-0.5 h -4 C -4.776,-0.5 -5,-0.276 -5,0 v 2 c 0,0.276 0.224,0.5 0.5,0.5 h 4 C -0.224,2.5 0,2.276 0,2 Z"
             style="fill:#66757f;fill-opacity:1;fill-rule:nonzero;stroke:none;stroke-width:0.39647579"
             id="path78" />
        </g>
        <g
           style="stroke-width:0.39647579"
           id="g80"
           transform="matrix(3.1527777,5.2958733e-8,5.2958733e-8,-3.1527777,1280.8983,466.122)">
          <path
             d="m 0,0 c 0,-0.276 -0.224,-0.5 -0.5,-0.5 h -4 C -4.776,-0.5 -5,-0.276 -5,0 v 2 c 0,0.276 0.224,0.5 0.5,0.5 h 4 C -0.224,2.5 0,2.276 0,2 Z"
             style="fill:#66757f;fill-opacity:1;fill-rule:nonzero;stroke:none;stroke-width:0.39647579"
             id="path82" />
        </g>
        <g
           style="stroke-width:0.39647579"
           id="g84"
           transform="matrix(3.1527777,5.2958733e-8,5.2958733e-8,-3.1527777,1302.9678,466.122)">
          <path
             d="m 0,0 c 0,-0.276 -0.224,-0.5 -0.5,-0.5 h -4 C -4.776,-0.5 -5,-0.276 -5,0 v 2 c 0,0.276 0.224,0.5 0.5,0.5 h 4 C -0.224,2.5 0,2.276 0,2 Z"
             style="fill:#66757f;fill-opacity:1;fill-rule:nonzero;stroke:none;stroke-width:0.39647579"
             id="path86" />
        </g>
        <g
           style="stroke-width:0.39647579"
           id="g88"
           transform="matrix(3.1527777,5.2958733e-8,5.2958733e-8,-3.1527777,1320,492)">
          <path
             d="m 0.95154181,3.8061675 c 0,0 0.95154179,3.4889869 0.95154179,5.07489 l -34.2555076,-6e-7 c 0.683937,-2.364388 2.537445,-5.0748899 2.537445,-5.0748899"
             style="fill:#ccd6dd;fill-opacity:1;fill-rule:nonzero;stroke:none;stroke-width:0.39647579"
             id="path90" />
        </g>
        <g
           style="stroke-width:0.39647579"
           id="g92"
           transform="matrix(3.1527777,5.2958733e-8,5.2958733e-8,-3.1527777,1226.5514,480.30949)">
          <path
             d="M -0.1748934,0.09816423 C 0.3291066,-0.67283577 1.01,-1.448 1.478,-1.878 6.482,-6.47 29.64,-3.708 29.64,-3.708 c 0,0 0.499627,1.6911647 0.951627,3.80616475 z"
             style="fill:#dd2e44;fill-opacity:1;fill-rule:nonzero;stroke:none;stroke-width:0.39647579"
             id="path94" />
        </g>
        <g
           style="stroke-width:0.39647579"
           id="g96"
           transform="matrix(3.1527777,5.2958733e-8,5.2958733e-8,-3.1527777,1239.9122,475.58033)">
          <path
             d="m 0,0 c 0,-0.276 -0.224,-0.5 -0.5,-0.5 h -1 C -1.776,-0.5 -2,-0.276 -2,0 v 1 c 0,0.276 0.224,0.5 0.5,0.5 h 1 C -0.224,1.5 0,1.276 0,1 Z"
             style="fill:#66757f;fill-opacity:1;fill-rule:nonzero;stroke:none;stroke-width:0.39647579"
             id="path98" />
        </g>
        <g
           style="stroke-width:0.39647579"
           id="g100"
           transform="matrix(3.1527777,5.2958733e-8,5.2958733e-8,-3.1527777,1252.5233,475.58033)">
          <path
             d="m 0,0 c 0,-0.276 -0.224,-0.5 -0.5,-0.5 h -1 C -1.776,-0.5 -2,-0.276 -2,0 v 1 c 0,0.276 0.224,0.5 0.5,0.5 h 1 C -0.224,1.5 0,1.276 0,1 Z"
             style="fill:#66757f;fill-opacity:1;fill-rule:nonzero;stroke:none;stroke-width:0.39647579"
             id="path102" />
        </g>
        <g
           style="stroke-width:0.39647579"
           id="g104"
           transform="matrix(3.1527777,5.2958733e-8,5.2958733e-8,-3.1527777,1265.1344,475.58033)">
          <path
             d="m 0,0 c 0,-0.276 -0.224,-0.5 -0.5,-0.5 h -1 C -1.776,-0.5 -2,-0.276 -2,0 v 1 c 0,0.276 0.224,0.5 0.5,0.5 h 1 C -0.224,1.5 0,1.276 0,1 Z"
             style="fill:#66757f;fill-opacity:1;fill-rule:nonzero;stroke:none;stroke-width:0.39647579"
             id="path106" />
        </g>
        <g
           style="stroke-width:0.39647579"
           id="g108"
           transform="matrix(3.1527777,5.2958733e-8,5.2958733e-8,-3.1527777,1277.7456,475.58033)">
          <path
             d="m 0,0 c 0,-0.276 -0.224,-0.5 -0.5,-0.5 h -1 C -1.776,-0.5 -2,-0.276 -2,0 v 1 c 0,0.276 0.224,0.5 0.5,0.5 h 1 C -0.224,1.5 0,1.276 0,1 Z"
             style="fill:#66757f;fill-opacity:1;fill-rule:nonzero;stroke:none;stroke-width:0.39647579"
             id="path110" />
        </g>
        <g
           style="stroke-width:0.39647579"
           id="g112"
           transform="matrix(3.1527777,5.2958733e-8,5.2958733e-8,-3.1527777,1290.3567,475.58033)">
          <path
             d="m 0,0 c 0,-0.276 -0.224,-0.5 -0.5,-0.5 h -1 C -1.776,-0.5 -2,-0.276 -2,0 v 1 c 0,0.276 0.224,0.5 0.5,0.5 h 1 C -0.224,1.5 0,1.276 0,1 Z"
             style="fill:#66757f;fill-opacity:1;fill-rule:nonzero;stroke:none;stroke-width:0.39647579"
             id="path114" />
        </g>
        <g
           style="stroke-width:0.39647579"
           id="g116"
           transform="matrix(3.1527777,5.2958733e-8,5.2958733e-8,-3.1527777,1302.9678,475.58033)">
          <path
             d="m 0,0 c 0,-0.276 -0.224,-0.5 -0.5,-0.5 h -1 C -1.776,-0.5 -2,-0.276 -2,0 v 1 c 0,0.276 0.224,0.5 0.5,0.5 h 1 C -0.224,1.5 0,1.276 0,1 Z"
             style="fill:#66757f;fill-opacity:1;fill-rule:nonzero;stroke:none;stroke-width:0.39647579"
             id="path118" />
        </g>
        <g
           style="stroke-width:0.39647579"
           id="g120"
           transform="matrix(3.1527777,5.2958733e-8,5.2958733e-8,-3.1527777,1315.5789,475.58033)">
          <path
             d="m 0,0 c 0,-0.276 -0.224,-0.5 -0.5,-0.5 h -1 C -1.776,-0.5 -2,-0.276 -2,0 v 1 c 0,0.276 0.224,0.5 0.5,0.5 h 1 C -0.224,1.5 0,1.276 0,1 Z"
             style="fill:#66757f;fill-opacity:1;fill-rule:nonzero;stroke:none;stroke-width:0.39647579"
             id="path122" />
        </g>
        <g
           style="stroke-width:0.39647579"
           id="g124"
           transform="matrix(3.1527777,5.2958733e-8,5.2958733e-8,-3.1527777,1261.9817,455.08727)">
          <path
             d="m 0,0 -8.4,-1 0.9,6.208 H 0 Z"
             style="fill:#ccd6dd;fill-opacity:1;fill-rule:nonzero;stroke:none;stroke-width:0.39647579"
             id="path126" />
        </g>
        <g
           style="stroke-width:0.39647579"
           id="g128"
           transform="matrix(3.1527777,5.2958733e-8,5.2958733e-8,-3.1527777,1258.8289,437.747)">
          <path
             d="M 0,0 C 0,-0.276 -0.224,-0.5 -0.5,-0.5 -0.776,-0.5 -1,-0.276 -1,0 v 4 c 0,0.276 0.224,0.5 0.5,0.5 C -0.224,4.5 0,4.276 0,4 Z"
             style="fill:#ccd6dd;fill-opacity:1;fill-rule:nonzero;stroke:none;stroke-width:0.39647579"
             id="path130" />
        </g>
        <g
           style="stroke-width:0.39647579"
           id="g132"
           transform="matrix(3.1527777,5.2958733e-8,5.2958733e-8,-3.1527777,1252.5233,444.05255)">
          <path
             d="M 0,0 C 0,-0.276 -0.224,-0.5 -0.5,-0.5 -0.776,-0.5 -1,-0.276 -1,0 v 4 c 0,0.276 0.224,0.5 0.5,0.5 C -0.224,4.5 0,4.276 0,4 Z"
             style="fill:#ccd6dd;fill-opacity:1;fill-rule:nonzero;stroke:none;stroke-width:0.39647579"
             id="path134" />
        </g>
        <g
           style="stroke-width:0.39647579"
           id="g136"
           transform="matrix(3.1527777,5.2958733e-8,5.2958733e-8,-3.1527777,1263.5581,438.53519)">
          <path
             d="M 0,0 C 0,-0.138 -0.224,-0.25 -0.5,-0.25 H -8 c -0.276,0 -0.5,0.112 -0.5,0.25 v 0.5 c 0,0.138 0.224,0.25 0.5,0.25 h 7.5 C -0.224,0.75 0,0.638 0,0.5 Z"
             style="fill:#226699;fill-opacity:1;fill-rule:nonzero;stroke:none;stroke-width:0.39647579"
             id="path138" />
        </g>
        <g
           style="stroke-width:0.39647579"
           id="g140"
           transform="matrix(3.1527777,5.2958733e-8,5.2958733e-8,-3.1527777,1257.2525,442.47616)">
          <path
             d="m 0,0 h -6.15 l -0.3,-2 H 0 c 0.276,0 0.5,0.224 0.5,0.5 v 1 C 0.5,-0.224 0.276,0 0,0"
             style="fill:#66757f;fill-opacity:1;fill-rule:nonzero;stroke:none;stroke-width:0.39647579"
             id="path142" />
        </g>
        <path
           d="m 1252.5233,451.9345 h -3.1527 v -12.61112 l 3.1527,1e-5 z"
           style="fill:#ccd6dd;fill-opacity:1;fill-rule:nonzero;stroke:none;stroke-width:1.25"
           id="path144" />
      </g>
      <path
         style="fill:#529add;fill-opacity:1;stroke-width:0.2"
         d="m 1212.475,488.42704 c 5.1573,12.79634 14.4558,24.03384 27.3301,31.4668 7.7618,4.48128 16.0716,7.14371 24.4414,8.13476 h 15.0781 c 19.351,-2.30445 37.4129,-13.38554 47.9062,-31.56054 1.5142,-2.62262 2.8064,-5.31202 3.9122,-8.04102 -10.0146,-1.96908 -19.7306,-1.57747 -29.667,0 -10.1425,1.61019 -21.6131,2.16835 -29.667,0 -17.9774,-4.84007 -22.9043,1.94236 -29.667,0 C 1236.4829,486.80166 1227.5402,479.10163 1225,488 Z"
         id="path4485-6-6-3-4-86-9" />
      <path
         style="fill:#000000;fill-opacity:0.13333333;fill-rule:nonzero;stroke:none;stroke-width:1.25"
         d="m 1229.7055,488.13149 c -1.0381,0.0297 -1.9744,0.34971 -2.7598,1.07422 1.4799,2.07462 3.2255,4.05113 4.4942,5.21679 15.7765,14.47756 88.7871,5.76954 88.7871,5.76954 0,0 1.0549,-3.62671 2.2168,-8.5625 -6.93,-0.46519 -13.7901,0.0364 -20.7578,1.14257 -10.1425,1.61019 -21.6141,2.16835 -29.668,0 -17.9774,-4.84007 -22.9033,1.94236 -29.666,0 -3.7138,-1.06665 -8.842,-4.74963 -12.6465,-4.64062 z"
         id="path74-8-0" />
    </g>
  </g>
</svg>
