<?xml version="1.0" encoding="UTF-8" standalone="no"?>
<svg
   xmlns:dc="http://purl.org/dc/elements/1.1/"
   xmlns:cc="http://creativecommons.org/ns#"
   xmlns:rdf="http://www.w3.org/1999/02/22-rdf-syntax-ns#"
   xmlns:svg="http://www.w3.org/2000/svg"
   xmlns="http://www.w3.org/2000/svg"
   id="svg8"
   version="1.1"
   viewBox="0 0 33.866666 33.866666"
   height="128"
   width="128">
  <defs
     id="defs2" />
  <metadata
     id="metadata5">
    <rdf:RDF>
      <cc:Work
         rdf:about="">
        <dc:format>image/svg+xml</dc:format>
        <dc:type
           rdf:resource="http://purl.org/dc/dcmitype/StillImage" />
        <dc:title />
      </cc:Work>
    </rdf:RDF>
  </metadata>
  <g
     transform="translate(0,-263.13334)"
     id="layer1">
    <g
       transform="matrix(0.26458333,0,0,0.26458333,-425.47593,190.26088)"
       id="fire_hydrant">
      <circle
         class="st0"
         cx="1672.098"
         cy="339.42346"
         r="64"
         id="circle4"
         style="fill:#aaaaaa;fill-opacity:1" />
      <path
         id="rect12369-9"
         d="m 1672.0902,291.50358 c -10.9805,3.8e-4 -19.8816,8.9023 -19.8809,19.88281 l 0.01,0.008 h -4.1172 v 8 h 8 v 12 h -4 v -4 h -8 v 6.02148 a 6.0568519,6.0568519 0 0 0 -5.9414,6.05274 6.0568519,6.0568519 0 0 0 5.9414,6.05078 v 5.875 h 8 v -4 h 4 v 24 h -4 v 12 h -5 v 8 h 49 v -8 h -4 v -12 h -4 v -24 h 4 v 4 h 8 v -5.77734 a 6.0568519,6.0568519 0 0 0 0.2383,0.0117 6.0568519,6.0568519 0 0 0 6.0566,-6.05664 6.0568519,6.0568519 0 0 0 -6.0566,-6.05859 6.0568519,6.0568519 0 0 0 -0.2383,0.008 v -6.12695 h -8 v 4 h -4 v -12 h 8 v -8 h -4.1348 l 0.01,-0.008 c 9e-4,-10.98051 -8.9003,-19.88243 -19.8808,-19.88281 z"
         style="fill:#000000;fill-opacity:0.2;stroke:none;stroke-width:12;stroke-linecap:round;stroke-linejoin:round;stroke-miterlimit:4;stroke-dasharray:none;stroke-opacity:1;paint-order:markers fill stroke" />
      <g
         id="g12384">
        <rect
           style="fill:#a8493e;fill-opacity:1;stroke:none;stroke-width:12;stroke-linecap:round;stroke-linejoin:round;stroke-miterlimit:4;stroke-dasharray:none;stroke-opacity:1;paint-order:markers fill stroke"
           id="rect12369"
           width="40"
           height="16"
           x="1652.098"
           y="327.3942" />
        <path
           style="fill:#cd584c;fill-opacity:1;stroke:none;stroke-width:12.36931705;stroke-linecap:round;stroke-linejoin:round;stroke-miterlimit:4;stroke-dasharray:none;stroke-opacity:1;paint-order:markers fill stroke"
           d="m 191.99219,12.109375 c -10.9805,3.71e-4 -19.88157,8.902308 -19.88086,19.882813 L 176,36.980644 V 92 h 32 V 36 l 3.87305,-4.007812 c 7.1e-4,-10.980505 -8.90036,-19.882442 -19.88086,-19.882813 z"
           id="rect12273"
           transform="translate(1480.098,275.3942)" />
        <circle
           style="fill:#cd584c;fill-opacity:1;stroke:none;stroke-width:9.08527756;stroke-linecap:round;stroke-linejoin:round;stroke-miterlimit:4;stroke-dasharray:none;stroke-opacity:1;paint-order:markers fill stroke"
           id="path12291-0"
           cx="1700.3365"
           cy="335.57117"
           r="6.0568519" />
        <rect
           style="fill:#9e3d33;fill-opacity:1;stroke:none;stroke-width:12;stroke-linecap:round;stroke-linejoin:round;stroke-miterlimit:4;stroke-dasharray:none;stroke-opacity:1;paint-order:markers fill stroke"
           id="rect12281"
           width="8"
           height="24"
           x="1692.098"
           y="323.3942" />
        <circle
           style="fill:#cd584c;fill-opacity:1;stroke:none;stroke-width:9.08527756;stroke-linecap:round;stroke-linejoin:round;stroke-miterlimit:4;stroke-dasharray:none;stroke-opacity:1;paint-order:markers fill stroke"
           id="path12291"
           cx="1644.214"
           cy="335.46893"
           r="6.0568519" />
        <rect
           style="fill:#9e3d33;fill-opacity:1;stroke:none;stroke-width:12;stroke-linecap:round;stroke-linejoin:round;stroke-miterlimit:4;stroke-dasharray:none;stroke-opacity:1;paint-order:markers fill stroke"
           id="rect12283"
           width="8"
           height="24"
           x="1644.098"
           y="323.3942" />
        <circle
           style="fill:#9e3d33;fill-opacity:1;stroke:none;stroke-width:9.11040688;stroke-linecap:round;stroke-linejoin:round;stroke-miterlimit:4;stroke-dasharray:none;stroke-opacity:1;paint-order:markers fill stroke"
           id="path12289"
           cx="1672.0916"
           cy="343.51828"
           r="12.147206" />
        <rect
           style="fill:#9e3d33;fill-opacity:1;stroke:none;stroke-width:17.83104706;stroke-linecap:round;stroke-linejoin:round;stroke-miterlimit:4;stroke-dasharray:none;stroke-opacity:1;paint-order:markers fill stroke"
           id="rect12271"
           width="49.000023"
           height="7.9999957"
           x="1647.098"
           y="379.3942" />
        <rect
           style="fill:#9e3d33;fill-opacity:1;stroke:none;stroke-width:12;stroke-linecap:round;stroke-linejoin:round;stroke-miterlimit:4;stroke-dasharray:none;stroke-opacity:1;paint-order:markers fill stroke"
           id="rect12275"
           width="47.999977"
           height="8.0000048"
           x="1648.098"
           y="307.3942" />
        <rect
           style="fill:#cd584c;fill-opacity:1;stroke:none;stroke-width:10.18233204;stroke-linecap:round;stroke-linejoin:round;stroke-miterlimit:4;stroke-dasharray:none;stroke-opacity:1;paint-order:markers fill stroke"
           id="rect12367"
           width="8.4852762"
           height="8.4852762"
           x="1699.757"
           y="-105.32013"
           transform="rotate(15)" />
        <rect
           style="fill:#a8493e;fill-opacity:1;stroke:none;stroke-width:12;stroke-linecap:round;stroke-linejoin:round;stroke-miterlimit:4;stroke-dasharray:none;stroke-opacity:1;paint-order:markers fill stroke"
           id="rect12371"
           width="39.999977"
           height="12.000005"
           x="1652.098"
           y="367.3942" />
      </g>
    </g>
  </g>
</svg>
