<?xml version="1.0" encoding="UTF-8" standalone="no"?>
<svg
   xmlns:dc="http://purl.org/dc/elements/1.1/"
   xmlns:cc="http://creativecommons.org/ns#"
   xmlns:rdf="http://www.w3.org/1999/02/22-rdf-syntax-ns#"
   xmlns:svg="http://www.w3.org/2000/svg"
   xmlns="http://www.w3.org/2000/svg"
   id="svg8"
   version="1.1"
   viewBox="0 0 33.866666 33.866668"
   height="128"
   width="128">
  <defs
     id="defs2" />
  <metadata
     id="metadata5">
    <rdf:RDF>
      <cc:Work
         rdf:about="">
        <dc:format>image/svg+xml</dc:format>
        <dc:type
           rdf:resource="http://purl.org/dc/dcmitype/StillImage" />
        <dc:title />
      </cc:Work>
    </rdf:RDF>
  </metadata>
  <g
     transform="translate(0,-263.13332)"
     id="layer1">
    <g
       id="housenumber"
       transform="matrix(0.05291667,0,0,-0.05291667,-2.3519889,302.77299)">
      <path
         id="path2-7"
         d="m 684.447,429.096 c 0,-176.73 -143.27,-320 -320,-320 -176.73,0 -320,143.27 -320,320 0,176.73 143.27,320 320,320 176.73,0 320,-143.27 320,-320"
         style="fill:#c8c4b7" />
      <rect
         transform="scale(1,-1)"
         ry="70.217827"
         y="-638.19745"
         x="144.69879"
         height="439.41296"
         width="439.96262"
         id="rect9437-4"
         style="opacity:1;vector-effect:none;fill:#000000;fill-opacity:0.2;stroke:none;stroke-width:32.59181976;stroke-linecap:round;stroke-linejoin:round;stroke-miterlimit:4;stroke-dasharray:none;stroke-dashoffset:0;stroke-opacity:0.4;paint-order:normal"
         rx="70.217827" />
      <g
         transform="translate(1.25,9.30641)"
         id="g9458">
        <rect
           style="opacity:1;vector-effect:none;fill:#495aad;fill-opacity:1;stroke:none;stroke-width:32.59181976;stroke-linecap:round;stroke-linejoin:round;stroke-miterlimit:4;stroke-dasharray:none;stroke-dashoffset:0;stroke-opacity:0.4;paint-order:normal"
           id="rect9437"
           width="439.96262"
           height="439.41296"
           x="144.07379"
           y="-648.26605"
           transform="scale(1,-1)"
           ry="70.217827"
           rx="70.217827" />
        <path
           style="fill:none;fill-opacity:1;fill-rule:evenodd;stroke:#ffffff;stroke-width:25.07598114;stroke-linecap:butt;stroke-linejoin:miter;stroke-miterlimit:4;stroke-dasharray:none;stroke-opacity:1"
           d="M 187.80828,534.40087 V 323.23471 c 35.19436,0 70.38872,-35.19435 70.38872,-70.38871 h 211.16616 c 0,35.19436 35.19436,70.38871 70.38872,70.38871 v 211.16616 c -35.19436,0 -70.38872,35.19436 -70.38872,70.38872 H 258.197 c 0,-35.19436 -35.19436,-70.38872 -70.38872,-70.38872 z"
           id="path9416" />
        <g
           id="text9420"
           style="font-style:normal;font-variant:normal;font-weight:normal;font-stretch:normal;font-size:23.46290779px;line-height:109.9823761px;font-family:'Times New Roman';-inkscape-font-specification:'Times New Roman, ';letter-spacing:0px;word-spacing:0px;fill:#ffffff;fill-opacity:1;stroke:none;stroke-width:4.39929485px;stroke-linecap:butt;stroke-linejoin:miter;stroke-opacity:1"
           transform="scale(1,-1)"
           aria-label="1">
          <path
             id="path10268"
             style="font-style:normal;font-variant:normal;font-weight:bold;font-stretch:normal;font-size:281.55487061px;font-family:'Traditional Arabic';-inkscape-font-specification:'Traditional Arabic Bold';fill:#ffffff;fill-opacity:1;stroke-width:4.39929485px"
             d="m 398.197,-519.78959 -0.0286,139.76327 c -0.002,8.43198 6.01625,10.58714 12.88897,10.46047 l 12.13966,-0.22374 3e-5,30 h -100 l -3e-5,-30 13.28159,0.22374 c 6.59801,0.11115 11.69306,-2.75564 11.69529,-10.4544 l 0.0231,-89.76934 c 0,10 -39.99998,10 -39.99998,10 l 1e-5,-30 c 19.99998,0 44.99998,-10 44.99999,-30 z" />
        </g>
      </g>
    </g>
  </g>
</svg>
