<?xml version="1.0" encoding="UTF-8" standalone="no"?>
<svg
   xmlns:dc="http://purl.org/dc/elements/1.1/"
   xmlns:cc="http://creativecommons.org/ns#"
   xmlns:rdf="http://www.w3.org/1999/02/22-rdf-syntax-ns#"
   xmlns:svg="http://www.w3.org/2000/svg"
   xmlns="http://www.w3.org/2000/svg"
   id="svg8"
   version="1.1"
   viewBox="0 0 33.866666 33.866666"
   height="128"
   width="128">
  <defs
     id="defs2">
    <clipPath
       clipPathUnits="userSpaceOnUse"
       id="clipPath16-1-0">
      <path
         d="M 0,38 H 38 V 0 H 0 Z"
         id="path18-3-2" />
    </clipPath>
  </defs>
  <metadata
     id="metadata5">
    <rdf:RDF>
      <cc:Work
         rdf:about="">
        <dc:format>image/svg+xml</dc:format>
        <dc:type
           rdf:resource="http://purl.org/dc/dcmitype/StillImage" />
        <dc:title />
      </cc:Work>
    </rdf:RDF>
  </metadata>
  <g
     transform="translate(0,-263.13334)"
     id="layer1">
    <g
       transform="matrix(0.26458333,0,0,0.26458333,114.3,148.83334)"
       id="label">
      <path
         style="fill:#e9a76f;fill-opacity:1;stroke-width:0.2"
         id="path4485-6-00-40-3-5"
         d="m -304,496 c 0,35.346 -28.654,64 -64.00002,64 -35.346,0 -64,-28.654 -64,-64 0,-35.346 28.654,-64 64,-64 C -332.654,432 -304,460.654 -304,496" />
      <g
         id="g5816-4-7-1-7"
         transform="matrix(0.21649908,0,0,-0.21649908,-389.94084,513.50727)"
         style="fill:#f3994d;fill-opacity:1;stroke:none;stroke-width:37.48579407;stroke-miterlimit:4;stroke-dasharray:none;stroke-opacity:1;paint-order:stroke fill markers" />
      <path
         style="opacity:1;vector-effect:none;fill:none;fill-opacity:0.2;stroke:#000000;stroke-width:8;stroke-linecap:butt;stroke-linejoin:miter;stroke-miterlimit:4;stroke-dasharray:none;stroke-dashoffset:0;stroke-opacity:0.2;paint-order:normal"
         d="m -341.66,476 c -7.0275,-3.77825 -0.33999,-20 7.66,-34"
         id="path17470-1" />
      <path
         style="opacity:1;vector-effect:none;fill:none;fill-opacity:0.2;stroke:#7077ce;stroke-width:8;stroke-linecap:butt;stroke-linejoin:miter;stroke-miterlimit:4;stroke-dasharray:none;stroke-dashoffset:0;stroke-opacity:1;paint-order:normal"
         d="m -269.07506,516.83089 c -7.50388,-2.71158 -4.7973,-16.47609 1.07263,-31.49421"
         id="path17470"
         transform="rotate(8.3965125)" />
      <path
         style="opacity:1;vector-effect:none;fill:#000000;fill-opacity:0.2;stroke:none;stroke-width:6.506814;stroke-linecap:round;stroke-linejoin:round;stroke-miterlimit:4;stroke-dasharray:none;stroke-dashoffset:0;stroke-opacity:0.85353537;paint-order:normal"
         d="m -368.01367,460 -46,46 v 4 l 36,36 h 4 l 46,-46 v -38 l -2,-2 z M -342,468 a 5.985486,5.9924178 0 0 1 5.98633,5.99219 5.985486,5.9924178 0 0 1 -5.98633,5.99219 5.985486,5.9924178 0 0 1 -5.98437,-5.99219 A 5.985486,5.9924178 0 0 1 -342,468 Z"
         id="rect17235-1" />
      <path
         style="opacity:1;vector-effect:none;fill:#ffffff;fill-opacity:1;stroke:none;stroke-width:6.506814;stroke-linecap:round;stroke-linejoin:round;stroke-miterlimit:4;stroke-dasharray:none;stroke-dashoffset:0;stroke-opacity:0.85353537;paint-order:normal"
         d="m -368,456 -46,46 v 4 l 36,36 h 4 l 46,-46 v -38 l -2,-2 z m 26.01367,8 a 5.985486,5.9924178 0 0 1 5.98633,5.99219 5.985486,5.9924178 0 0 1 -5.98633,5.99219 5.985486,5.9924178 0 0 1 -5.98437,-5.99219 5.985486,5.9924178 0 0 1 5.98437,-5.99219 z"
         id="rect17235" />
      <path
         style="opacity:1;vector-effect:none;fill:none;fill-opacity:0.2;stroke:#000000;stroke-width:8;stroke-linecap:butt;stroke-linejoin:miter;stroke-miterlimit:4;stroke-dasharray:none;stroke-dashoffset:0;stroke-opacity:0.2;paint-order:normal"
         d="m -310,469.54877 c -11.14141,6.16686 -22.03364,7.41797 -32,2.45123"
         id="path17470-4-9" />
      <path
         transform="rotate(8.3965125)"
         style="opacity:1;vector-effect:none;fill:none;fill-opacity:0.2;stroke:#7077ce;stroke-width:8;stroke-linecap:butt;stroke-linejoin:miter;stroke-miterlimit:4;stroke-dasharray:none;stroke-dashoffset:0;stroke-opacity:1;paint-order:normal"
         d="m -239.9659,506.77177 c -10.12149,7.72766 -18.8659,13.34358 -29.45069,9.88539"
         id="path17470-4" />
    </g>
  </g>
</svg>
