<?xml version="1.0" encoding="UTF-8" standalone="no"?>
<svg
   xmlns:dc="http://purl.org/dc/elements/1.1/"
   xmlns:cc="http://creativecommons.org/ns#"
   xmlns:rdf="http://www.w3.org/1999/02/22-rdf-syntax-ns#"
   xmlns:svg="http://www.w3.org/2000/svg"
   xmlns="http://www.w3.org/2000/svg"
   id="svg8"
   version="1.1"
   viewBox="0 0 33.866666 33.866666"
   height="128"
   width="128">
  <defs
     id="defs2" />
  <metadata
     id="metadata5">
    <rdf:RDF>
      <cc:Work
         rdf:about="">
        <dc:format>image/svg+xml</dc:format>
        <dc:type
           rdf:resource="http://purl.org/dc/dcmitype/StillImage" />
        <dc:title />
      </cc:Work>
    </rdf:RDF>
  </metadata>
  <g
     transform="translate(0,-263.13334)"
     id="layer1">
    <g
       id="lantern"
       transform="matrix(0.26458333,0,0,0.26458333,152.40003,263.13328)">
      <path
         style="fill:#529add;fill-opacity:1;stroke-width:0.2"
         id="path4485-6-9-0"
         d="m -448,64 c 0,35.346 -28.654,64 -64.00002,64 -35.346,0 -64,-28.654 -64,-64 0,-35.346 28.654,-64 64,-64 C -476.654,0 -448,28.654 -448,64" />
      <path
         id="path4485-6-9-0-6-1"
         d="m -528.00008,93.3752 v 8 l 10,4 h 12 l 10,-4 v -8 z"
         style="fill:#000000;fill-opacity:0.2;stroke-width:0.2" />
      <path
         id="path4485-6-9-0-0"
         d="m -569.88289,36.67989 c -3.91844,8.28685 -6.11719,17.54532 -6.11719,27.32031 0,15.64955 5.62516,29.97988 14.95312,41.09961 l 37.04688,-17.09961 h 24 l 37.04688,17.09961 c 9.32796,-11.11973 14.95312,-25.45006 14.95312,-41.09961 0,-9.77499 -2.19875,-19.03346 -6.11719,-27.32031 l -29.88281,3.32031 h -56 z"
         style="fill:#ffffdf;fill-opacity:0.53333285;stroke-width:0.2" />
      <path
         id="path4750"
         d="m -536.00008,40.0002 8,48 h 32 l 8,-48 z"
         style="fill:#ffffdf;fill-opacity:1;fill-rule:evenodd;stroke:#c1a551;stroke-width:4;stroke-linecap:butt;stroke-linejoin:miter;stroke-miterlimit:4;stroke-dasharray:none;stroke-opacity:1" />
      <path
         id="path4817"
         d="m -524.00008,40.0002 4,48"
         style="fill:none;fill-rule:evenodd;stroke:#c1a551;stroke-width:4;stroke-linecap:butt;stroke-linejoin:miter;stroke-miterlimit:4;stroke-dasharray:none;stroke-opacity:1" />
      <path
         id="path4817-0"
         d="m -500.00008,40.0002 -4,48"
         style="fill:none;fill-rule:evenodd;stroke:#c1a551;stroke-width:4;stroke-linecap:butt;stroke-linejoin:miter;stroke-miterlimit:4;stroke-dasharray:none;stroke-opacity:1" />
      <path
         id="path4770"
         d="m -544.00008,40.0002 h 64 v -8 c -12,0 -20,-16 -32,-20 -12,4 -20,20 -32,20 z"
         style="fill:#555555;fill-opacity:1;fill-rule:evenodd;stroke:none;stroke-width:1px;stroke-linecap:butt;stroke-linejoin:miter;stroke-opacity:1" />
      <path
         id="path4485-6-9-0-6"
         d="m -528.00008,88.0002 v 8 l 10,4 v 27.71094 c 1.97655,0.18389 3.97541,0.28906 6,0.28906 2.02459,0 4.02345,-0.10517 6,-0.28906 V 100.0002 l 10,-4 v -8 z"
         style="fill:#555555;fill-opacity:1;stroke-width:0.2" />
    </g>
  </g>
</svg>
