<?xml version="1.0" encoding="UTF-8" standalone="no"?>
<svg
   xmlns:dc="http://purl.org/dc/elements/1.1/"
   xmlns:cc="http://creativecommons.org/ns#"
   xmlns:rdf="http://www.w3.org/1999/02/22-rdf-syntax-ns#"
   xmlns:svg="http://www.w3.org/2000/svg"
   xmlns="http://www.w3.org/2000/svg"
   id="svg8"
   version="1.1"
   viewBox="0 0 33.866666 33.866666"
   height="128"
   width="128">
  <defs
     id="defs2" />
  <metadata
     id="metadata5">
    <rdf:RDF>
      <cc:Work
         rdf:about="">
        <dc:format>image/svg+xml</dc:format>
        <dc:type
           rdf:resource="http://purl.org/dc/dcmitype/StillImage" />
        <dc:title />
      </cc:Work>
    </rdf:RDF>
  </metadata>
  <g
     transform="translate(0,-263.13334)"
     id="layer1">
    <g
       id="leaf"
       transform="matrix(0.26458333,0,0,0.26458333,-319.61666,55.69999)">
      <path
         style="fill:#b9a065;fill-opacity:1;stroke-width:0.2"
         id="path4485-9-6-7-1-8-8"
         d="m 1336,848.00005 c 0,35.346 -28.654,64 -64,64 -35.346,0 -64,-28.654 -64,-64 0,-35.346 28.654,-64 64,-64 35.346,0 64,28.654 64,64" />
      <path
         id="path9326-4"
         d="m 1322.0175,821.52153 c -28.0266,4.47267 -61.0019,-4.48397 -78.4101,7.01172 -17.9256,11.83733 -7.7218,27.51887 -2.4297,35.47657 l -13.8437,7.27929 2.8457,4.97071 13.8203,-8.25977 c 15.6331,19.29785 41.4657,13.11742 53.6074,5.32617 23.8426,-15.29958 13.5702,-27.59356 24.4101,-51.80469 z"
         style="fill:#000000;fill-opacity:0.2;fill-rule:evenodd;stroke:none;stroke-width:1px;stroke-linecap:butt;stroke-linejoin:miter;stroke-opacity:1" />
      <g
         transform="translate(0,-3)"
         id="g9335">
        <path
           style="fill:#5cae32;fill-opacity:1;fill-rule:evenodd;stroke:none;stroke-width:1px;stroke-linecap:butt;stroke-linejoin:miter;stroke-opacity:1"
           d="m 1242.3709,865.01943 c -4.4301,-6.96885 -18.612,-24.65851 1.0185,-37.62171 17.4082,-11.49569 50.3826,-2.53757 78.4092,-7.01024 z"
           id="path9326" />
        <path
           style="fill:#63b439;fill-opacity:1;fill-rule:evenodd;stroke:none;stroke-width:1px;stroke-linecap:butt;stroke-linejoin:miter;stroke-opacity:1"
           d="m 1242.3709,865.01943 39.7139,-22.31597 39.7138,-22.31598 c -10.8399,24.21113 -0.5669,36.505 -24.4095,51.80458 -12.5142,8.03029 -39.5738,14.35201 -55.0182,-7.17263 z"
           id="path9324" />
        <path
           style="fill:#4a8c28;fill-opacity:1;fill-rule:evenodd;stroke:none;stroke-width:1px;stroke-linecap:butt;stroke-linejoin:miter;stroke-opacity:1"
           d="m 1227.1149,870.15515 2.846,4.97024 L 1320,821.31791 Z"
           id="path9238" />
        <path
           style="fill:#4a8c28;fill-opacity:1;fill-rule:evenodd;stroke:none;stroke-width:1px;stroke-linecap:butt;stroke-linejoin:miter;stroke-opacity:1"
           d="m 1244,841.41125 5,19.5888 20.761,12.50745 -17.1318,-15.21795 z"
           id="path9240" />
        <path
           style="fill:#4a8c28;fill-opacity:1;fill-rule:evenodd;stroke:none;stroke-width:1px;stroke-linecap:butt;stroke-linejoin:miter;stroke-opacity:1"
           d="m 1253.9057,828.00005 8.0943,26 26,17.02927 -23,-19.02927 z"
           id="path9242" />
        <path
           style="fill:#4a8c28;fill-opacity:1;fill-rule:evenodd;stroke:none;stroke-width:1px;stroke-linecap:butt;stroke-linejoin:miter;stroke-opacity:1"
           d="M 1270.5439,825.45626 1275,847.00005 1301.9368,860.00004 1278,844.40452 Z"
           id="path9244" />
        <path
           style="fill:#4a8c28;fill-opacity:1;fill-rule:evenodd;stroke:none;stroke-width:1px;stroke-linecap:butt;stroke-linejoin:miter;stroke-opacity:1"
           d="m 1288,825.13268 v 13.86737 l 20,5 -16,-6.89501 z"
           id="path9246" />
      </g>
    </g>
  </g>
</svg>
