<?xml version="1.0" encoding="UTF-8" standalone="no"?>
<svg
   xmlns:dc="http://purl.org/dc/elements/1.1/"
   xmlns:cc="http://creativecommons.org/ns#"
   xmlns:rdf="http://www.w3.org/1999/02/22-rdf-syntax-ns#"
   xmlns:svg="http://www.w3.org/2000/svg"
   xmlns="http://www.w3.org/2000/svg"
   id="svg8"
   version="1.1"
   viewBox="0 0 33.866666 33.866666"
   height="128"
   width="128">
  <defs
     id="defs2">
    <clipPath
       clipPathUnits="userSpaceOnUse"
       id="clipPath16-1-0">
      <path
         d="M 0,38 H 38 V 0 H 0 Z"
         id="path18-3-2" />
    </clipPath>
  </defs>
  <metadata
     id="metadata5">
    <rdf:RDF>
      <cc:Work
         rdf:about="">
        <dc:format>image/svg+xml</dc:format>
        <dc:type
           rdf:resource="http://purl.org/dc/dcmitype/StillImage" />
        <dc:title />
      </cc:Work>
    </rdf:RDF>
  </metadata>
  <g
     transform="translate(0,-263.13334)"
     id="layer1">
    <g
       transform="matrix(0.26458333,0,0,0.26458333,-319.61666,55.699995)"
       id="mail">
      <g
         id="recycling-2"
         transform="translate(192.157,1215.9494)">
        <path
           d="m 1143.843,-367.94935 c 0,35.346 -28.654,64 -64,64 -35.346,0 -64,-28.654 -64,-64 0,-35.346 28.654,-64 64,-64 35.346,0 64,28.654 64,64"
           id="path4485-9-6-7-1-8"
           style="fill:#9bbe55;fill-opacity:1;stroke-width:0.2" />
      </g>
      <path
         style="opacity:1;vector-effect:none;fill:#000000;fill-opacity:0.2;stroke:none;stroke-width:10;stroke-linecap:round;stroke-linejoin:round;stroke-miterlimit:4;stroke-dasharray:none;stroke-dashoffset:0;stroke-opacity:1;paint-order:stroke fill markers"
         d="m 1236,820 c -2.8503,-2.6e-4 -4.5185,2.72762 -3.8516,5.09375 -0.095,0.4432 -0.1484,0.90249 -0.1484,1.375 v 51.06445 c 0,0.47251 0.053,0.9318 0.1484,1.375 -0.6664,2.36596 1.0016,5.09205 3.8516,5.0918 h 2.4668 67.0664 2.4668 c 2.8507,2.5e-4 4.5195,-2.72733 3.8515,-5.09375 0.095,-0.44265 0.1485,-0.90118 0.1485,-1.37305 v -51.06445 c 0,-0.47187 -0.053,-0.93041 -0.1485,-1.37305 C 1312.52,822.72911 1310.851,819.99974 1308,820 h -2.4668 -67.0664 z"
         id="rect6542-7" />
      <g
         id="g6590">
        <rect
           rx="6.4674001"
           ry="6.4674001"
           y="816"
           x="1232"
           height="64"
           width="80"
           id="rect6542"
           style="opacity:1;vector-effect:none;fill:#dddddd;fill-opacity:1;stroke:none;stroke-width:10;stroke-linecap:round;stroke-linejoin:round;stroke-miterlimit:4;stroke-dasharray:none;stroke-dashoffset:0;stroke-opacity:1;paint-order:stroke fill markers" />
        <path
           id="path6548-1"
           d="m 1236,874 36,-38 36,38"
           style="fill:none;fill-rule:evenodd;stroke:#aaaaaa;stroke-width:8;stroke-linecap:round;stroke-linejoin:round;stroke-miterlimit:4;stroke-dasharray:none;stroke-opacity:1" />
        <path
           style="color:#000000;font-style:normal;font-variant:normal;font-weight:normal;font-stretch:normal;font-size:medium;line-height:normal;font-family:sans-serif;font-variant-ligatures:normal;font-variant-position:normal;font-variant-caps:normal;font-variant-numeric:normal;font-variant-alternates:normal;font-feature-settings:normal;text-indent:0;text-align:start;text-decoration:none;text-decoration-line:none;text-decoration-style:solid;text-decoration-color:#000000;letter-spacing:normal;word-spacing:normal;text-transform:none;writing-mode:lr-tb;direction:ltr;text-orientation:mixed;dominant-baseline:auto;baseline-shift:baseline;text-anchor:start;white-space:normal;shape-padding:0;clip-rule:nonzero;display:inline;overflow:visible;visibility:visible;opacity:1;isolation:auto;mix-blend-mode:normal;color-interpolation:sRGB;color-interpolation-filters:linearRGB;solid-color:#000000;solid-opacity:1;vector-effect:none;fill:#e9e9e9;fill-opacity:1;fill-rule:evenodd;stroke:none;stroke-width:8;stroke-linecap:round;stroke-linejoin:round;stroke-miterlimit:4;stroke-dasharray:none;stroke-dashoffset:0;stroke-opacity:1;color-rendering:auto;image-rendering:auto;shape-rendering:auto;text-rendering:auto;enable-background:accumulate"
           d="m 1236,880 c -3.6785,3.3e-4 -5.4075,-4.54623 -2.6582,-6.99023 l 36,-32 c 1.5158,-1.34785 3.8006,-1.34785 5.3164,0 l 36,32 c 2.7493,2.444 1.0203,6.99056 -2.6582,6.99023 z"
           id="path6544-0" />
        <path
           id="path6548"
           d="m 1236,822 36,38 36,-38"
           style="fill:none;fill-rule:evenodd;stroke:#aaaaaa;stroke-width:8;stroke-linecap:round;stroke-linejoin:round;stroke-miterlimit:4;stroke-dasharray:none;stroke-opacity:1" />
        <path
           style="color:#000000;font-style:normal;font-variant:normal;font-weight:normal;font-stretch:normal;font-size:medium;line-height:normal;font-family:sans-serif;font-variant-ligatures:normal;font-variant-position:normal;font-variant-caps:normal;font-variant-numeric:normal;font-variant-alternates:normal;font-feature-settings:normal;text-indent:0;text-align:start;text-decoration:none;text-decoration-line:none;text-decoration-style:solid;text-decoration-color:#000000;letter-spacing:normal;word-spacing:normal;text-transform:none;writing-mode:lr-tb;direction:ltr;text-orientation:mixed;dominant-baseline:auto;baseline-shift:baseline;text-anchor:start;white-space:normal;shape-padding:0;clip-rule:nonzero;display:inline;overflow:visible;visibility:visible;opacity:1;isolation:auto;mix-blend-mode:normal;color-interpolation:sRGB;color-interpolation-filters:linearRGB;solid-color:#000000;solid-opacity:1;vector-effect:none;fill:#ffffff;fill-opacity:1;fill-rule:evenodd;stroke:none;stroke-width:8;stroke-linecap:round;stroke-linejoin:round;stroke-miterlimit:4;stroke-dasharray:none;stroke-dashoffset:0;stroke-opacity:1;color-rendering:auto;image-rendering:auto;shape-rendering:auto;text-rendering:auto;enable-background:accumulate"
           d="m 1236,816 c -3.6785,-3.3e-4 -5.4075,4.54623 -2.6582,6.99023 l 36,32 c 1.5158,1.34785 3.8006,1.34785 5.3164,0 l 36,-32 c 2.7493,-2.444 1.0203,-6.99056 -2.6582,-6.99023 z"
           id="path6544" />
      </g>
    </g>
  </g>
</svg>
