<?xml version="1.0" encoding="UTF-8" standalone="no"?>
<svg
   xmlns:dc="http://purl.org/dc/elements/1.1/"
   xmlns:cc="http://creativecommons.org/ns#"
   xmlns:rdf="http://www.w3.org/1999/02/22-rdf-syntax-ns#"
   xmlns:svg="http://www.w3.org/2000/svg"
   xmlns="http://www.w3.org/2000/svg"
   id="svg8"
   version="1.1"
   viewBox="0 0 33.866666 33.866666"
   height="128"
   width="128">
  <defs
     id="defs2" />
  <metadata
     id="metadata5">
    <rdf:RDF>
      <cc:Work
         rdf:about="">
        <dc:format>image/svg+xml</dc:format>
        <dc:type
           rdf:resource="http://purl.org/dc/dcmitype/StillImage" />
        <dc:title />
      </cc:Work>
    </rdf:RDF>
  </metadata>
  <g
     transform="translate(0,-263.13334)"
     id="layer1">
    <g
       transform="matrix(0.26458333,0,0,0.26458333,39.15832,225.03339)"
       id="max_weight">
      <path
         style="fill:#ffdd55;fill-opacity:1;stroke-width:0.2"
         id="path4485-9-6"
         d="m -19.99994,207.9998 c 0,35.346 -28.654,64 -64,64 -35.346,0 -64,-28.654 -64,-64 0,-35.346 28.654,-64 64,-64 35.346,0 64,28.654 64,64" />
      <path
         style="fill:#000000;fill-opacity:0.2;stroke:none;stroke-width:4;stroke-miterlimit:4;stroke-dasharray:none;stroke-opacity:1"
         id="path4485-8-4"
         d="m -32,209.9998 c 0,28.71859 -23.28136,51.99994 -51.99994,51.99994 -28.7186,0 -51.99994,-23.28135 -51.99994,-51.99994 0,-28.71859 23.28134,-51.99994 51.99994,-51.99994 28.71858,0 51.99994,23.28135 51.99994,51.99994" />
      <path
         style="fill:#c84747;fill-opacity:1;stroke:#ffffff;stroke-width:3.84615374;stroke-miterlimit:4;stroke-dasharray:none;stroke-opacity:1"
         id="path4485-7"
         d="m -34,205.9998 c 0,27.61403 -22.38592,49.99994 -49.99994,49.99994 -27.61404,0 -49.99994,-22.38591 -49.99994,-49.99994 0,-27.61403 22.3859,-49.99994 49.99994,-49.99994 27.61402,0 49.99994,22.38591 49.99994,49.99994" />
      <circle
         r="35.755939"
         cy="206.00064"
         cx="-84.014732"
         id="path5201-2-9"
         style="opacity:1;vector-effect:none;fill:#ffffff;fill-opacity:1;stroke:none;stroke-width:9.62659836;stroke-linecap:butt;stroke-linejoin:miter;stroke-miterlimit:4;stroke-dasharray:none;stroke-dashoffset:0;stroke-opacity:1" />
      <path
         id="path6769"
         d="m -84.01758,179.99023 a 8,8 0 0 0 -8,8 A 8,8 0 0 0 -90.93164,192 H -96 l -12,32 h 48 l -12,-32 h -5.10742 a 8,8 0 0 0 1.08984,-4.00977 8,8 0 0 0 -8,-8 z m 0.02148,4.01368 A 3.9971912,3.9973638 0 0 1 -80,188 3.9971912,3.9973638 0 0 1 -83.9961,191.99805 3.9971912,3.9973638 0 0 1 -87.99414,188 a 3.9971912,3.9973638 0 0 1 3.99804,-3.99609 z"
         style="fill:#444444;fill-opacity:1;fill-rule:evenodd;stroke:none;stroke-width:1px;stroke-linecap:butt;stroke-linejoin:miter;stroke-opacity:1" />
      <g
         id="text6800"
         style="font-style:normal;font-weight:normal;font-size:26.66666794px;line-height:125px;font-family:sans-serif;letter-spacing:0px;word-spacing:0px;fill:#000000;fill-opacity:1;stroke:none;stroke-width:5px;stroke-linecap:butt;stroke-linejoin:miter;stroke-opacity:1"
         transform="matrix(0.2,0,0,0.2,-247.0603,281.64417)"
         aria-label="t">
        <g
           id="text6807"
           style="font-style:normal;font-weight:normal;font-size:26.66666794px;line-height:125px;font-family:sans-serif;letter-spacing:0px;word-spacing:0px;fill:#000000;fill-opacity:1;stroke:none;stroke-width:5px;stroke-linecap:butt;stroke-linejoin:miter;stroke-opacity:1"
           aria-label="t">
          <path
             id="path6164"
             style="font-style:normal;font-variant:normal;font-weight:bold;font-stretch:normal;font-size:146.66667175px;font-family:sans-serif;-inkscape-font-specification:'sans-serif Bold';fill:#ffffff;fill-opacity:1;stroke-width:5px"
             d="m 820.3015,-418.22085 v 20 h 25 v 20 h -25 l -0.13722,29.97572 c -0.017,3.72393 0.50402,6.48086 1.98405,7.81767 1.48004,1.28906 3.8791,2.3628 8.27119,2.31474 l 9.88198,-0.10813 v 20 l -19.92162,-0.2556 c -10.1207,-0.12984 -15.82925,-0.54301 -20.07838,-4.7444 -4.20139,-4.24913 -4.95615,-14.78902 -4.96719,-24.91054 l -0.0328,-30.08946 h -15 v -20 h 15 v -20 z" />
        </g>
      </g>
    </g>
  </g>
</svg>
