<?xml version="1.0" encoding="UTF-8" standalone="no"?>
<svg
   xmlns:dc="http://purl.org/dc/elements/1.1/"
   xmlns:cc="http://creativecommons.org/ns#"
   xmlns:rdf="http://www.w3.org/1999/02/22-rdf-syntax-ns#"
   xmlns:svg="http://www.w3.org/2000/svg"
   xmlns="http://www.w3.org/2000/svg"
   id="svg8"
   version="1.1"
   viewBox="0 0 33.866666 33.866666"
   height="128"
   width="128">
  <defs
     id="defs2" />
  <metadata
     id="metadata5">
    <rdf:RDF>
      <cc:Work
         rdf:about="">
        <dc:format>image/svg+xml</dc:format>
        <dc:type
           rdf:resource="http://purl.org/dc/dcmitype/StillImage" />
        <dc:title />
      </cc:Work>
    </rdf:RDF>
  </metadata>
  <g
     transform="translate(0,-263.13334)"
     id="layer1">
    <g
       transform="matrix(0.26458333,0,0,0.26458333,114.29069,225.006)"
       id="max_height">
      <path
         style="fill:#ffdd55;fill-opacity:1;stroke-width:0.2"
         id="path4485-9-9"
         d="m -303.9648,208.10331 c 0,35.346 -28.654,64 -64,64 -35.346,0 -64,-28.654 -64,-64 0,-35.346 28.654,-64 64,-64 35.346,0 64,28.654 64,64" />
      <path
         style="fill:#000000;fill-opacity:0.2;stroke:none;stroke-width:4;stroke-miterlimit:4;stroke-dasharray:none;stroke-opacity:1"
         id="path4485-8-9"
         d="m -315.96486,210.10331 c 0,28.71859 -23.28136,51.99994 -51.99994,51.99994 -28.7186,0 -51.99994,-23.28135 -51.99994,-51.99994 0,-28.71859 23.28134,-51.99994 51.99994,-51.99994 28.71858,0 51.99994,23.28135 51.99994,51.99994" />
      <path
         style="fill:#c84747;fill-opacity:1;stroke:#ffffff;stroke-width:3.84615374;stroke-miterlimit:4;stroke-dasharray:none;stroke-opacity:1"
         id="path4485-65"
         d="m -317.96486,206.10331 c 0,27.61403 -22.38592,49.99994 -49.99994,49.99994 -27.61404,0 -49.99994,-22.38591 -49.99994,-49.99994 0,-27.61403 22.3859,-49.99994 49.99994,-49.99994 27.61402,0 49.99994,22.38591 49.99994,49.99994" />
      <circle
         r="35.755939"
         cy="206.10416"
         cx="-367.97958"
         id="path5201-2"
         style="opacity:1;vector-effect:none;fill:#444444;fill-opacity:1;stroke:none;stroke-width:9.62659836;stroke-linecap:butt;stroke-linejoin:miter;stroke-miterlimit:4;stroke-dasharray:none;stroke-dashoffset:0;stroke-opacity:1" />
      <path
         id="path5201-3"
         d="m -352.00002,238.08203 c 12.12266,-6.04921 19.7852,-18.43039 19.79102,-31.97852 -0.006,-13.54813 -7.66836,-25.92931 -19.79102,-31.97852 l -15.96484,13.97852 -15.9375,-13.96094 c -12.12764,6.03873 -19.8007,18.41305 -19.81836,31.96094 0.0176,13.54789 7.69072,25.92221 19.81836,31.96094 l 15.9375,-13.96094 z"
         style="opacity:1;vector-effect:none;fill:#ffffff;fill-opacity:1;stroke:none;stroke-width:9.62659836;stroke-linecap:butt;stroke-linejoin:miter;stroke-miterlimit:4;stroke-dasharray:none;stroke-dashoffset:0;stroke-opacity:1" />
      <path
         id="path6554"
         d="m -377.96356,192.10351 c -4.0013,2 -5.0013,12 -5.0013,12 -2.12064,0.55846 -5.03952,2.29984 -5.04038,4.07812 l 0.0391,3.92188 c 0.002,2 1.0013,3 4.0013,3 v 5 c 0,0 -0.27444,1.94727 1,2 h 5 c 1.25032,0 1,-2 1,-2 v -4 h 18 v 4 c 0,0 -0.24382,2 1.00652,2 h 5.0013 c 1.25032,0 0.99218,-2 0.99218,-2 v -5 c 3,0 4,-1 4.00914,-3 v -4 c -0.54462,-1.8708 -3.25866,-3.43838 -5.0013,-4 0,0 -1.00784,-10 -5.00132,-12 z m 17.50456,4 c 2.50066,3 2.50066,8 2.50066,8 h -20.00522 c 0,0 0,-5 2.50066,-8 z"
         style="fill:#444444;fill-opacity:1;fill-rule:nonzero;stroke:none;stroke-width:0.08235635" />
    </g>
  </g>
</svg>
