<?xml version="1.0" encoding="UTF-8" standalone="no"?>
<svg
   xmlns:dc="http://purl.org/dc/elements/1.1/"
   xmlns:cc="http://creativecommons.org/ns#"
   xmlns:rdf="http://www.w3.org/1999/02/22-rdf-syntax-ns#"
   xmlns:svg="http://www.w3.org/2000/svg"
   xmlns="http://www.w3.org/2000/svg"
   id="svg8"
   version="1.1"
   viewBox="0 0 33.866666 33.866666"
   height="128"
   width="128">
  <defs
     id="defs2" />
  <metadata
     id="metadata5">
    <rdf:RDF>
      <cc:Work
         rdf:about="">
        <dc:format>image/svg+xml</dc:format>
        <dc:type
           rdf:resource="http://purl.org/dc/dcmitype/StillImage" />
        <dc:title />
      </cc:Work>
    </rdf:RDF>
  </metadata>
  <g
     transform="translate(0,-263.13334)"
     id="layer1">
    <g
       id="max_speed"
       transform="matrix(0.05291667,0,0,-0.05291667,73.848035,264.67295)">
      <path
         style="fill:#ffdd55;fill-opacity:1;stroke-width:1"
         id="path4485-9"
         d="m -755.55332,-290.90497 c 0,-176.73 -143.27,-320 -319.99998,-320 -176.73,0 -320,143.27 -320,320 0,176.73 143.27,319.999999 320,319.999999 176.72998,0 319.99998,-143.269999 319.99998,-319.999999" />
      <path
         style="fill:#000000;fill-opacity:0.2;stroke:none;stroke-width:20;stroke-miterlimit:4;stroke-dasharray:none;stroke-opacity:1"
         id="path4485-8"
         d="m -815.55362,-300.90497 c 0,-143.59296 -116.40675,-259.99971 -259.99968,-259.99971 -143.593,0 -259.9997,116.40675 -259.9997,259.99971 0,143.59297 116.4067,259.999709 259.9997,259.999709 143.59293,0 259.99968,-116.406739 259.99968,-259.999709" />
      <path
         style="fill:#c84747;fill-opacity:1;stroke:#ffffff;stroke-width:19.2307682;stroke-miterlimit:4;stroke-dasharray:none;stroke-opacity:1"
         id="path4485"
         d="m -825.55362,-280.90497 c 0,-138.07015 -111.92955,-249.9997 -249.99968,-249.9997 -138.0701,0 -249.9997,111.92955 -249.9997,249.9997 0,138.07015 111.9296,249.999699 249.9997,249.999699 138.07013,0 249.99968,-111.929549 249.99968,-249.999699" />
      <circle
         transform="scale(1,-1)"
         r="178.77969"
         cy="280.90579"
         cx="-1075.5536"
         id="path5201"
         style="opacity:1;vector-effect:none;fill:#ffffff;fill-opacity:1;stroke:none;stroke-width:48.13299179;stroke-linecap:butt;stroke-linejoin:miter;stroke-miterlimit:4;stroke-dasharray:none;stroke-dashoffset:0;stroke-opacity:1" />
      <path
         d="m -1191.5689,329.18857 a 125.04646,125.04646 0 0 1 43.917,-142.95774 125.04646,125.04646 0 0 1 149.54495,1.37878 125.04646,125.04646 0 0 1 41.27359,143.74317"
         transform="scale(1,-1)"
         id="path4918"
         style="opacity:1;vector-effect:none;fill:none;fill-opacity:1;stroke:#444444;stroke-width:40;stroke-linecap:butt;stroke-linejoin:miter;stroke-miterlimit:4;stroke-dasharray:none;stroke-dashoffset:0;stroke-opacity:1;paint-order:normal" />
      <path
         style="opacity:1;vector-effect:none;fill:#444444;fill-opacity:1;stroke:none;stroke-width:40;stroke-linecap:round;stroke-linejoin:round;stroke-miterlimit:4;stroke-dasharray:none;stroke-dashoffset:0;stroke-opacity:1;paint-order:stroke fill markers"
         d="m -939.23845,-200.96502 -123.92095,-50.94548 c -11.2678,4.33904 -23.8926,3.35614 -34.3531,-2.67454 -19.1288,-11.04404 -25.6814,-35.50523 -14.6394,-54.63524 11.0458,-19.12777 35.5052,-25.68138 54.6352,-14.63943 10.4434,6.04336 17.6008,16.47802 19.4782,28.397 l 106.30005,81.50731 z"
         id="path4914" />
      <path
         id="path7521"
         d="m -1063.1594,-251.91055 123.9209,50.9455 -26.5362,10.8413 -87.5681,-36.2002 z"
         style="fill:#ffffff;fill-opacity:1;stroke:none;stroke-width:5px;stroke-linecap:butt;stroke-linejoin:miter;stroke-opacity:1" />
      <path
         id="path7523"
         d="m -931.7385,-213.95545 -106.3,-81.5073 34.0412,2.40095 78.4675,57.435 z"
         style="fill:#ffffff;fill-opacity:1;stroke:none;stroke-width:5px;stroke-linecap:butt;stroke-linejoin:miter;stroke-opacity:1" />
    </g>
  </g>
</svg>
