<?xml version="1.0" encoding="UTF-8" standalone="no"?>
<svg
   xmlns:dc="http://purl.org/dc/elements/1.1/"
   xmlns:cc="http://creativecommons.org/ns#"
   xmlns:rdf="http://www.w3.org/1999/02/22-rdf-syntax-ns#"
   xmlns:svg="http://www.w3.org/2000/svg"
   xmlns="http://www.w3.org/2000/svg"
   id="svg8"
   version="1.1"
   viewBox="0 0 33.866666 33.866666"
   height="128"
   width="128">
  <defs
     id="defs2" />
  <metadata
     id="metadata5">
    <rdf:RDF>
      <cc:Work
         rdf:about="">
        <dc:format>image/svg+xml</dc:format>
        <dc:type
           rdf:resource="http://purl.org/dc/dcmitype/StillImage" />
        <dc:title />
      </cc:Work>
    </rdf:RDF>
  </metadata>
  <g
     transform="translate(0,-263.13334)"
     id="layer1">
    <g
       transform="matrix(0.26458333,0,0,0.26458333,152.39998,225.03339)"
       id="max_width">
      <path
         style="fill:#ffdd55;fill-opacity:1;stroke-width:0.2"
         id="path4485-9-65"
         d="m -447.99994,207.9998 c 0,35.346 -28.654,64 -64,64 -35.346,0 -64,-28.654 -64,-64 0,-35.346 28.654,-64 64,-64 35.346,0 64,28.654 64,64" />
      <path
         style="fill:#000000;fill-opacity:0.2;stroke:none;stroke-width:4;stroke-miterlimit:4;stroke-dasharray:none;stroke-opacity:1"
         id="path4485-8-2"
         d="m -460,209.9998 c 0,28.71859 -23.28136,51.99994 -51.99994,51.99994 -28.7186,0 -51.99994,-23.28135 -51.99994,-51.99994 0,-28.71859 23.28134,-51.99994 51.99994,-51.99994 28.71858,0 51.99994,23.28135 51.99994,51.99994" />
      <path
         style="fill:#c84747;fill-opacity:1;stroke:#ffffff;stroke-width:3.84615374;stroke-miterlimit:4;stroke-dasharray:none;stroke-opacity:1"
         id="path4485-74"
         d="m -462,205.9998 c 0,27.61403 -22.38592,49.99994 -49.99994,49.99994 -27.61404,0 -49.99994,-22.38591 -49.99994,-49.99994 0,-27.61403 22.3859,-49.99994 49.99994,-49.99994 27.61402,0 49.99994,22.38591 49.99994,49.99994" />
      <circle
         r="35.755939"
         cy="206.00064"
         cx="-512.01471"
         id="path5201-2-1"
         style="opacity:1;vector-effect:none;fill:#444444;fill-opacity:1;stroke:none;stroke-width:9.62659836;stroke-linecap:butt;stroke-linejoin:miter;stroke-miterlimit:4;stroke-dasharray:none;stroke-dashoffset:0;stroke-opacity:1" />
      <path
         id="path5201-1"
         d="m -543.97852,221.96484 c 6.0492,12.12267 18.43038,19.7852 31.97852,19.79102 13.54814,-0.006 25.92932,-7.66835 31.97852,-19.79102 L -494,206 -480.03906,190.0625 C -486.0778,177.93487 -498.45212,170.26179 -512,170.24414 c -13.5479,0.0177 -25.92222,7.69073 -31.96094,19.81836 L -530,206 Z"
         style="opacity:1;vector-effect:none;fill:#ffffff;fill-opacity:1;stroke:none;stroke-width:9.62659836;stroke-linecap:butt;stroke-linejoin:miter;stroke-miterlimit:4;stroke-dasharray:none;stroke-dashoffset:0;stroke-opacity:1" />
      <path
         id="path6554-7"
         d="m -520,190 c -3.2002,2 -4,14 -4,14 -1.69608,0.55846 -4.03058,2.29984 -4.03126,4.07812 L -528,214 c 0.002,2 0.60062,3 3,3 v 5 c 0,0 -0.0192,1.94727 1,2 h 3.99896 c 1,0 1.00104,-2 1.00104,-2 v -4 h 14 v 4 c 0,0 0,2 1,2 h 4 c 1,0 1,-2 1,-2 v -5 c 2.39938,0 2.9927,-1 3,-3 v -6 c -0.43556,-1.8708 -2.60624,-3.43838 -4,-4 0,0 -0.80604,-12 -4,-14 z m 14,4 c 2,3 2,10 2,10 h -16 c 0,0 0,-7 2,-10 z"
         style="fill:#444444;fill-opacity:1;fill-rule:nonzero;stroke:none;stroke-width:0.07365216" />
    </g>
  </g>
</svg>
