<?xml version="1.0" encoding="UTF-8" standalone="no"?>
<svg
   xmlns:dc="http://purl.org/dc/elements/1.1/"
   xmlns:cc="http://creativecommons.org/ns#"
   xmlns:rdf="http://www.w3.org/1999/02/22-rdf-syntax-ns#"
   xmlns:svg="http://www.w3.org/2000/svg"
   xmlns="http://www.w3.org/2000/svg"
   id="svg8"
   version="1.1"
   viewBox="0 0 33.866666 33.866666"
   height="128"
   width="128">
  <defs
     id="defs2" />
  <metadata
     id="metadata5">
    <rdf:RDF>
      <cc:Work
         rdf:about="">
        <dc:format>image/svg+xml</dc:format>
        <dc:type
           rdf:resource="http://purl.org/dc/dcmitype/StillImage" />
        <dc:title />
      </cc:Work>
    </rdf:RDF>
  </metadata>
  <g
     transform="translate(0,-263.13334)"
     id="layer1">
    <g
       id="oneway"
       transform="matrix(0.22913589,0.13229167,-0.13229167,0.22913589,109.72477,314.08255)">
      <path
         style="fill:#ffdd55;fill-opacity:1;stroke-width:0.2"
         id="path4485-6-6-3-4"
         d="m -303.99992,63.999782 c 0,35.346 -28.654,63.999998 -64.00002,63.999998 -35.346,0 -64,-28.653998 -64,-63.999998 0,-35.346 28.654,-64 64,-64 35.34602,0 64.00002,28.654 64.00002,64" />
      <path
         style="fill:#000000;fill-opacity:0.2;stroke:none;stroke-width:4;stroke-miterlimit:4;stroke-dasharray:none;stroke-opacity:1"
         id="path4485-8-0"
         d="m -321.94848,39.617118 c 14.3593,24.871033 5.83773,56.673953 -19.03329,71.033252 -24.87104,14.3593 -56.67395,5.83772 -71.03325,-19.033309 -14.35929,-24.871032 -5.83773,-56.673943 19.0333,-71.033243 24.87103,-14.3592915 56.67395,-5.83773 71.03324,19.0333" />
      <path
         style="fill:#c84747;fill-opacity:1;stroke:#ffffff;stroke-width:3.84615374;stroke-miterlimit:4;stroke-dasharray:none;stroke-opacity:1"
         id="path4485-6"
         d="m -325.68053,37.153018 c 13.80702,23.914453 5.6132,54.494179 -18.30124,68.301192 -23.91445,13.80701 -54.49418,5.6132 -68.30119,-18.30125 -13.80702,-23.914452 -5.6132,-54.494182 18.30124,-68.301192 23.91445,-13.8070111 54.49418,-5.6132 68.30119,18.30125" />
      <rect
         transform="rotate(-30)"
         y="-140.61526"
         x="-390.67365"
         height="20.000006"
         width="80"
         id="rect8157"
         style="opacity:1;vector-effect:none;fill:#ffffff;fill-opacity:1;stroke:none;stroke-width:14.605937;stroke-linecap:butt;stroke-linejoin:round;stroke-miterlimit:4;stroke-dasharray:none;stroke-dashoffset:0;stroke-opacity:1;paint-order:normal" />
    </g>
  </g>
</svg>
