<?xml version="1.0" encoding="UTF-8" standalone="no"?>
<svg
   xmlns:dc="http://purl.org/dc/elements/1.1/"
   xmlns:cc="http://creativecommons.org/ns#"
   xmlns:rdf="http://www.w3.org/1999/02/22-rdf-syntax-ns#"
   xmlns:svg="http://www.w3.org/2000/svg"
   xmlns="http://www.w3.org/2000/svg"
   id="svg8"
   version="1.1"
   viewBox="0 0 33.866666 33.866666"
   height="128"
   width="128">
  <defs
     id="defs2" />
  <metadata
     id="metadata5">
    <rdf:RDF>
      <cc:Work
         rdf:about="">
        <dc:format>image/svg+xml</dc:format>
        <dc:type
           rdf:resource="http://purl.org/dc/dcmitype/StillImage" />
        <dc:title />
      </cc:Work>
    </rdf:RDF>
  </metadata>
  <g
     transform="translate(0,-263.13334)"
     id="layer1">
    <g
       id="pedestrian_segregated"
       transform="matrix(0.26458333,0,0,0.26458333,189.70623,301.23339)">
      <path
         style="fill:#529add;fill-opacity:1;stroke-width:0.2"
         id="path4485-6-00-40-2"
         d="m -588.99992,-80.000218 c 0,35.346 -28.654,63.999998 -64.00002,63.999998 -35.346,0 -64,-28.653998 -64,-63.999998 0,-35.346002 28.654,-64.000002 64,-64.000002 35.34602,0 64.00002,28.654 64.00002,64.000002" />
      <g
         id="g5816-9-4-1"
         transform="matrix(0.21649908,0,0,-0.21649908,-722.9574,-5.7825469)"
         style="fill:#000000;fill-opacity:0.2;stroke:none;stroke-width:37.48579407;stroke-miterlimit:4;stroke-dasharray:none;stroke-opacity:1;paint-order:stroke fill markers" />
      <g
         id="g5816-9-8-5"
         transform="matrix(0.16661176,0,0,-0.16661176,-662.21008,-35.53125)"
         style="fill:#ffffff;fill-opacity:1;stroke:none;stroke-width:37.48579407;stroke-miterlimit:4;stroke-dasharray:none;stroke-opacity:1;paint-order:stroke fill markers">
        <path
           style="fill:#000000;fill-opacity:0.2;fill-rule:nonzero;stroke:none;stroke-width:29.58363152;stroke-miterlimit:4;stroke-dasharray:none;stroke-opacity:1;paint-order:stroke fill markers"
           d="m 78.333792,603.01249 c -21.97043,0 -39.78921,-17.81486 -39.78921,-39.78922 0,-21.97437 17.81878,-39.782 39.78921,-39.782 21.974368,0 39.789228,17.80763 39.789228,39.782 0,21.97436 -17.81486,39.78922 -39.789228,39.78922 z m -41.62376,-94.04528 c -40.2565899,-15.05634 -71.29829,-40.63881 -71.64805,-83.19697 0,-10.89484 8.83007,-19.71765 19.7249,-19.71765 10.8972201,0 19.7297201,8.82359 19.7321001,19.71765 0.32704,10.87687 4.93853,20.11065 11.6789099,27.48916 0.21174,-9.69051 1.75791,-20.56928 5.09193,-32.63887 -2.05323,-3.41822 -2.91063,-8.56273 -2.10178,-16.08469 -6.96093,-40.05734 -51.12375,-66.11992 -79.5929,-79.05119 -9.95806,-4.42423 -14.44842,-16.08737 -10.02496,-26.04465 4.42742,-9.95728 16.08737,-14.4492 26.04465,-10.02495 37.7796701,19.67595 85.8309,51.41286 99.66448,93.08469 31.38357,-14.63074 60.752448,-47.50049 66.043318,-77.83781 1.53813,-10.78673 11.53828,-18.27289 22.32501,-16.73471 10.78672,1.54127 18.28325,11.52381 16.74195,22.31055 -8.18251,48.68717 -41.80005,84.71467 -83.731428,105.82533 -12.14593,5.21761 -13.10733,33.56847 -12.42285,43.79053 36.789458,-20.88494 74.505098,-30.21071 111.827288,-11.8956 9.74734,4.8709 13.68969,16.72577 8.81878,26.47077 -4.87408,9.74421 -16.71135,13.69286 -26.45633,8.81877 -43.86993,-21.68835 -71.191848,11.52411 -94.276408,24.96849 -8.25721,5.78449 -19.23342,5.80184 -27.43861,0.75115 z"
           id="path5832-9-4-3" />
      </g>
      <g
         id="g5816-9-8"
         transform="matrix(0.16661176,0,0,-0.16661176,-706.42103,-40.552775)"
         style="fill:#ffffff;fill-opacity:1;stroke:none;stroke-width:37.48579407;stroke-miterlimit:4;stroke-dasharray:none;stroke-opacity:1;paint-order:stroke fill markers">
        <path
           style="fill:#ffffff;fill-opacity:1;fill-rule:nonzero;stroke:none;stroke-width:29.58363152;stroke-miterlimit:4;stroke-dasharray:none;stroke-opacity:1;paint-order:stroke fill markers"
           d="m 343.68691,596.88131 c -21.97043,0 -39.78921,-17.81486 -39.78921,-39.78922 0,-21.97437 17.81878,-39.782 39.78921,-39.782 21.97437,0 39.78923,17.80763 39.78923,39.782 0,21.97436 -17.81486,39.78922 -39.78923,39.78922 z m -41.62376,-94.04528 c -40.25659,-15.05634 -71.29829,-40.63881 -71.64805,-83.19697 0,-10.89484 8.83007,-19.71765 19.7249,-19.71765 10.89722,0 19.72972,8.82359 19.7321,19.71765 0.32704,10.87687 4.93853,20.11065 11.67891,27.48916 0.21174,-9.69051 1.75791,-20.56928 5.09193,-32.63887 -2.05323,-3.41822 -2.91063,-8.56273 -2.10178,-16.08469 -6.96093,-40.05734 -51.12375,-66.11992 -79.5929,-79.05119 -9.95806,-4.42423 -14.44842,-16.08737 -10.02496,-26.04465 4.42742,-9.95728 16.08737,-14.4492 26.04465,-10.02495 37.77967,19.67595 85.8309,51.41286 99.66448,93.08469 31.38357,-14.63074 60.75245,-47.50049 66.04332,-77.83781 1.53813,-10.78673 11.53828,-18.27289 22.32501,-16.73471 10.78672,1.54127 18.28325,11.52381 16.74195,22.31055 -8.18251,48.68717 -41.80005,84.71467 -83.73143,105.82533 -12.14593,5.21761 -13.10733,33.56847 -12.42285,43.79053 36.78946,-20.88494 74.5051,-30.21071 111.82729,-11.8956 9.74734,4.8709 13.68969,16.72577 8.81878,26.47077 -4.87408,9.74421 -16.71135,13.69286 -26.45633,8.81877 -43.86993,-21.68835 -71.19185,11.52411 -94.27641,24.96849 -8.25721,5.78449 -19.23342,5.80184 -27.43861,0.75115 z"
           id="path5832-9-4" />
      </g>
      <g
         id="g5816-4-7-2"
         transform="matrix(0.21649908,0,0,-0.21649908,-674.94076,-62.492952)"
         style="fill:#ffffff;fill-opacity:1;stroke:none;stroke-width:37.48579407;stroke-miterlimit:4;stroke-dasharray:none;stroke-opacity:1;paint-order:stroke fill markers" />
      <g
         style="stroke:#000000;stroke-width:3.76989317;stroke-miterlimit:4;stroke-dasharray:none;stroke-opacity:0.2"
         transform="matrix(1.061038,0,0,1.061038,-443.81569,-489.88033)"
         id="g8426-9-8-9-4">
        <path
           style="fill:none;fill-rule:evenodd;stroke:#000000;stroke-width:3.76989317;stroke-linecap:round;stroke-linejoin:round;stroke-miterlimit:4;stroke-dasharray:none;stroke-opacity:0.2"
           d="m -216,424 8.33469,-24.81496 h 8"
           id="path8159-5-0-4-8" />
        <path
           style="fill:none;fill-rule:evenodd;stroke:#000000;stroke-width:3.76989317;stroke-linecap:round;stroke-linejoin:round;stroke-miterlimit:4;stroke-dasharray:none;stroke-opacity:0.2"
           d="m -196,424 5,-21"
           id="path8163-8-7-4-4" />
        <path
           style="fill:none;fill-rule:evenodd;stroke:#000000;stroke-width:3.76989317;stroke-linecap:round;stroke-linejoin:round;stroke-miterlimit:4;stroke-dasharray:none;stroke-opacity:0.2"
           d="m -191,403 4.87372,-0.01"
           id="path8165-1-9-6-9" />
        <path
           style="fill:none;fill-rule:evenodd;stroke:#000000;stroke-width:3.76989317;stroke-linecap:round;stroke-linejoin:round;stroke-miterlimit:4;stroke-dasharray:none;stroke-opacity:0.2"
           d="m -210,407 14,17 h 16 l -11,-17 h -19"
           id="path8167-2-2-0-7" />
        <circle
           style="opacity:1;vector-effect:none;fill:none;fill-opacity:1;stroke:#000000;stroke-width:3.76989317;stroke-linecap:round;stroke-linejoin:round;stroke-miterlimit:4;stroke-dasharray:none;stroke-dashoffset:0;stroke-opacity:0.2;paint-order:normal"
           id="path8169-5-3-9-3"
           cx="-180.06062"
           cy="424.06064"
           r="11.076923" />
        <circle
           style="opacity:1;vector-effect:none;fill:none;fill-opacity:1;stroke:#000000;stroke-width:3.76989317;stroke-linecap:round;stroke-linejoin:round;stroke-miterlimit:4;stroke-dasharray:none;stroke-dashoffset:0;stroke-opacity:0.2;paint-order:normal"
           id="path8169-4-2-9-4-8"
           cx="-216.1581"
           cy="424.06265"
           r="11.076923" />
      </g>
      <g
         style="stroke:#ffffff;stroke-width:3.76989317;stroke-miterlimit:4;stroke-dasharray:none;stroke-opacity:1"
         transform="matrix(1.061038,0,0,1.061038,-443.81569,-493.88033)"
         id="g8426-9-8-9">
        <path
           style="fill:none;fill-rule:evenodd;stroke:#ffffff;stroke-width:3.76989317;stroke-linecap:round;stroke-linejoin:round;stroke-miterlimit:4;stroke-dasharray:none;stroke-opacity:1"
           d="m -216,424 8.33469,-24.81496 h 8"
           id="path8159-5-0-4" />
        <path
           style="fill:none;fill-rule:evenodd;stroke:#ffffff;stroke-width:3.76989317;stroke-linecap:round;stroke-linejoin:round;stroke-miterlimit:4;stroke-dasharray:none;stroke-opacity:1"
           d="m -196,424 5,-21"
           id="path8163-8-7-4" />
        <path
           style="fill:none;fill-rule:evenodd;stroke:#ffffff;stroke-width:3.76989317;stroke-linecap:round;stroke-linejoin:round;stroke-miterlimit:4;stroke-dasharray:none;stroke-opacity:1"
           d="m -191,403 4.87372,-0.01"
           id="path8165-1-9-6" />
        <path
           style="fill:none;fill-rule:evenodd;stroke:#ffffff;stroke-width:3.76989317;stroke-linecap:round;stroke-linejoin:round;stroke-miterlimit:4;stroke-dasharray:none;stroke-opacity:1"
           d="m -210,407 14,17 h 16 l -11,-17 h -19"
           id="path8167-2-2-0" />
        <circle
           style="opacity:1;vector-effect:none;fill:none;fill-opacity:1;stroke:#ffffff;stroke-width:3.76989317;stroke-linecap:round;stroke-linejoin:round;stroke-miterlimit:4;stroke-dasharray:none;stroke-dashoffset:0;stroke-opacity:1;paint-order:normal"
           id="path8169-5-3-9"
           cx="-180.06062"
           cy="424.06064"
           r="11.076923" />
        <circle
           style="opacity:1;vector-effect:none;fill:none;fill-opacity:1;stroke:#ffffff;stroke-width:3.76989317;stroke-linecap:round;stroke-linejoin:round;stroke-miterlimit:4;stroke-dasharray:none;stroke-dashoffset:0;stroke-opacity:1;paint-order:normal"
           id="path8169-4-2-9-4"
           cx="-216.1581"
           cy="424.06265"
           r="11.076923" />
      </g>
      <path
         id="path6559"
         d="m -708.9999,-80.00022 h 112"
         style="fill:none;stroke:#ffffff;stroke-width:4;stroke-linecap:round;stroke-linejoin:miter;stroke-miterlimit:4;stroke-dasharray:none;stroke-opacity:1" />
      <path
         id="path6559-8"
         d="m -708.9999,-76.00022 h 112"
         style="fill:none;stroke:#000000;stroke-width:4;stroke-linecap:round;stroke-linejoin:miter;stroke-miterlimit:4;stroke-dasharray:none;stroke-opacity:0.2" />
    </g>
  </g>
</svg>
