<?xml version="1.0" encoding="UTF-8" standalone="no"?>
<svg
   xmlns:dc="http://purl.org/dc/elements/1.1/"
   xmlns:cc="http://creativecommons.org/ns#"
   xmlns:rdf="http://www.w3.org/1999/02/22-rdf-syntax-ns#"
   xmlns:svg="http://www.w3.org/2000/svg"
   xmlns="http://www.w3.org/2000/svg"
   id="svg8"
   version="1.1"
   viewBox="0 0 33.866666 33.866666"
   height="128"
   width="128">
  <defs
     id="defs2" />
  <metadata
     id="metadata5">
    <rdf:RDF>
      <cc:Work
         rdf:about="">
        <dc:format>image/svg+xml</dc:format>
        <dc:type
           rdf:resource="http://purl.org/dc/dcmitype/StillImage" />
        <dc:title />
      </cc:Work>
    </rdf:RDF>
  </metadata>
  <g
     transform="translate(0,-263.13334)"
     id="layer1">
    <g
       id="power"
       transform="matrix(0.05291667,0,0,-0.05291667,-2.3519872,302.773)"
       style="stroke-width:2.6810267">
      <path
         id="path2-7-2"
         d="m 684.447,429.096 c 0,-176.73 -143.27,-320 -320,-320 -176.73,0 -320,143.27 -320,320 0,176.73 143.27,320 320,320 176.73,0 320,-143.27 320,-320"
         style="fill:#aaaaaa;fill-opacity:1" />
      <path
         id="path5480-1"
         d="m 484.54696,659.12692 c -0.695,0 -1.3888,-0.059 -2.0703,-0.1955 l -200,-40 c -3.5194,-0.7022 -6.3928,-3.2364 -7.5293,-6.6406 l -80,-240 c -2.4297,-7.2876 3.9232,-14.48 11.4551,-12.9687 l 85.5566,17.1093 -37.3632,-205.51752 c -1.78,-9.8108 10.3214,-15.89938 17.1386,-8.62305 l 300,319.99997 c 6.6408,7.0984 0.275,18.5403 -9.2578,16.6406 l -177.832,-35.5664 108.3691,180.6153 c 3.9752,6.6243 -0.7417,15.0625 -8.4668,15.1464 z"
         style="color:#000000;font-style:normal;font-variant:normal;font-weight:normal;font-stretch:normal;font-size:medium;line-height:normal;font-family:sans-serif;font-variant-ligatures:normal;font-variant-position:normal;font-variant-caps:normal;font-variant-numeric:normal;font-variant-alternates:normal;font-feature-settings:normal;text-indent:0;text-align:start;text-decoration:none;text-decoration-line:none;text-decoration-style:solid;text-decoration-color:#000000;letter-spacing:normal;word-spacing:normal;text-transform:none;writing-mode:lr-tb;direction:ltr;text-orientation:mixed;dominant-baseline:auto;baseline-shift:baseline;text-anchor:start;white-space:normal;shape-padding:0;clip-rule:nonzero;display:inline;overflow:visible;visibility:visible;opacity:1;isolation:auto;mix-blend-mode:normal;color-interpolation:sRGB;color-interpolation-filters:linearRGB;solid-color:#000000;solid-opacity:1;vector-effect:none;fill:#000000;fill-opacity:0.2;fill-rule:nonzero;stroke:none;stroke-width:20;stroke-linecap:butt;stroke-linejoin:round;stroke-miterlimit:4;stroke-dasharray:none;stroke-dashoffset:0;stroke-opacity:1;paint-order:markers fill stroke;color-rendering:auto;image-rendering:auto;shape-rendering:auto;text-rendering:auto;enable-background:accumulate" />
      <path
         id="path5480"
         d="m 284.447,629.096 -79.99996,-240 100.00001,20 -40,-220 299.99995,320 -200,-40 120,200 z"
         style="fill:#ffdd55;fill-opacity:1;stroke:#fac800;stroke-width:20;stroke-linecap:butt;stroke-linejoin:round;stroke-miterlimit:4;stroke-dasharray:none;stroke-opacity:1;paint-order:markers fill stroke" />
    </g>
  </g>
</svg>
