<?xml version="1.0" encoding="UTF-8" standalone="no"?>
<svg
   xmlns:dc="http://purl.org/dc/elements/1.1/"
   xmlns:cc="http://creativecommons.org/ns#"
   xmlns:rdf="http://www.w3.org/1999/02/22-rdf-syntax-ns#"
   xmlns:svg="http://www.w3.org/2000/svg"
   xmlns="http://www.w3.org/2000/svg"
   id="svg8"
   version="1.1"
   viewBox="0 0 33.866666 33.866668"
   height="128"
   width="128">
  <defs
     id="defs2" />
  <metadata
     id="metadata5">
    <rdf:RDF>
      <cc:Work
         rdf:about="">
        <dc:format>image/svg+xml</dc:format>
        <dc:type
           rdf:resource="http://purl.org/dc/dcmitype/StillImage" />
        <dc:title />
      </cc:Work>
    </rdf:RDF>
  </metadata>
  <g
     transform="translate(0,-263.13332)"
     id="layer1">
    <g
       id="quest"
       transform="matrix(0.26458333,0,0,0.26458333,190.5162,148.83052)">
      <path
         d="m -600.62501,528 c -17.673,30.61053 -56.81509,41.09863 -87.42564,23.42562 -30.61053,-17.673 -41.09863,-56.8151 -23.42563,-87.42564 17.673,-30.61053 56.81509,-41.09862 87.42562,-23.42562 30.61056,17.67301 41.09865,56.81511 23.42565,87.42564"
         id="path4485-6-6-3-4-8-5-8"
         style="fill:#e45f5f;fill-opacity:1;stroke-width:0.2" />
      <path
         d="m -655.99609,448 16,32 33.84095,4.92703 -25.48953,25.10545 5.77154,33.7072 -31.7534,-16.48398 -30.27395,15.90516 5.86486,-35.29311 -24.48187,-23.87727 35.37808,-5.32836 z"
         id="path8239-0"
         style="opacity:1;vector-effect:none;fill:#000000;fill-opacity:0.2;stroke:none;stroke-width:8;stroke-linecap:round;stroke-linejoin:miter;stroke-miterlimit:4;stroke-dasharray:none;stroke-dashoffset:0;stroke-opacity:1;paint-order:normal" />
      <path
         d="m -655.99609,444 16,32 33.84095,4.92703 -25.48953,25.10545 5.77154,33.7072 -31.7534,-16.48398 -30.27395,15.90516 5.86486,-35.29311 -24.48187,-23.87727 35.37808,-5.32836 z"
         id="path8239"
         style="opacity:1;vector-effect:none;fill:#ffffff;fill-opacity:1;stroke:none;stroke-width:8;stroke-linecap:round;stroke-linejoin:miter;stroke-miterlimit:4;stroke-dasharray:none;stroke-dashoffset:0;stroke-opacity:1;paint-order:normal" />
    </g>
  </g>
</svg>
