<?xml version="1.0" encoding="UTF-8" standalone="no"?>
<svg
   xmlns:dc="http://purl.org/dc/elements/1.1/"
   xmlns:cc="http://creativecommons.org/ns#"
   xmlns:rdf="http://www.w3.org/1999/02/22-rdf-syntax-ns#"
   xmlns:svg="http://www.w3.org/2000/svg"
   xmlns="http://www.w3.org/2000/svg"
   id="svg8"
   version="1.1"
   viewBox="0 0 33.866666 33.866666"
   height="128"
   width="128">
  <defs
     id="defs2" />
  <metadata
     id="metadata5">
    <rdf:RDF>
      <cc:Work
         rdf:about="">
        <dc:format>image/svg+xml</dc:format>
        <dc:type
           rdf:resource="http://purl.org/dc/dcmitype/StillImage" />
        <dc:title />
      </cc:Work>
    </rdf:RDF>
  </metadata>
  <g
     transform="translate(0,-263.13334)"
     id="layer1">
    <g
       id="railway"
       transform="matrix(0.22913589,0.13229167,-0.13229167,0.22913589,109.72478,314.07717)">
      <path
         style="fill:#ffdd55;fill-opacity:1;stroke-width:0.2"
         id="path4485-6-6-0"
         d="m -303.99992,63.999782 c 0,35.346 -28.654,63.999998 -64.00002,63.999998 -35.346,0 -64,-28.653998 -64,-63.999998 0,-35.346 28.654,-64 64,-64 35.34602,0 64.00002,28.654 64.00002,64" />
      <path
         id="path4485-6-6-0-3-4"
         d="m -405.79114,17.435035 -0.002,5.934593 9.99992,4.7e-5 1.3e-4,12.000239 -9.99992,-4.7e-5 5.1e-4,16.000877 9.99992,4.7e-5 1.4e-4,12.000239 -9.99992,-4.7e-5 -4.7e-4,15.999189 9.99992,4.7e-5 1.4e-4,12.000238 -9.99992,-4.7e-5 -4.8e-4,15.99918 9.99992,5e-5 1.4e-4,12.00023 60.15716,-1.02473 -0.15611,-10.9761 9.99991,5e-5 4.7e-4,-15.999174 -9.99991,-5.2e-5 -1.4e-4,-12.000238 9.99991,5.2e-5 4.7e-4,-15.999189 -9.99991,-5.2e-5 -1.4e-4,-12.000238 9.99991,5.2e-5 -5e-4,-16.000878 -9.99991,-5.2e-5 -1.4e-4,-12.000239 9.99991,5.2e-5 0.0649,-7.399387 c -25.66113,-15.95416241 -57.6582,-16.33425517 -80.0639,1.465288 z m 22.00017,5.933528 35.99902,5.67e-4 1.4e-4,12.000238 -35.99902,-5.67e-4 z m -10e-4,28.002096 36.00071,-4.13e-4 1.4e-4,12.000238 -36.00071,4.13e-4 z m -3.3e-4,27.999427 36.00071,-4.13e-4 1.4e-4,12.000239 -36.00071,4.12e-4 z m -3.4e-4,27.999414 36.00072,-4.1e-4 1.4e-4,12.00024 -36.00072,4.1e-4 z"
         style="fill:#000000;fill-opacity:0.2;stroke-width:0.2" />
      <g
         transform="rotate(30,-367.80698,64.317605)"
         id="g11245">
        <path
           style="fill:#a07a53;fill-opacity:1;stroke-width:0.2"
           d="m -374.39187,127.68759 c 2.0992,0.20783 4.2276,0.31874 6.3815,0.31875 25.9615,-1e-5 48.2949,-15.46775 58.3336,-37.68203 z"
           id="path4485-6-6-0-3" />
        <rect
           style="fill:#a07a53;fill-opacity:1;stroke:none;stroke-width:8;stroke-linecap:round;stroke-linejoin:round;stroke-miterlimit:4;stroke-dasharray:none;stroke-opacity:1;paint-order:markers fill stroke"
           id="rect10685-0"
           width="79.999977"
           height="16.000006"
           x="-390.67365"
           y="-104.61524"
           transform="rotate(-30)" />
        <rect
           style="fill:#a07a53;fill-opacity:1;stroke:none;stroke-width:8;stroke-linecap:round;stroke-linejoin:round;stroke-miterlimit:4;stroke-dasharray:none;stroke-opacity:1;paint-order:markers fill stroke"
           id="rect10685-6"
           width="79.999977"
           height="16.000029"
           x="-390.67365"
           y="-132.61526"
           transform="rotate(-30)" />
        <rect
           style="fill:#a07a53;fill-opacity:1;stroke:none;stroke-width:8;stroke-linecap:round;stroke-linejoin:round;stroke-miterlimit:4;stroke-dasharray:none;stroke-opacity:1;paint-order:markers fill stroke"
           id="rect10685-4"
           width="79.999962"
           height="15.999995"
           x="-390.67365"
           y="-160.61523"
           transform="rotate(-30)" />
        <path
           id="path4485-6-6-0-8"
           d="m -417.20132,23.077188 c -4.3585,5.23442 -7.8848,11.17995 -10.4074,17.63013 l 2.9678,5.14034 69.282,-40.0000003 -2.9551,-5.11835005 c -3.1588,-0.47957 -6.3931,-0.72943000321 -9.6858,-0.72943000321 -3.7005,0 -7.3209,0.33180000321 -10.8494,0.93473000321 z"
           style="fill:#a07a53;fill-opacity:1;stroke-width:0.2" />
        <path
           id="path10681"
           d="m -414.24396,19.855774 c -2.96549,2.929937 -5.62035,6.32974 -7.98993,10.161029 l 56.57278,97.986927 c 5.07709,-0.095 9.57826,-1.05877 12.79898,-1.83151 z"
           style="color:#000000;font-style:normal;font-variant:normal;font-weight:normal;font-stretch:normal;font-size:medium;line-height:normal;font-family:sans-serif;font-variant-ligatures:normal;font-variant-position:normal;font-variant-caps:normal;font-variant-numeric:normal;font-variant-alternates:normal;font-feature-settings:normal;text-indent:0;text-align:start;text-decoration:none;text-decoration-line:none;text-decoration-style:solid;text-decoration-color:#000000;letter-spacing:normal;word-spacing:normal;text-transform:none;writing-mode:lr-tb;direction:ltr;text-orientation:mixed;dominant-baseline:auto;baseline-shift:baseline;text-anchor:start;white-space:normal;shape-padding:0;clip-rule:nonzero;display:inline;overflow:visible;visibility:visible;opacity:1;isolation:auto;mix-blend-mode:normal;color-interpolation:sRGB;color-interpolation-filters:linearRGB;solid-color:#000000;solid-opacity:1;vector-effect:none;fill:#bbbbbb;fill-opacity:1;fill-rule:nonzero;stroke:none;stroke-width:12;stroke-linecap:butt;stroke-linejoin:miter;stroke-miterlimit:4;stroke-dasharray:none;stroke-dashoffset:0;stroke-opacity:1;color-rendering:auto;image-rendering:auto;shape-rendering:auto;text-rendering:auto;enable-background:accumulate" />
        <path
           id="path10683"
           d="m -370.25822,0.04131824 c -4.77231,0.10743201 -8.86798,0.86953981 -12.85201,1.73965826 l 61.42238,106.3866835 c 2.43209,-2.62339 5.03273,-5.52607 7.95778,-10.216721 z"
           style="color:#000000;font-style:normal;font-variant:normal;font-weight:normal;font-stretch:normal;font-size:medium;line-height:normal;font-family:sans-serif;font-variant-ligatures:normal;font-variant-position:normal;font-variant-caps:normal;font-variant-numeric:normal;font-variant-alternates:normal;font-feature-settings:normal;text-indent:0;text-align:start;text-decoration:none;text-decoration-line:none;text-decoration-style:solid;text-decoration-color:#000000;letter-spacing:normal;word-spacing:normal;text-transform:none;writing-mode:lr-tb;direction:ltr;text-orientation:mixed;dominant-baseline:auto;baseline-shift:baseline;text-anchor:start;white-space:normal;shape-padding:0;clip-rule:nonzero;display:inline;overflow:visible;visibility:visible;opacity:1;isolation:auto;mix-blend-mode:normal;color-interpolation:sRGB;color-interpolation-filters:linearRGB;solid-color:#000000;solid-opacity:1;vector-effect:none;fill:#bbbbbb;fill-opacity:1;fill-rule:nonzero;stroke:none;stroke-width:12;stroke-linecap:butt;stroke-linejoin:miter;stroke-miterlimit:4;stroke-dasharray:none;stroke-dashoffset:0;stroke-opacity:1;color-rendering:auto;image-rendering:auto;shape-rendering:auto;text-rendering:auto;enable-background:accumulate" />
        <path
           id="path10732"
           d="m -414.27971,19.793852 c -0.97726,1.054188 -1.92341,2.068438 -2.80853,3.135477 l 60.12478,104.139181 c 1.35201,-0.28416 2.61921,-0.45221 4.11397,-0.8744 z"
           style="color:#000000;font-style:normal;font-variant:normal;font-weight:normal;font-stretch:normal;font-size:medium;line-height:normal;font-family:sans-serif;font-variant-ligatures:normal;font-variant-position:normal;font-variant-caps:normal;font-variant-numeric:normal;font-variant-alternates:normal;font-feature-settings:normal;text-indent:0;text-align:start;text-decoration:none;text-decoration-line:none;text-decoration-style:solid;text-decoration-color:#000000;letter-spacing:normal;word-spacing:normal;text-transform:none;writing-mode:lr-tb;direction:ltr;text-orientation:mixed;dominant-baseline:auto;baseline-shift:baseline;text-anchor:start;white-space:normal;shape-padding:0;clip-rule:nonzero;display:inline;overflow:visible;visibility:visible;opacity:1;isolation:auto;mix-blend-mode:normal;color-interpolation:sRGB;color-interpolation-filters:linearRGB;solid-color:#000000;solid-opacity:1;vector-effect:none;fill:#999999;fill-opacity:1;fill-rule:nonzero;stroke:none;stroke-width:4;stroke-linecap:butt;stroke-linejoin:miter;stroke-miterlimit:4;stroke-dasharray:none;stroke-dashoffset:0;stroke-opacity:1;color-rendering:auto;image-rendering:auto;shape-rendering:auto;text-rendering:auto;enable-background:accumulate" />
        <path
           id="path10732-2"
           d="m -370.25822,0.04131824 c -1.54539,-0.01002674 -2.97905,0.17346768 -4.4339,0.32025007 L -316.23325,101.61531 c 0.81989,-1.13755 1.61627,-2.139062 2.50318,-3.664371 z"
           style="color:#000000;font-style:normal;font-variant:normal;font-weight:normal;font-stretch:normal;font-size:medium;line-height:normal;font-family:sans-serif;font-variant-ligatures:normal;font-variant-position:normal;font-variant-caps:normal;font-variant-numeric:normal;font-variant-alternates:normal;font-feature-settings:normal;text-indent:0;text-align:start;text-decoration:none;text-decoration-line:none;text-decoration-style:solid;text-decoration-color:#000000;letter-spacing:normal;word-spacing:normal;text-transform:none;writing-mode:lr-tb;direction:ltr;text-orientation:mixed;dominant-baseline:auto;baseline-shift:baseline;text-anchor:start;white-space:normal;shape-padding:0;clip-rule:nonzero;display:inline;overflow:visible;visibility:visible;opacity:1;isolation:auto;mix-blend-mode:normal;color-interpolation:sRGB;color-interpolation-filters:linearRGB;solid-color:#000000;solid-opacity:1;vector-effect:none;fill:#999999;fill-opacity:1;fill-rule:nonzero;stroke:none;stroke-width:4;stroke-linecap:butt;stroke-linejoin:miter;stroke-miterlimit:4;stroke-dasharray:none;stroke-dashoffset:0;stroke-opacity:1;color-rendering:auto;image-rendering:auto;shape-rendering:auto;text-rendering:auto;enable-background:accumulate" />
      </g>
    </g>
  </g>
</svg>
