<?xml version="1.0" encoding="UTF-8" standalone="no"?>
<svg
   xmlns:dc="http://purl.org/dc/elements/1.1/"
   xmlns:cc="http://creativecommons.org/ns#"
   xmlns:rdf="http://www.w3.org/1999/02/22-rdf-syntax-ns#"
   xmlns:svg="http://www.w3.org/2000/svg"
   xmlns="http://www.w3.org/2000/svg"
   id="svg8"
   version="1.1"
   viewBox="0 0 33.866666 33.866666"
   height="128"
   width="128">
  <defs
     id="defs2" />
  <metadata
     id="metadata5">
    <rdf:RDF>
      <cc:Work
         rdf:about="">
        <dc:format>image/svg+xml</dc:format>
        <dc:type
           rdf:resource="http://purl.org/dc/dcmitype/StillImage" />
        <dc:title />
      </cc:Work>
    </rdf:RDF>
  </metadata>
  <g
     transform="translate(0,-263.13334)"
     id="layer1">
    <g
       id="street_turn_lanes"
       transform="matrix(0.22913589,0.13229167,-0.13229167,0.22913589,109.72476,314.07662)">
      <path
         style="fill:#ffdd55;fill-opacity:1;stroke-width:0.2"
         id="path4485-6-6-16-4"
         d="m -303.99992,63.999782 c 0,35.346 -28.654,63.999998 -64.00002,63.999998 -35.346,0 -64,-28.653998 -64,-63.999998 0,-35.346 28.654,-64 64,-64 35.34602,0 64.00002,28.654 64.00002,64" />
      <path
         id="path4485-6-6-1-7-3"
         d="m -367.9882,0.03494 c -11.66465,0 -22.59014,3.13589 -32.00781,8.58789 v 110.82422 c 9.41767,5.452 20.34316,8.58789 32.00781,8.58789 11.6437,0 22.55083,-3.12475 31.95703,-8.55859 V 8.59353 c -9.4062,-5.43384 -20.31333,-8.55859 -31.95703,-8.55859 z"
         style="fill:#999999;fill-opacity:1;stroke-width:0.2" />
      <rect
         y="-0.00021982193"
         x="-370.96866"
         height="128"
         width="5.96875"
         id="rect6698-68-5-1"
         style="opacity:1;vector-effect:none;fill:#ffffff;fill-opacity:1;stroke:none;stroke-width:18.49752617;stroke-linecap:butt;stroke-linejoin:miter;stroke-miterlimit:4;stroke-dasharray:none;stroke-dashoffset:0;stroke-opacity:1;paint-order:stroke fill markers" />
      <path
         id="path4485-6-6-16-8-0"
         d="m -332.51688,117.45234 c 2.8261,-1.83677 5.46837,-3.96091 7.96274,-6.20813 l 0.0774,-94.108122 c -2.49462,-2.24753 -4.32864,-4.08901 -8.06897,-5.73369 0,0 0.10064,106.174332 0.0288,106.049942 z"
         style="fill:#000000;fill-opacity:0.2;stroke-width:0.2" />
      <path
         id="path4485-6-6-7-1-5"
         d="m -335.99992,8.52712 v 110.83204 c 2.80827,-1.62523 5.48255,-3.45379 8,-5.47266 V 13.99978 c -2.51745,-2.01887 -5.19173,-3.84743 -8,-5.47266 z"
         style="fill:#ffffff;fill-opacity:1;stroke-width:0.2" />
      <path
         id="path4485-6-6-70-2-6"
         d="m -399.99992,8.52712 c -2.80827,1.62523 -5.48255,3.45379 -8,5.47266 v 99.88672 c 2.51745,2.01887 5.19173,3.84743 8,5.47266 z"
         style="fill:#ffffff;fill-opacity:1;stroke-width:0.2" />
      <path
         id="path6927"
         d="m -351.9882,96.03494 -2,-28 c 0,-2.666669 1.33334,-3.999999 4,-4 v 12 l 10,-14 -10,-14 v 12 c -7.07216,0.01168 -7.40911,2.043933 -8,4 l -2,32 z"
         style="fill:#ffffff;fill-opacity:1;fill-rule:evenodd;stroke:none;stroke-width:1px;stroke-linecap:butt;stroke-linejoin:miter;stroke-opacity:1" />
      <path
         id="path6927-2"
         d="m -381.9882,96.03494 -2,-42 8,2 -9.875,-24 -10.125,24 8,-2 -2,42 z"
         style="fill:#ffffff;fill-opacity:1;fill-rule:evenodd;stroke:none;stroke-width:1px;stroke-linecap:butt;stroke-linejoin:miter;stroke-opacity:1" />
    </g>
  </g>
</svg>
