<?xml version="1.0" encoding="UTF-8" standalone="no"?>
<svg
   xmlns:dc="http://purl.org/dc/elements/1.1/"
   xmlns:cc="http://creativecommons.org/ns#"
   xmlns:rdf="http://www.w3.org/1999/02/22-rdf-syntax-ns#"
   xmlns:svg="http://www.w3.org/2000/svg"
   xmlns="http://www.w3.org/2000/svg"
   id="svg8"
   version="1.1"
   viewBox="0 0 33.866666 33.866666"
   height="128"
   width="128">
  <defs
     id="defs2" />
  <metadata
     id="metadata5">
    <rdf:RDF>
      <cc:Work
         rdf:about="">
        <dc:format>image/svg+xml</dc:format>
        <dc:type
           rdf:resource="http://purl.org/dc/dcmitype/StillImage" />
        <dc:title />
      </cc:Work>
    </rdf:RDF>
  </metadata>
  <g
     transform="translate(0,-263.13334)"
     id="layer1">
    <g
       style="fill:#000000"
       id="street_lanes"
       transform="matrix(0.22913589,0.13229167,-0.13229167,0.22913589,109.72477,314.0778)">
      <path
         style="fill:#ffdd55;fill-opacity:1;stroke-width:0.2"
         id="path4485-6-6-16"
         d="m -303.99992,63.999782 c 0,35.346 -28.654,63.999998 -64.00002,63.999998 -35.346,0 -64,-28.653998 -64,-63.999998 0,-35.346 28.654,-64 64,-64 35.34602,0 64.00002,28.654 64.00002,64" />
      <path
         id="path4485-6-6-1-7"
         d="m -367.9882,0.03494 c -11.66465,0 -22.59014,3.13589 -32.00781,8.58789 v 110.82422 c 9.41767,5.452 20.34316,8.58789 32.00781,8.58789 11.6437,0 22.55083,-3.12475 31.95703,-8.55859 V 8.59353 c -9.4062,-5.43384 -20.31333,-8.55859 -31.95703,-8.55859 z"
         style="fill:#999999;fill-opacity:1;stroke-width:0.2" />
      <rect
         y="-0.00021982193"
         x="-370.96866"
         height="128"
         width="5.96875"
         id="rect6698-68-5"
         style="opacity:1;vector-effect:none;fill:#ffffff;fill-opacity:1;stroke:none;stroke-width:18.49752617;stroke-linecap:butt;stroke-linejoin:miter;stroke-miterlimit:4;stroke-dasharray:none;stroke-dashoffset:0;stroke-opacity:1;paint-order:stroke fill markers" />
      <path
         id="path4485-6-6-16-8"
         d="m -332.6153,117.30419 c 2.8261,-1.83677 5.46837,-3.96091 7.96274,-6.20813 l 0.0774,-94.108137 c -2.49462,-2.24753 -4.32864,-4.089004 -8.06897,-5.733681 0,0 0.10064,106.174338 0.0288,106.049948 z"
         style="fill:#000000;fill-opacity:0.2;stroke-width:0.2" />
      <path
         id="path4485-6-6-7-1"
         d="m -335.99992,8.52712 v 110.83204 c 2.80827,-1.62523 5.48255,-3.45379 8,-5.47266 V 13.99978 c -2.51745,-2.01887 -5.19173,-3.84743 -8,-5.47266 z"
         style="fill:#ffffff;fill-opacity:1;stroke-width:0.2" />
      <path
         id="path4485-6-6-70-2"
         d="m -399.99992,8.52712 c -2.80827,1.62523 -5.48255,3.45379 -8,5.47266 v 99.88672 c 2.51745,2.01887 5.19173,3.84743 8,5.47266 z"
         style="fill:#ffffff;fill-opacity:1;stroke-width:0.2" />
      <g
         id="text6796"
         style="font-style:normal;font-weight:normal;font-size:5.33333349px;line-height:25px;font-family:sans-serif;letter-spacing:0px;word-spacing:0px;fill:#ffffff;fill-opacity:1;stroke:none;stroke-width:1px;stroke-linecap:butt;stroke-linejoin:miter;stroke-opacity:1"
         aria-label="1">
        <path
           id="path6882"
           style="font-style:normal;font-variant:normal;font-weight:bold;font-stretch:normal;font-size:42.66666794px;font-family:Arial;-inkscape-font-specification:'Arial Bold';fill:#ffffff;fill-opacity:1"
           d="m -379.99998,79.99978 -6.97668,-0.01166 -0.0233,-18.988341 c 0,0 -3.00002,0 -9.00002,1 v -6 c 5,-1 7.35048,-3.164562 9.00002,-8 h 6.99998 z" />
      </g>
      <g
         transform="translate(-4.8447266e-5,3.9999992)"
         id="text6796-7"
         style="font-style:normal;font-weight:normal;font-size:5.33333349px;line-height:25px;font-family:sans-serif;letter-spacing:0px;word-spacing:0px;fill:#ffffff;fill-opacity:1;stroke:none;stroke-width:1px;stroke-linecap:butt;stroke-linejoin:miter;stroke-opacity:1"
         aria-label="2">
        <path
           id="path6879"
           style="font-style:normal;font-variant:normal;font-weight:bold;font-stretch:normal;font-size:42.66666794px;font-family:Arial;-inkscape-font-specification:'Arial Bold';fill:#ffffff;fill-opacity:1"
           d="m -339.99991,69.99978 0.0442,5.988341 -20.04415,0.01166 v -6 c 4.21035,-5.81394 14.07545,-8.562658 14.16915,-15.76166 -0.1692,-5.238341 -8.1692,-5.238341 -8.125,0.708334 l -6.0442,0.05333 c -0.31873,-10.800566 11.4938,-13.367898 17.13258,-8.558063 1.72222,1.625 2.91162,4.963071 2.91162,7.379738 -0.35026,7.064037 -7.0442,12.17832 -12.0442,16.178325 z" />
      </g>
    </g>
  </g>
</svg>
