<?xml version="1.0" encoding="UTF-8" standalone="no"?>
<svg
   xmlns:dc="http://purl.org/dc/elements/1.1/"
   xmlns:cc="http://creativecommons.org/ns#"
   xmlns:rdf="http://www.w3.org/1999/02/22-rdf-syntax-ns#"
   xmlns:svg="http://www.w3.org/2000/svg"
   xmlns="http://www.w3.org/2000/svg"
   id="svg8"
   version="1.1"
   viewBox="0 0 33.866666 33.866666"
   height="128"
   width="128">
  <defs
     id="defs2" />
  <metadata
     id="metadata5">
    <rdf:RDF>
      <cc:Work
         rdf:about="">
        <dc:format>image/svg+xml</dc:format>
        <dc:type
           rdf:resource="http://purl.org/dc/dcmitype/StillImage" />
        <dc:title />
      </cc:Work>
    </rdf:RDF>
  </metadata>
  <g
     transform="translate(0,-263.13334)"
     id="layer1">
    <g
       transform="matrix(0.26458333,0,0,0.26458333,152.25083,263.13054)"
       id="traffic_lights">
      <g
         transform="rotate(30,-439.71318,-203.63612)"
         id="g8992-6-5-6">
        <path
           d="m -303.99992,63.999782 c 0,35.346 -28.654,63.999998 -64.00002,63.999998 -35.346,0 -64,-28.653998 -64,-63.999998 0,-35.346 28.654,-64 64,-64 35.34602,0 64.00002,28.654 64.00002,64"
           id="path4485-6-6-77-1"
           style="fill:#ffdd55;fill-opacity:1;stroke-width:0.2" />
      </g>
      <path
         style="opacity:1;vector-effect:none;fill:#000000;fill-opacity:0.2;stroke:none;stroke-width:9.77453995;stroke-linecap:butt;stroke-linejoin:miter;stroke-miterlimit:4;stroke-dasharray:none;stroke-dashoffset:0;stroke-opacity:1;paint-order:stroke fill markers"
         d="m -532,20 v 8 h -16 c -1.05476,12.365021 6.01727,12.512952 16,20 v 8 h -16 c -1.05476,12.36502 6.01727,12.51295 16,20 v 8 h -16 c -1.05476,12.36502 6.01727,12.51295 16,20 v 12 h 40 v -12 c 9.98273,-7.48705 17.05476,-7.63498 16,-20 h -16 v -8 c 9.98273,-7.48705 17.05476,-7.63498 16,-20 h -16 v -8 c 9.98273,-7.487048 17.05476,-7.634979 16,-20 h -16 v -8 z"
         id="rect7817-3" />
      <rect
         style="opacity:1;vector-effect:none;fill:#888888;fill-opacity:1;stroke:none;stroke-width:9.77453995;stroke-linecap:butt;stroke-linejoin:miter;stroke-miterlimit:4;stroke-dasharray:none;stroke-dashoffset:0;stroke-opacity:1;paint-order:stroke fill markers"
         id="rect7817"
         width="40"
         height="96"
         x="-532"
         y="16" />
      <circle
         style="opacity:1;vector-effect:none;fill:#ff6969;fill-opacity:1;stroke:#555555;stroke-width:3;stroke-linecap:butt;stroke-linejoin:miter;stroke-miterlimit:4;stroke-dasharray:none;stroke-dashoffset:0;stroke-opacity:1;paint-order:normal"
         id="path7819"
         cy="37.455276"
         cx="-511.88586"
         r="11.99844" />
      <circle
         style="opacity:1;vector-effect:none;fill:#ffff69;fill-opacity:1;stroke:#555555;stroke-width:3;stroke-linecap:butt;stroke-linejoin:miter;stroke-miterlimit:4;stroke-dasharray:none;stroke-dashoffset:0;stroke-opacity:1;paint-order:normal"
         id="path7819-1"
         cx="-511.88373"
         cy="65.483063"
         r="12" />
      <circle
         style="opacity:1;vector-effect:none;fill:#69ff69;fill-opacity:1;stroke:#555555;stroke-width:3;stroke-linecap:butt;stroke-linejoin:miter;stroke-miterlimit:4;stroke-dasharray:none;stroke-dashoffset:0;stroke-opacity:1;paint-order:normal"
         id="path7819-1-1"
         cx="-511.90204"
         cy="93.51432"
         r="12" />
      <path
         style="fill:#555555;fill-opacity:1;fill-rule:evenodd;stroke:none;stroke-width:1px;stroke-linecap:butt;stroke-linejoin:miter;stroke-opacity:1"
         d="m -532,24 h -16 c -1.05476,12.365021 6.01727,12.512952 16,20 z"
         id="path7851" />
      <path
         style="fill:#555555;fill-opacity:1;fill-rule:evenodd;stroke:none;stroke-width:1px;stroke-linecap:butt;stroke-linejoin:miter;stroke-opacity:1"
         d="m -532,52 h -16 c -1.05476,12.365021 6.01727,12.512952 16,20 z"
         id="path7851-7" />
      <path
         style="fill:#555555;fill-opacity:1;fill-rule:evenodd;stroke:none;stroke-width:1px;stroke-linecap:butt;stroke-linejoin:miter;stroke-opacity:1"
         d="m -532,80 h -16 c -1.05476,12.365021 6.01727,12.512952 16,20 z"
         id="path7851-2" />
      <path
         style="fill:#555555;fill-opacity:1;fill-rule:evenodd;stroke:none;stroke-width:1px;stroke-linecap:butt;stroke-linejoin:miter;stroke-opacity:1"
         d="m -492,24 h 16 c 1.05476,12.365021 -6.01727,12.512952 -16,20 z"
         id="path7851-6" />
      <path
         style="fill:#555555;fill-opacity:1;fill-rule:evenodd;stroke:none;stroke-width:1px;stroke-linecap:butt;stroke-linejoin:miter;stroke-opacity:1"
         d="m -492,52 h 16 c 1.05476,12.365021 -6.01727,12.512952 -16,20 z"
         id="path7851-7-9" />
      <path
         style="fill:#555555;fill-opacity:1;fill-rule:evenodd;stroke:none;stroke-width:1px;stroke-linecap:butt;stroke-linejoin:miter;stroke-opacity:1"
         d="m -492,80 h 16 c 1.05476,12.365021 -6.01727,12.512952 -16,20 z"
         id="path7851-2-8" />
      <path
         style="opacity:1;vector-effect:none;fill:#ffffff;fill-opacity:0.37647059;stroke:none;stroke-width:12.69750023;stroke-linecap:butt;stroke-linejoin:miter;stroke-miterlimit:4;stroke-dasharray:none;stroke-dashoffset:0;stroke-opacity:1;paint-order:stroke fill markers"
         d="m -499.8952,93.479799 c 0,0 -5.37258,7.949591 -12,7.949591 -6.62742,0 -11.98895,-7.907292 -11.98895,-7.907292 0,6.627422 5.36153,11.988952 11.98895,11.988952 6.62742,0 12,-5.40383 12,-12.031251 z"
         id="path7819-6-4" />
      <rect
         style="opacity:1;vector-effect:none;fill:#555555;fill-opacity:1;stroke:none;stroke-width:8.51215363;stroke-linecap:butt;stroke-linejoin:miter;stroke-miterlimit:4;stroke-dasharray:none;stroke-dashoffset:0;stroke-opacity:1;paint-order:stroke fill markers"
         id="rect7926"
         width="12.065097"
         height="15.999996"
         x="-518"
         y="112" />
      <path
         style="opacity:1;vector-effect:none;fill:#ffffff;fill-opacity:0.37647059;stroke:none;stroke-width:12.69750023;stroke-linecap:butt;stroke-linejoin:miter;stroke-miterlimit:4;stroke-dasharray:none;stroke-dashoffset:0;stroke-opacity:1;paint-order:stroke fill markers"
         d="m -499.90625,65.4375 c 0,0 -5.37258,7.94959 -12,7.94959 -6.62742,0 -11.98895,-7.907291 -11.98895,-7.907291 0,6.627417 5.36153,11.988951 11.98895,11.988951 6.62742,0 12,-5.403833 12,-12.03125 z"
         id="path7819-6-4-1" />
      <path
         style="opacity:1;vector-effect:none;fill:#ffffff;fill-opacity:0.37647059;stroke:none;stroke-width:12.69750023;stroke-linecap:butt;stroke-linejoin:miter;stroke-miterlimit:4;stroke-dasharray:none;stroke-dashoffset:0;stroke-opacity:1;paint-order:stroke fill markers"
         d="m -499.90625,37.4375 c 0,0 -5.37258,7.94959 -12,7.94959 -6.62742,0 -11.98895,-7.907291 -11.98895,-7.907291 0,6.627417 5.36153,11.988951 11.98895,11.988951 6.62742,0 12,-5.403833 12,-12.03125 z"
         id="path7819-6-4-9" />
      <circle
         r="27.66431"
         style="opacity:1;vector-effect:none;fill:#ffff69;fill-opacity:0.26666667;stroke:none;stroke-width:6.91607761;stroke-linecap:butt;stroke-linejoin:miter;stroke-miterlimit:4;stroke-dasharray:none;stroke-dashoffset:0;stroke-opacity:1;paint-order:normal"
         id="path7819-1-5"
         cx="-512.55322"
         cy="64.478622" />
    </g>
  </g>
</svg>
