<?xml version="1.0" encoding="UTF-8" standalone="no"?>
<svg
   xmlns:dc="http://purl.org/dc/elements/1.1/"
   xmlns:cc="http://creativecommons.org/ns#"
   xmlns:rdf="http://www.w3.org/1999/02/22-rdf-syntax-ns#"
   xmlns:svg="http://www.w3.org/2000/svg"
   xmlns="http://www.w3.org/2000/svg"
   id="svg8"
   version="1.1"
   viewBox="0 0 33.866665 33.866668"
   height="128"
   width="128">
  <defs
     id="defs2">
    <clipPath
       id="clipPath44"
       clipPathUnits="userSpaceOnUse">
      <path
         id="path46-65"
         d="M 0,38 H 38 V 0 H 0 Z" />
    </clipPath>
    <clipPath
       id="clipPath16-2"
       clipPathUnits="userSpaceOnUse">
      <path
         id="path18-53"
         d="M 0,38 H 38 V 0 H 0 Z" />
    </clipPath>
    <clipPath
       id="clipPath28-4"
       clipPathUnits="userSpaceOnUse">
      <path
         id="path30-9"
         d="M 1.193,5 C 1.193,3 3,1 5,1 v 0 h 28 c 2,0 3.731,2 3.731,4 v 0 c 0,4.355 -4.634,11 -17.731,11 v 0 C 5.508,16 1.193,9.541 1.193,5" />
    </clipPath>
    <clipPath
       id="clipPath16-1"
       clipPathUnits="userSpaceOnUse">
      <path
         id="path18-5"
         d="M 0,38 H 38 V 0 H 0 Z" />
    </clipPath>
    <clipPath
       id="clipPath16-90"
       clipPathUnits="userSpaceOnUse">
      <path
         id="path18-2"
         d="M 0,38 H 38 V 0 H 0 Z" />
    </clipPath>
    <clipPath
       clipPathUnits="userSpaceOnUse"
       id="clipPath16-4">
      <path
         d="M 0,36 H 36 V 0 H 0 Z"
         id="path18-8" />
    </clipPath>
    <clipPath
       id="clipPath44-3"
       clipPathUnits="userSpaceOnUse">
      <path
         id="path46-65-8"
         d="M 0,38 H 38 V 0 H 0 Z" />
    </clipPath>
  </defs>
  <metadata
     id="metadata5">
    <rdf:RDF>
      <cc:Work
         rdf:about="">
        <dc:format>image/svg+xml</dc:format>
        <dc:type
           rdf:resource="http://purl.org/dc/dcmitype/StillImage" />
        <dc:title />
      </cc:Work>
    </rdf:RDF>
  </metadata>
  <g
     transform="translate(0,-263.13332)"
     id="layer1">
    <g
       transform="translate(-67.733336,67.733367)"
       id="hotel">
      <path
         style="fill:#987e6c;fill-opacity:1;stroke:none;stroke-width:10;stroke-linecap:butt;stroke-linejoin:round;stroke-miterlimit:4;stroke-dasharray:none;stroke-dashoffset:0;stroke-opacity:1;paint-order:stroke markers fill"
         d="m 264,786.51953 v 64 h 12 v -16 h 88 v 16 h 12 v -48 h -12 v 16 h -88 v -32 z"
         transform="scale(0.26458333)"
         id="rect5116" />
      <circle
         style="fill:#f0ae88;fill-opacity:1;stroke:none;stroke-width:3.16366792;stroke-linecap:butt;stroke-linejoin:round;stroke-miterlimit:4;stroke-dasharray:none;stroke-dashoffset:0;stroke-opacity:1;paint-order:stroke markers fill"
         id="path5122"
         cx="76.180649"
         cy="213.38336"
         r="3.1636679" />
      <path
         style="fill:#d95252;fill-opacity:1;stroke:none;stroke-width:0.26458332px;stroke-linecap:butt;stroke-linejoin:miter;stroke-opacity:1"
         d="m 79.374998,216.56667 c 1.058333,-4.23333 1.058333,-5.29167 3.174999,-5.29167 H 93.13333 c 2.116667,0 2.116667,1.05834 3.174999,5.29167 z"
         id="path5128" />
    </g>
  </g>
</svg>
