<?xml version="1.0" encoding="UTF-8" standalone="no"?>
<svg
   xmlns:dc="http://purl.org/dc/elements/1.1/"
   xmlns:cc="http://creativecommons.org/ns#"
   xmlns:rdf="http://www.w3.org/1999/02/22-rdf-syntax-ns#"
   xmlns:svg="http://www.w3.org/2000/svg"
   xmlns="http://www.w3.org/2000/svg"
   id="svg8"
   version="1.1"
   viewBox="0 0 33.866665 33.866668"
   height="128"
   width="128">
  <defs
     id="defs2">
    <clipPath
       id="clipPath44"
       clipPathUnits="userSpaceOnUse">
      <path
         id="path46-65"
         d="M 0,38 H 38 V 0 H 0 Z" />
    </clipPath>
    <clipPath
       id="clipPath16-2"
       clipPathUnits="userSpaceOnUse">
      <path
         id="path18-53"
         d="M 0,38 H 38 V 0 H 0 Z" />
    </clipPath>
    <clipPath
       id="clipPath28-4"
       clipPathUnits="userSpaceOnUse">
      <path
         id="path30-9"
         d="M 1.193,5 C 1.193,3 3,1 5,1 v 0 h 28 c 2,0 3.731,2 3.731,4 v 0 c 0,4.355 -4.634,11 -17.731,11 v 0 C 5.508,16 1.193,9.541 1.193,5" />
    </clipPath>
    <clipPath
       id="clipPath16-1"
       clipPathUnits="userSpaceOnUse">
      <path
         id="path18-5"
         d="M 0,38 H 38 V 0 H 0 Z" />
    </clipPath>
    <clipPath
       id="clipPath16-90"
       clipPathUnits="userSpaceOnUse">
      <path
         id="path18-2"
         d="M 0,38 H 38 V 0 H 0 Z" />
    </clipPath>
    <clipPath
       clipPathUnits="userSpaceOnUse"
       id="clipPath16-4">
      <path
         d="M 0,36 H 36 V 0 H 0 Z"
         id="path18-8" />
    </clipPath>
    <clipPath
       id="clipPath44-3"
       clipPathUnits="userSpaceOnUse">
      <path
         id="path46-65-8"
         d="M 0,38 H 38 V 0 H 0 Z" />
    </clipPath>
  </defs>
  <metadata
     id="metadata5">
    <rdf:RDF>
      <cc:Work
         rdf:about="">
        <dc:format>image/svg+xml</dc:format>
        <dc:type
           rdf:resource="http://purl.org/dc/dcmitype/StillImage" />
        <dc:title />
      </cc:Work>
    </rdf:RDF>
  </metadata>
  <g
     transform="translate(0,-263.13332)"
     id="layer1">
    <g
       id="retail"
       transform="translate(0,67.733339)">
      <g
         transform="translate(1.0583335,-1.9736414e-6)"
         id="g8677">
        <path
           id="path8427"
           d="M 1.0583331,225.03334 H 30.691665 v -19.05 H 1.0583331 Z"
           style="fill:#cb9781;fill-opacity:1;stroke:none;stroke-width:0.27538705px;stroke-linecap:butt;stroke-linejoin:miter;stroke-opacity:1" />
        <rect
           y="216.56667"
           x="3.1749997"
           height="6.3500061"
           width="16.933332"
           id="rect8618"
           style="fill:#a4c1ee;fill-opacity:1;stroke:none;stroke-width:0.97982621;stroke-linecap:round;stroke-linejoin:bevel;stroke-miterlimit:4;stroke-dasharray:none;stroke-dashoffset:0;stroke-opacity:1;paint-order:normal" />
        <rect
           style="fill:#a4c1ee;fill-opacity:1;stroke:none;stroke-width:3.17499995;stroke-linecap:round;stroke-linejoin:round;stroke-miterlimit:4;stroke-dasharray:none;stroke-dashoffset:0;stroke-opacity:1;paint-order:stroke markers fill"
           id="rect11153-58-3"
           width="4.2333336"
           height="8.4666548"
           x="23.283333"
           y="216.56667" />
        <rect
           style="fill:#859dbf;fill-opacity:1;stroke:none;stroke-width:1.05833328;stroke-linecap:round;stroke-linejoin:bevel;stroke-miterlimit:4;stroke-dasharray:none;stroke-dashoffset:0;stroke-opacity:1;paint-order:normal"
           id="rect8644"
           width="16.933332"
           height="2.116673"
           x="3.1749997"
           y="216.56667" />
        <rect
           y="216.56668"
           x="23.283333"
           height="2.1166666"
           width="4.2333331"
           id="rect8681"
           style="fill:#859dbf;fill-opacity:1;stroke:none;stroke-width:1.05833328;stroke-linecap:round;stroke-linejoin:bevel;stroke-miterlimit:4;stroke-dasharray:none;stroke-dashoffset:0;stroke-opacity:1;paint-order:normal" />
        <rect
           y="201.75"
           x="3.1749995"
           height="4.2333331"
           width="25.4"
           id="rect8683"
           style="fill:#d6bdb1;fill-opacity:1;stroke:none;stroke-width:1.05833328;stroke-linecap:round;stroke-linejoin:bevel;stroke-miterlimit:4;stroke-dasharray:none;stroke-dashoffset:0;stroke-opacity:1;paint-order:normal" />
      </g>
      <g
         transform="translate(0,-3.2207117e-6)"
         id="g8671">
        <path
           style="fill:#c84747;fill-opacity:1;stroke:none;stroke-width:0.26458332px;stroke-linecap:butt;stroke-linejoin:miter;stroke-opacity:1"
           d="M 1.0583333,212.33334 3.7041667,208.1 l 26.4583333,1e-5 2.645832,4.23333 z"
           id="path4680-9" />
        <g
           id="g8530"
           transform="matrix(1.2,0,0,1.2,-1.4816654,-1.8266664)">
          <path
             id="path8444"
             d="m 7.4083322,178.46667 c 2.5e-6,1.46125 -1.1845781,2.64584 -2.6458332,2.64584 -1.4612551,0 -2.6458357,-1.18459 -2.6458334,-2.64584 0,0 5.2916669,0 5.2916666,0 z"
             style="fill:#9a2e2e;fill-opacity:1;stroke:none;stroke-width:0.33072916;stroke-linecap:round;stroke-linejoin:bevel;stroke-miterlimit:4;stroke-dasharray:none;stroke-dashoffset:0;stroke-opacity:1;paint-order:normal" />
          <path
             id="path8444-2"
             d="m 12.699999,178.46667 c 3e-6,1.46125 -1.184578,2.64584 -2.645833,2.64584 -1.4612554,0 -2.6458361,-1.18459 -2.6458338,-2.64584 0,0 5.2916668,0 5.2916668,0 z"
             style="fill:#c8c8c8;fill-opacity:1;stroke:none;stroke-width:0.33072919;stroke-linecap:round;stroke-linejoin:bevel;stroke-miterlimit:4;stroke-dasharray:none;stroke-dashoffset:0;stroke-opacity:1;paint-order:normal" />
          <path
             id="path8444-4"
             d="m 17.991665,178.46667 c 2e-6,1.46125 -1.184578,2.64584 -2.645833,2.64584 -1.461255,0 -2.645836,-1.18459 -2.645833,-2.64584 0,0 5.291667,0 5.291666,0 z"
             style="fill:#9a2e2e;fill-opacity:1;stroke:none;stroke-width:0.33072916;stroke-linecap:round;stroke-linejoin:bevel;stroke-miterlimit:4;stroke-dasharray:none;stroke-dashoffset:0;stroke-opacity:1;paint-order:normal" />
          <path
             id="path8444-27"
             d="m 23.283332,178.46667 c 2e-6,1.46125 -1.184579,2.64584 -2.645834,2.64584 -1.461255,0 -2.645835,-1.18459 -2.645833,-2.64584 0,0 5.291667,0 5.291667,0 z"
             style="fill:#c8c8c8;fill-opacity:1;stroke:none;stroke-width:0.33072916;stroke-linecap:round;stroke-linejoin:bevel;stroke-miterlimit:4;stroke-dasharray:none;stroke-dashoffset:0;stroke-opacity:1;paint-order:normal" />
          <path
             id="path8444-40"
             d="m 28.574998,178.46667 c 3e-6,1.46125 -1.184578,2.64584 -2.645833,2.64584 -1.461255,0 -2.645836,-1.18459 -2.645833,-2.64584 0,0 5.291666,0 5.291666,0 z"
             style="fill:#9a2e2e;fill-opacity:1;stroke:none;stroke-width:0.33072913;stroke-linecap:round;stroke-linejoin:bevel;stroke-miterlimit:4;stroke-dasharray:none;stroke-dashoffset:0;stroke-opacity:1;paint-order:normal" />
        </g>
        <path
           id="path8532"
           d="M 7.4083331,212.33334 8.9958334,208.1 H 14.2875 l -0.529167,4.23334 z"
           style="fill:#ffffff;fill-opacity:1;stroke:none;stroke-width:0.26458332px;stroke-linecap:butt;stroke-linejoin:miter;stroke-opacity:1" />
        <path
           id="path8532-7"
           d="m 20.108333,212.33334 -0.529166,-4.23333 h 5.291666 l 1.5875,4.23333 z"
           style="fill:#ffffff;fill-opacity:1;stroke:none;stroke-width:0.26458332px;stroke-linecap:butt;stroke-linejoin:miter;stroke-opacity:1" />
      </g>
    </g>
  </g>
</svg>
