<?xml version="1.0" encoding="UTF-8" standalone="no"?>
<svg
   xmlns:dc="http://purl.org/dc/elements/1.1/"
   xmlns:cc="http://creativecommons.org/ns#"
   xmlns:rdf="http://www.w3.org/1999/02/22-rdf-syntax-ns#"
   xmlns:svg="http://www.w3.org/2000/svg"
   xmlns="http://www.w3.org/2000/svg"
   id="svg8"
   version="1.1"
   viewBox="0 0 33.866665 33.866668"
   height="128"
   width="128">
  <defs
     id="defs2">
    <clipPath
       id="clipPath44"
       clipPathUnits="userSpaceOnUse">
      <path
         id="path46-65"
         d="M 0,38 H 38 V 0 H 0 Z" />
    </clipPath>
    <clipPath
       id="clipPath16-2"
       clipPathUnits="userSpaceOnUse">
      <path
         id="path18-53"
         d="M 0,38 H 38 V 0 H 0 Z" />
    </clipPath>
    <clipPath
       id="clipPath28-4"
       clipPathUnits="userSpaceOnUse">
      <path
         id="path30-9"
         d="M 1.193,5 C 1.193,3 3,1 5,1 v 0 h 28 c 2,0 3.731,2 3.731,4 v 0 c 0,4.355 -4.634,11 -17.731,11 v 0 C 5.508,16 1.193,9.541 1.193,5" />
    </clipPath>
    <clipPath
       id="clipPath16-1"
       clipPathUnits="userSpaceOnUse">
      <path
         id="path18-5"
         d="M 0,38 H 38 V 0 H 0 Z" />
    </clipPath>
    <clipPath
       id="clipPath16-90"
       clipPathUnits="userSpaceOnUse">
      <path
         id="path18-2"
         d="M 0,38 H 38 V 0 H 0 Z" />
    </clipPath>
    <clipPath
       clipPathUnits="userSpaceOnUse"
       id="clipPath16-4">
      <path
         d="M 0,36 H 36 V 0 H 0 Z"
         id="path18-8" />
    </clipPath>
    <clipPath
       id="clipPath44-3"
       clipPathUnits="userSpaceOnUse">
      <path
         id="path46-65-8"
         d="M 0,38 H 38 V 0 H 0 Z" />
    </clipPath>
  </defs>
  <metadata
     id="metadata5">
    <rdf:RDF>
      <cc:Work
         rdf:about="">
        <dc:format>image/svg+xml</dc:format>
        <dc:type
           rdf:resource="http://purl.org/dc/dcmitype/StillImage" />
        <dc:title />
      </cc:Work>
    </rdf:RDF>
  </metadata>
  <g
     transform="translate(0,-263.13332)"
     id="layer1">
    <g
       id="static_caravan"
       transform="translate(-203.2,3.54375e-6)">
      <path
         style="fill:#deb486;fill-opacity:1;stroke:none;stroke-width:0.26458332px;stroke-linecap:butt;stroke-linejoin:miter;stroke-opacity:1"
         d="m 230.71666,291.70831 h -20.10833 c 0,-6.35 0,-14.81667 7.40833,-14.81667 h 8.46667 c 6.35,0 10.58333,14.81667 4.23333,14.81667 z"
         id="path8689" />
      <path
         style="fill:#55acee;fill-opacity:1;stroke:none;stroke-width:0.26458332px;stroke-linecap:butt;stroke-linejoin:miter;stroke-opacity:1"
         d="m 210.7614,286.41664 c -0.13757,1.78186 -0.14159,3.61013 -0.14159,5.29166 h 20.10833 c 2.56246,0 3.39965,-2.41339 3.07165,-5.29166 z"
         id="path8689-6" />
      <path
         style="fill:#3b88c3;fill-opacity:1;stroke:none;stroke-width:0.26458332px;stroke-linecap:butt;stroke-linejoin:miter;stroke-opacity:1"
         d="m 225.425,287.47498 a 4.2333331,4.2333331 0 0 0 -4.23334,4.23333 h 8.46667 a 4.2333331,4.2333331 0 0 0 -4.23333,-4.23333 z"
         id="path8689-3" />
      <circle
         style="fill:#555555;fill-opacity:1;stroke:none;stroke-width:1.05833328;stroke-linecap:round;stroke-linejoin:bevel;stroke-miterlimit:4;stroke-dasharray:none;stroke-dashoffset:0;stroke-opacity:1;paint-order:normal"
         id="path8691"
         cx="225.42021"
         cy="291.71426"
         r="3.175" />
      <path
         style="fill:#aaaaaa;fill-opacity:1;stroke:none;stroke-width:1.05833328;stroke-linecap:round;stroke-linejoin:bevel;stroke-miterlimit:4;stroke-dasharray:none;stroke-dashoffset:0;stroke-opacity:1;paint-order:normal"
         d="m 206.37499,289.59166 v 2.11666 h 2.11667 v 3.175 h 2.11667 v -3.175 l 2.11667,-5e-5 v -2.11667 z"
         id="rect8693" />
      <rect
         style="fill:#c08268;fill-opacity:1;stroke:none;stroke-width:1.24725652;stroke-linecap:round;stroke-linejoin:bevel;stroke-miterlimit:4;stroke-dasharray:none;stroke-dashoffset:0;stroke-opacity:1;paint-order:normal"
         id="rect8716"
         width="4.2333221"
         height="9.5249748"
         x="214.84166"
         y="281.12497"
         ry="1.0583313" />
      <rect
         style="fill:#95685e;fill-opacity:1;stroke:none;stroke-width:1.40004277;stroke-linecap:round;stroke-linejoin:bevel;stroke-miterlimit:4;stroke-dasharray:none;stroke-dashoffset:0;stroke-opacity:1;paint-order:normal"
         id="rect8718"
         width="7.408349"
         height="4.2333088"
         x="222.24997"
         y="281.12497"
         ry="1.0583313" />
      <path
         style="fill:#55acee;fill-opacity:1;stroke:none;stroke-width:0.26458332px;stroke-linecap:butt;stroke-linejoin:miter;stroke-opacity:1"
         d="m 213.05341,279.00412 c -0.27077,0.32348 -0.50992,0.67871 -0.72398,1.05834 h 19.04586 c -0.26368,-0.37756 -0.54409,-0.73171 -0.84026,-1.05834 z"
         id="path8689-0" />
      <circle
         style="fill:#aaaaaa;fill-opacity:1;stroke:none;stroke-width:0.78666288;stroke-linecap:round;stroke-linejoin:bevel;stroke-miterlimit:4;stroke-dasharray:none;stroke-dashoffset:0;stroke-opacity:1;paint-order:normal"
         id="path8790"
         cx="225.425"
         cy="291.70828"
         r="1.5733258" />
    </g>
  </g>
</svg>
